<?xml version="1.0" encoding="utf-8"?>
<!-- Generator: Adobe Illustrator 24.0.1, SVG Export Plug-In . SVG Version: 6.00 Build 0)  -->
<svg version="1.1" id="Layer_1" xmlns="http://www.w3.org/2000/svg" xmlns:xlink="http://www.w3.org/1999/xlink" x="0px" y="0px"
	 viewBox="0 0 211.1 65.9" style="enable-background:new 0 0 211.1 65.9;" xml:space="preserve">
<style type="text/css">
	.st0{opacity:0.35;}
	.st1{fill:#9DA4EF;}
</style>
<g class="st0">
	<path class="st1" d="M19.1,34.4C23.7,29.7,26,25.2,26,21c0-1.4-0.3-2.5-0.9-3.3c-0.6-0.8-1.4-1.1-2.4-1.1c-1.2,0-2.1,0.6-2.8,1.8
		c-0.7,1.2-0.9,3-0.7,5.5H0.2c0.2-5.5,1.4-9.9,3.6-13.5C6,6.9,8.9,4.4,12.4,2.7c3.5-1.6,7.4-2.5,11.6-2.5c7.5,0,13,1.8,16.5,5.4
		c3.5,3.6,5.2,8.2,5.2,13.9c0,5.9-1.9,11.5-5.7,16.7c-3.8,5.2-8.5,9.6-14.2,13.2H46v15.8H0.5V50.4C8.4,44.6,14.6,39.2,19.1,34.4z"/>
	<path class="st1" d="M57.1,9c4.3-5.8,11-8.7,19.9-8.7C86,0.3,92.6,3.2,96.9,9c4.3,5.8,6.5,13.8,6.5,23.9c0,10.2-2.2,18.1-6.5,24
		s-11,8.8-19.9,8.8c-9,0-15.6-2.9-19.9-8.8c-4.3-5.8-6.5-13.8-6.5-24C50.7,22.8,52.8,14.8,57.1,9z M82.8,22.3
		c-0.9-2.4-2.8-3.6-5.7-3.6c-2.9,0-4.9,1.2-5.8,3.6c-0.9,2.4-1.4,5.9-1.4,10.6c0,4.8,0.5,8.3,1.4,10.7c0.9,2.4,2.9,3.6,5.8,3.6
		c2.9,0,4.8-1.2,5.7-3.6c0.9-2.4,1.4-5.9,1.4-10.7C84.2,28.2,83.7,24.7,82.8,22.3z"/>
	<path class="st1" d="M115.4,9c4.3-5.8,11-8.7,19.9-8.7c8.9,0,15.5,2.9,19.9,8.8c4.3,5.8,6.5,13.8,6.5,23.9c0,10.2-2.2,18.1-6.5,24
		s-11,8.8-19.9,8.8c-9,0-15.6-2.9-19.9-8.8c-4.3-5.8-6.5-13.8-6.5-24C108.9,22.8,111.1,14.8,115.4,9z M141,22.3
		c-0.9-2.4-2.8-3.6-5.7-3.6c-2.9,0-4.9,1.2-5.8,3.6c-0.9,2.4-1.4,5.9-1.4,10.6c0,4.8,0.5,8.3,1.4,10.7c0.9,2.4,2.9,3.6,5.8,3.6
		c2.9,0,4.8-1.2,5.7-3.6c0.9-2.4,1.4-5.9,1.4-10.7C142.4,28.2,142,24.7,141,22.3z"/>
	<path class="st1" d="M211.1,45.1H198v13.5h-18.7V45.1h-13.1V27.2h13.1V13.6H198v13.6h13.1V45.1z"/>
</g>
</svg>
