<?xml version="1.0" encoding="utf-8"?>
<!-- Generator: Adobe Illustrator 24.0.1, SVG Export Plug-In . SVG Version: 6.00 Build 0)  -->
<svg version="1.1" id="Layer_1" xmlns="http://www.w3.org/2000/svg" xmlns:xlink="http://www.w3.org/1999/xlink" x="0px" y="0px"
	 viewBox="0 0 96.6 64.3" style="enable-background:new 0 0 96.6 64.3;" xml:space="preserve">
<style type="text/css">
	.st0{opacity:0.35;}
	.st1{fill:#9876DF;}
</style>
<g class="st0">
	<path class="st1" d="M43.2,17.2H17.6v7.4c1.1-1,2.6-1.8,4.4-2.4c1.8-0.6,3.8-0.9,6-0.9c4,0,7.4,0.9,10.1,2.8
		c2.8,1.9,4.8,4.4,6.2,7.5c1.3,3.1,2,6.6,2,10.4c0,7-2,12.5-5.9,16.4c-4,3.9-9.4,5.9-16.3,5.9c-5,0-9.4-0.9-13.1-2.6
		c-3.7-1.8-6.5-4.2-8.4-7.3C0.7,51.3-0.2,47.7,0,43.7h19c0,0.9,0.3,1.8,1,2.6c0.6,0.8,1.7,1.2,3.2,1.2c1.5,0,2.6-0.5,3.3-1.6
		c0.7-1.1,1.1-2.5,1.1-4.3c0-1.7-0.4-3-1.2-3.9s-1.9-1.3-3.4-1.3c-1.2,0-2.2,0.3-2.8,0.9c-0.6,0.6-1,1.3-1,2H0V0h43.1V17.2z"/>
	<path class="st1" d="M96.6,43.4H83.5v13.5H64.7V43.4H51.6V25.5h13.1V12h18.7v13.6h13.1V43.4z"/>
</g>
</svg>
