<?xml version="1.0" encoding="utf-8"?>
<!-- Generator: Adobe Illustrator 24.0.1, SVG Export Plug-In . SVG Version: 6.00 Build 0)  -->
<svg version="1.1" id="Layer_1" xmlns="http://www.w3.org/2000/svg" xmlns:xlink="http://www.w3.org/1999/xlink" x="0px" y="0px"
	 viewBox="0 0 213.3 65.9" style="enable-background:new 0 0 213.3 65.9;" xml:space="preserve">
<style type="text/css">
	.st0{opacity:0.35;}
	.st1{fill:#F49EF0;}
</style>
<g class="st0">
	<path class="st1" d="M43.3,18.7H17.8v7.4c1.1-1,2.6-1.8,4.4-2.4c1.8-0.6,3.8-0.9,6-0.9c4,0,7.4,0.9,10.1,2.8
		c2.8,1.9,4.8,4.4,6.2,7.5c1.3,3.1,2,6.6,2,10.4c0,7-2,12.5-5.9,16.4c-4,3.9-9.4,5.9-16.3,5.9c-5,0-9.4-0.9-13.1-2.6
		c-3.7-1.8-6.5-4.2-8.4-7.3C0.9,52.8,0,49.3,0.1,45.3h19c0,0.9,0.3,1.8,1,2.6c0.6,0.8,1.7,1.2,3.2,1.2c1.5,0,2.6-0.5,3.3-1.6
		c0.7-1.1,1.1-2.5,1.1-4.3c0-1.7-0.4-3-1.2-3.9c-0.8-0.9-1.9-1.3-3.4-1.3c-1.2,0-2.2,0.3-2.8,0.9c-0.6,0.6-1,1.3-1,2h-19V1.6h43.1
		V18.7z"/>
	<path class="st1" d="M59.3,8.9c4.3-5.8,11-8.7,19.9-8.7c8.9,0,15.5,2.9,19.9,8.8c4.3,5.8,6.5,13.8,6.5,23.9c0,10.2-2.2,18.1-6.5,24
		c-4.3,5.8-11,8.8-19.9,8.8c-9,0-15.6-2.9-19.9-8.8C55,51,52.8,43,52.8,32.8C52.8,22.7,55,14.7,59.3,8.9z M85,22.2
		c-0.9-2.4-2.8-3.6-5.7-3.6c-2.9,0-4.9,1.2-5.8,3.6c-0.9,2.4-1.4,5.9-1.4,10.6c0,4.8,0.5,8.3,1.4,10.7c0.9,2.4,2.9,3.6,5.8,3.6
		c2.9,0,4.8-1.2,5.7-3.6s1.4-5.9,1.4-10.7C86.4,28.1,85.9,24.6,85,22.2z"/>
	<path class="st1" d="M117.6,8.9c4.3-5.8,11-8.7,19.9-8.7c8.9,0,15.5,2.9,19.9,8.8c4.3,5.8,6.5,13.8,6.5,23.9
		c0,10.2-2.2,18.1-6.5,24c-4.3,5.8-11,8.8-19.9,8.8c-9,0-15.6-2.9-19.9-8.8c-4.3-5.8-6.5-13.8-6.5-24
		C111.1,22.7,113.2,14.7,117.6,8.9z M143.2,22.2c-0.9-2.4-2.8-3.6-5.7-3.6c-2.9,0-4.9,1.2-5.8,3.6c-0.9,2.4-1.4,5.9-1.4,10.6
		c0,4.8,0.5,8.3,1.4,10.7c0.9,2.4,2.9,3.6,5.8,3.6c2.9,0,4.8-1.2,5.7-3.6s1.4-5.9,1.4-10.7C144.6,28.1,144.2,24.6,143.2,22.2z"/>
	<path class="st1" d="M213.3,45h-13.1v13.5h-18.7V45h-13.1V27.1h13.1V13.5h18.7v13.6h13.1V45z"/>
</g>
</svg>
