<?xml version="1.0" encoding="utf-8"?>
<!-- Generator: Adobe Illustrator 24.0.1, SVG Export Plug-In . SVG Version: 6.00 Build 0)  -->
<svg version="1.1" id="Layer_1" xmlns="http://www.w3.org/2000/svg" xmlns:xlink="http://www.w3.org/1999/xlink" x="0px" y="0px"
	 viewBox="0 0 1000 1000" style="enable-background:new 0 0 1000 1000;" xml:space="preserve">
<style type="text/css">
	.st0{fill:#DDDFF9;}
	.st1{fill:#9DA4EF;}
</style>
<g>
	<g>
		<circle class="st0" cx="500" cy="500" r="499"/>
	</g>
	<g>
		<path class="st1" d="M857.1,45.1l-40.5,40.4l-13.5,79.4l31,31.1l79.4-13.4l40.5-40.4l-79.3-16l-1.7-1.7L857.1,45.1z"/>
		<path class="st1" d="M804.1,98l-40.5,40.4l-13.5,79.4l31,31.1l79.4-13.4L901,195l-79.3-16l-1.7-1.7L804.1,98z"/>
		<path class="st1" d="M851.8,174.6L525.4,500.6c-7.4,7.4-19.5,7.4-26.9,0l0,0c-7.4-7.4-7.4-19.5,0-26.9L825,147.8
			c7.4-7.4,19.5-7.4,26.9,0l0,0C859.3,155.2,859.3,167.2,851.8,174.6z"/>
		<path class="st1" d="M751.2,150.9l-40.5,40.4l1.2,94.1l1.7,1.7l94.1,1.3l40.5-40.4l-79.3-16l-1.7-1.7L751.2,150.9z"/>
		<path class="st1" d="M303.5,288.3c-52.2,52.1-84.4,124-84.5,203.6c-0.1,159,128.7,288.1,287.8,288.2
			c159,0.1,288.1-128.7,288.2-287.7c0.1-68.9-24.1-132.2-64.5-181.8l-51.3,51.2C706.7,398,723,443.3,723,492.3
			c-0.1,119.3-96.9,215.9-216.2,215.8C387.5,708,290.9,611.2,291,491.9c0.1-119.3,96.9-215.9,216.2-215.8c49,0,94.2,16.4,130.4,44
			l51.3-51.2c-49.5-40.4-112.8-64.7-181.7-64.7C427.7,204.1,355.7,236.3,303.5,288.3z M405.2,390.2c-26.1,26-42.2,62-42.3,101.8
			c-0.1,79.5,64.4,144,143.9,144.1c79.5,0.1,144-64.4,144.1-143.9c0-29.1-8.6-56.2-23.4-78.9l-53.2,53.2c3,8,4.7,16.6,4.7,25.7
			c0,39.8-32.3,72-72.1,71.9c-39.8,0-72-32.3-71.9-72c0-39.8,32.3-72,72.1-71.9c9,0,17.7,1.7,25.6,4.7l53.2-53.2
			c-22.6-14.9-49.7-23.5-78.8-23.6C467.3,348.1,431.3,364.2,405.2,390.2z"/>
	</g>
</g>
</svg>
