<?xml version="1.0" encoding="utf-8"?>
<!-- Generator: Adobe Illustrator 24.0.1, SVG Export Plug-In . SVG Version: 6.00 Build 0)  -->
<svg version="1.1" id="Illustration" xmlns="http://www.w3.org/2000/svg" xmlns:xlink="http://www.w3.org/1999/xlink" x="0px"
	 y="0px" viewBox="0 0 2687.1 2000" style="enable-background:new 0 0 2687.1 2000;" xml:space="preserve">
<style type="text/css">
	.st0{fill-rule:evenodd;clip-rule:evenodd;fill:#D5F0FF;}
	.st1{fill-rule:evenodd;clip-rule:evenodd;fill:#38C551;}
	.st2{fill:#38C551;}
	.st3{fill:#FFFFFF;}
	.st4{fill-rule:evenodd;clip-rule:evenodd;fill:#61EA75;}
	.st5{fill:#61EA75;}
	.st6{fill-rule:evenodd;clip-rule:evenodd;fill:#9999FE;}
	.st7{fill:#CCCCFE;}
	.st8{fill-rule:evenodd;clip-rule:evenodd;fill:#CCCCFE;}
	.st9{fill:#9999FE;}
	.st10{fill-rule:evenodd;clip-rule:evenodd;fill:#BE96F8;}
	.st11{fill-rule:evenodd;clip-rule:evenodd;fill:#DFCFFD;}
	.st12{fill-rule:evenodd;clip-rule:evenodd;fill:#FFFFFF;}
	.st13{fill-rule:evenodd;clip-rule:evenodd;fill:#DFE6FF;}
	.st14{fill-rule:evenodd;clip-rule:evenodd;fill:#FEB542;}
	.st15{fill-rule:evenodd;clip-rule:evenodd;fill:#6799FE;}
	.st16{fill-rule:evenodd;clip-rule:evenodd;fill:#42C5A0;}
	.st17{fill-rule:evenodd;clip-rule:evenodd;fill:#F49EF0;}
	.st18{fill-rule:evenodd;clip-rule:evenodd;fill:#8183F1;}
	.st19{fill-rule:evenodd;clip-rule:evenodd;fill:#2C7EFE;}
	.st20{fill-rule:evenodd;clip-rule:evenodd;fill:#FF9866;}
	.st21{fill-rule:evenodd;clip-rule:evenodd;fill:#000064;}
	.st22{fill-rule:evenodd;clip-rule:evenodd;fill:#03038C;}
	.st23{fill-rule:evenodd;clip-rule:evenodd;fill:#FFAA81;}
	.st24{fill-rule:evenodd;clip-rule:evenodd;fill:#00125E;}
	.st25{fill-rule:evenodd;clip-rule:evenodd;fill:#84B2FE;}
	.st26{fill-rule:evenodd;clip-rule:evenodd;fill:#E847ED;}
	.st27{fill-rule:evenodd;clip-rule:evenodd;fill:#060352;}
	.st28{fill-rule:evenodd;clip-rule:evenodd;fill:#F9F987;}
	.st29{fill-rule:evenodd;clip-rule:evenodd;fill:url(#SVGID_1_);}
	.st30{fill-rule:evenodd;clip-rule:evenodd;fill:url(#SVGID_2_);}
	.st31{fill-rule:evenodd;clip-rule:evenodd;fill:url(#SVGID_3_);}
	.st32{fill-rule:evenodd;clip-rule:evenodd;fill:url(#SVGID_4_);}
	.st33{fill-rule:evenodd;clip-rule:evenodd;fill:#0643A3;}
	.st34{fill-rule:evenodd;clip-rule:evenodd;fill:url(#SVGID_5_);}
</style>
<g>
	<g>
		<g>
			<path class="st0" d="M361.8,508.4C522.9,246.5,986,68.3,1523.3,87.5c658.8,23.4,1179.8,334.6,1163.4,695.2
				c-8,176.1-142.4,331-354.6,441.1c-161.1,262.4-624.2,440.6-1161.9,421.4C511.8,1621.3-9.1,1310.1,7.2,949.5
				C15.2,773.9,149.7,618.5,361.8,508.4L361.8,508.4z"/>
		</g>
		<g>
			<g>
				<g>
					<path class="st1" d="M2635.3,615.3c-45.7,132.1-162.8,252.8-324.4,315.6c-161.6,62.8-329.4,52.8-452.4-13.8
						c45.7-132.1,162.8-252.8,324.4-315.6C2344.6,538.8,2512.5,548.7,2635.3,615.3L2635.3,615.3z"/>
					<path class="st2" d="M1855.6,918.3l0.7-1.9c47.7-137.8,169.5-256.3,325.8-317.1c156.4-60.8,326.3-55.6,454.4,13.9l1.8,1
						l-0.7,1.9c-47.6,137.8-169.4,256.3-325.8,317.1c-156.3,60.7-326.2,55.5-454.4-13.9L1855.6,918.3z M2632.4,616.5
						c-126.7-67.9-294.2-72.6-448.5-12.7c-154.3,59.9-274.6,176.5-322.3,312.2c126.8,67.8,294.3,72.6,448.5,12.7
						C2464.4,868.7,2584.7,752.1,2632.4,616.5z"/>
				</g>
				<g>
					<g>
						<path class="st3" d="M1856.3,918c-0.5-1.2,0.1-2.6,1.4-3.1l776.8-301.8c1.2-0.5,2.6,0.1,3.1,1.4c0.5,1.2-0.1,2.6-1.4,3.1
							l-776.8,301.8C1858.2,919.9,1856.8,919.3,1856.3,918z"/>
					</g>
					<g>
						<path class="st3" d="M2497.9,668.7c-0.2-0.4-0.2-0.9-0.1-1.3c0.2-1.3,1.5-2.2,2.8-1.9l102.6,19.3c1.3,0.2,2.2,1.5,1.9,2.8
							c-0.2,1.3-1.5,2.2-2.8,1.9l-102.6-19.3C2498.9,670.1,2498.2,669.5,2497.9,668.7z"/>
					</g>
					<g>
						<path class="st3" d="M2399.4,707c-0.2-0.6-0.2-1.4,0.1-2l74.9-141.6c0.6-1.2,2.1-1.6,3.3-1s1.6,2.1,1,3.3l-74.9,141.6
							c-0.6,1.2-2.1,1.6-3.3,1C2400,708,2399.6,707.5,2399.4,707z"/>
					</g>
					<g>
						<path class="st3" d="M2295.3,747.4c-0.2-0.6-0.2-1.2,0-1.8c0.5-1.2,2-1.8,3.2-1.2l187,81.9c1.2,0.5,1.8,2,1.2,3.2
							c-0.5,1.2-2,1.8-3.2,1.2l-187-81.9C2296,748.5,2295.5,748,2295.3,747.4z"/>
					</g>
					<g>
						<path class="st3" d="M2133.6,810.3c-0.3-0.7-0.2-1.4,0.1-2.1l132-234.2c0.7-1.2,2.1-1.6,3.3-0.9c1.2,0.7,1.6,2.1,0.9,3.3
							l-132,234.2c-0.7,1.2-2.1,1.6-3.3,0.9C2134.1,811.2,2133.8,810.8,2133.6,810.3z"/>
					</g>
					<g>
						<path class="st3" d="M2018.4,855.1c-0.2-0.6-0.2-1.2,0-1.9c0.5-1.2,2-1.8,3.2-1.2l223.7,98.5c1.2,0.5,1.8,2,1.2,3.2
							c-0.5,1.2-2,1.8-3.2,1.2l-223.7-98.5C2019,856.1,2018.6,855.6,2018.4,855.1z"/>
					</g>
					<g>
						<path class="st3" d="M1934.7,887.6c-0.2-0.6-0.2-1.2,0-1.8l76.1-185.8c0.5-1.2,1.9-1.8,3.2-1.3c1.2,0.5,1.8,1.9,1.3,3.2
							l-76.1,185.8c-0.5,1.2-1.9,1.8-3.2,1.3C1935.4,888.7,1934.9,888.2,1934.7,887.6z"/>
					</g>
				</g>
			</g>
			<g>
				<g>
					<path class="st4" d="M2143.3,175c71,120.4,87,287.8,30.1,451.6s-173.3,285.1-303.7,335.6c-71-120.5-87-287.8-30.1-451.6
						C1896.5,346.8,2012.9,225.4,2143.3,175L2143.3,175z"/>
					<path class="st5" d="M1868.6,965.1l-1-1.8c-74-125.6-85.3-295.2-30.3-453.6c55.1-158.5,169.2-284.5,305.1-337l1.9-0.7l1,1.8
						c74,125.6,85.4,295.1,30.3,453.6c-55.1,158.4-169.1,284.4-305.1,337L1868.6,965.1z M2142.2,178
						c-133.8,52.5-246,176.9-300.4,333.4c-54.3,156.3-43.5,323.5,28.8,447.8c133.8-52.6,246-177,300.4-333.3
						C2225.4,469.4,2214.6,302.1,2142.2,178z"/>
				</g>
				<g>
					<g>
						<path class="st3" d="M1868.8,964.4c-1.3-0.4-1.9-1.8-1.5-3.1L2141,174.2c0.4-1.3,1.8-1.9,3.1-1.5s1.9,1.8,1.5,3.1L1872,962.9
							C1871.5,964.2,1870.1,964.8,1868.8,964.4z"/>
					</g>
					<g>
						<path class="st3" d="M2094.9,314.2c-0.4-0.1-0.8-0.4-1.1-0.8c-0.8-1-0.7-2.6,0.4-3.4l81.2-65.6c1-0.8,2.6-0.7,3.4,0.4
							c0.8,1,0.7,2.6-0.4,3.4l-81.2,65.6C2096.5,314.3,2095.6,314.5,2094.9,314.2z"/>
					</g>
					<g>
						<path class="st3" d="M2060.2,414c-0.6-0.2-1.2-0.7-1.5-1.4l-59.3-148.8c-0.5-1.2,0.1-2.6,1.4-3.1c1.2-0.5,2.6,0.1,3.1,1.4
							l59.3,148.8c0.5,1.2-0.1,2.6-1.4,3.1C2061.3,414.2,2060.7,414.2,2060.2,414z"/>
					</g>
					<g>
						<path class="st3" d="M2023.5,519.5c-0.6-0.2-1.1-0.6-1.4-1.2c-0.6-1.2-0.1-2.7,1.1-3.2l183.6-89.3c1.2-0.6,2.6-0.1,3.2,1.1
							c0.6,1.2,0.1,2.7-1.1,3.2l-183.6,89.3C2024.7,519.7,2024.1,519.7,2023.5,519.5z"/>
					</g>
					<g>
						<path class="st3" d="M1966.5,683.4c-0.7-0.2-1.2-0.7-1.5-1.5l-92.8-252.3c-0.5-1.3,0.2-2.6,1.4-3.1c1.3-0.5,2.6,0.2,3.1,1.4
							l92.8,252.3c0.5,1.3-0.2,2.6-1.4,3.1C1967.6,683.6,1967,683.6,1966.5,683.4z"/>
					</g>
					<g>
						<path class="st3" d="M1925.9,800.2c-0.6-0.2-1.1-0.6-1.4-1.2c-0.6-1.2-0.1-2.7,1.1-3.2l220-106.6c1.2-0.6,2.6-0.1,3.2,1.1
							c0.6,1.2,0.1,2.7-1.1,3.2l-220,106.6C1927.2,800.4,1926.5,800.4,1925.9,800.2z"/>
					</g>
					<g>
						<path class="st3" d="M1896.4,884.9c-0.6-0.2-1.1-0.6-1.4-1.2l-92.2-178.4c-0.6-1.2-0.1-2.6,1-3.3c1.2-0.6,2.6-0.1,3.3,1
							l92.2,178.4c0.6,1.2,0.1,2.6-1,3.3C1897.7,885.1,1897,885.1,1896.4,884.9z"/>
					</g>
				</g>
			</g>
		</g>
		<g>
			<g>
				<g>
					<path class="st1" d="M1771.7,338.6c66.3,44.9,115.7,127.7,126.5,226.5c10.7,98.8-19.7,190.2-74.9,248.4
						c-66.3-45-115.7-127.7-126.5-226.5S1716.6,396.8,1771.7,338.6L1771.7,338.6z"/>
					<path class="st2" d="M1823.5,815.3l-1-0.7c-69.2-46.9-116.7-131.9-127.1-227.5s17.7-188.9,75.2-249.5l0.8-0.9l1,0.7
						c69.2,46.8,116.7,131.9,127.1,227.5s-17.7,188.8-75.2,249.5L1823.5,815.3z M1771.9,340.5c-56.4,60.1-83.9,152.1-73.7,246.4
						c10.3,94.3,56.9,178.2,124.9,224.8c56.4-60.1,83.9-152.1,73.7-246.4C1886.6,470.9,1839.9,387,1771.9,340.5z"/>
				</g>
				<g>
					<g>
						<path class="st3" d="M1823.5,814.9c-0.8,0.1-1.4-0.5-1.5-1.2l-51.6-474.9c-0.1-0.8,0.5-1.4,1.2-1.5c0.8-0.1,1.4,0.5,1.5,1.2
							l51.6,474.9C1824.8,814.1,1824.3,814.8,1823.5,814.9z"/>
					</g>
					<g>
						<path class="st3" d="M1780.9,422.6c-0.2,0-0.5,0-0.7-0.1c-0.7-0.3-1-1.2-0.6-1.9l25.9-53.9c0.3-0.7,1.2-1,1.9-0.6
							c0.7,0.3,1,1.2,0.6,1.9l-25.9,53.9C1781.7,422.3,1781.3,422.6,1780.9,422.6z"/>
					</g>
					<g>
						<path class="st3" d="M1787.4,482.9c-0.4,0-0.8-0.1-1.1-0.4l-67.2-62.5c-0.6-0.5-0.6-1.4-0.1-2s1.4-0.6,2-0.1l67.2,62.5
							c0.6,0.5,0.6,1.4,0.1,2C1788,482.7,1787.7,482.8,1787.4,482.9z"/>
					</g>
					<g>
						<path class="st3" d="M1794.3,546.5c-0.4,0-0.7-0.1-1-0.3c-0.6-0.5-0.7-1.4-0.2-1.9l73.1-91.3c0.5-0.6,1.4-0.7,1.9-0.2
							c0.6,0.5,0.7,1.4,0.2,1.9l-73.1,91.3C1795,546.3,1794.7,546.5,1794.3,546.5z"/>
					</g>
					<g>
						<path class="st3" d="M1805.1,645.4c-0.4,0-0.8-0.1-1.1-0.4l-110-107.9c-0.5-0.5-0.6-1.4,0-2c0.5-0.5,1.4-0.6,2,0L1806,643
							c0.5,0.5,0.6,1.4,0,2C1805.7,645.2,1805.4,645.4,1805.1,645.4z"/>
					</g>
					<g>
						<path class="st3" d="M1812.7,715.8c-0.4,0-0.7-0.1-1-0.3c-0.6-0.5-0.7-1.4-0.2-2l87.8-109.2c0.5-0.6,1.4-0.7,2-0.2
							s0.7,1.4,0.2,2l-87.8,109.2C1813.4,715.6,1813.1,715.8,1812.7,715.8z"/>
					</g>
					<g>
						<path class="st3" d="M1818.3,767c-0.3,0-0.7-0.1-1-0.3l-91.5-69.7c-0.6-0.5-0.7-1.3-0.3-1.9c0.5-0.6,1.3-0.7,1.9-0.3
							l91.5,69.7c0.6,0.5,0.7,1.3,0.3,1.9C1819,766.7,1818.6,766.9,1818.3,767z"/>
					</g>
				</g>
			</g>
			<g>
				<g>
					<path class="st4" d="M1454.8,545.6c77.2-21.4,172.3-5.4,254.5,50.5s132.1,138.3,140.6,218c-77.2,21.4-172.3,5.4-254.5-50.5
						C1513.2,707.7,1463.3,625.3,1454.8,545.6L1454.8,545.6z"/>
					<path class="st5" d="M1851.4,815.1l-1.1,0.3c-80.6,22.3-176.1,3.4-255.6-50.7c-79.5-54.1-132.3-135.9-141.2-219l-0.1-1.2
						l1.1-0.3c80.5-22.3,176.1-3.4,255.6,50.7c79.5,54,132.3,135.9,141.2,219L1851.4,815.1z M1456.3,546.6
						c9.2,81.9,61.4,162.5,139.9,215.8s172.6,72.2,252.2,50.6c-9.2-81.9-61.4-162.5-139.9-215.8C1630,543.9,1535.8,525,1456.3,546.6
						z"/>
				</g>
				<g>
					<g>
						<path class="st3" d="M1851,814.9c-0.4,0.6-1.3,0.8-1.9,0.4L1454,546.7c-0.6-0.4-0.8-1.3-0.4-1.9c0.4-0.6,1.3-0.8,1.9-0.4
							l395.1,268.5C1851.3,813.4,1851.5,814.2,1851,814.9z"/>
					</g>
					<g>
						<path class="st3" d="M1524.7,593.1c-0.1,0.2-0.3,0.4-0.6,0.5c-0.7,0.3-1.5,0-1.8-0.7l-24.3-54.7c-0.3-0.7,0-1.5,0.7-1.8
							s1.5,0,1.8,0.7l24.3,54.7C1525,592.2,1524.9,592.7,1524.7,593.1z"/>
					</g>
					<g>
						<path class="st3" d="M1574.8,627.1c-0.2,0.3-0.6,0.5-1,0.6l-91.2,10.7c-0.8,0.1-1.5-0.5-1.5-1.2c-0.1-0.8,0.5-1.4,1.2-1.5
							l91.2-10.7c0.8-0.1,1.5,0.5,1.5,1.2C1575.1,626.5,1575,626.9,1574.8,627.1z"/>
					</g>
					<g>
						<path class="st3" d="M1627.7,663.1c-0.2,0.3-0.5,0.5-0.9,0.6c-0.8,0.1-1.5-0.3-1.6-1.1L1603,547.7c-0.1-0.8,0.3-1.5,1.1-1.6
							c0.8-0.1,1.5,0.3,1.6,1.1l22.2,114.9C1628,662.4,1627.9,662.8,1627.7,663.1z"/>
					</g>
					<g>
						<path class="st3" d="M1710,719c-0.2,0.3-0.6,0.6-1,0.6l-153.5,13.9c-0.8,0.1-1.4-0.5-1.5-1.3s0.5-1.4,1.3-1.5l153.5-13.9
							c0.8-0.1,1.4,0.5,1.5,1.3C1710.3,718.5,1710.2,718.8,1710,719z"/>
					</g>
					<g>
						<path class="st3" d="M1768.6,758.8c-0.2,0.3-0.5,0.5-0.9,0.6c-0.8,0.1-1.5-0.4-1.6-1.1l-26.3-137.6c-0.1-0.8,0.4-1.5,1.1-1.6
							c0.8-0.1,1.5,0.4,1.6,1.1l26.3,137.6C1768.9,758.2,1768.8,758.5,1768.6,758.8z"/>
					</g>
					<g>
						<path class="st3" d="M1811.1,787.7c-0.2,0.3-0.5,0.5-0.9,0.6l-112.4,24.5c-0.7,0.2-1.5-0.3-1.7-1.1c-0.2-0.7,0.3-1.5,1.1-1.7
							l112.4-24.5c0.7-0.2,1.5,0.3,1.7,1.1C1811.4,787.1,1811.4,787.4,1811.1,787.7z"/>
					</g>
				</g>
			</g>
		</g>
		<g>
			<g>
				<g>
					<path class="st1" d="M515.4,792.4c79.6,53.9,139,153.3,151.8,271.9c12.9,118.6-23.7,228.3-89.9,298.2
						c-79.6-54-139-153.3-151.8-271.9C412.6,972,449.2,862.2,515.4,792.4L515.4,792.4z"/>
					<path class="st2" d="M577.6,1364.7l-1.2-0.8c-83.1-56.3-140.1-158.4-152.6-273.1C411.4,976,445.1,864,514.2,791.3l1-1l1.2,0.8
						c83.1,56.2,140.1,158.3,152.6,273.1c12.5,114.7-21.3,226.7-90.3,299.5L577.6,1364.7z M515.6,794.6
						c-67.7,72.1-100.8,182.5-88.5,295.8c12.3,113.2,68.3,214,150,269.9c67.7-72.1,100.8-182.6,88.5-295.8
						C653.2,951.2,597.2,850.5,515.6,794.6z"/>
				</g>
				<g>
					<g>
						<path class="st3" d="M577.5,1364.1c-0.9,0.1-1.7-0.6-1.8-1.5l-62-570.1c-0.1-0.9,0.6-1.7,1.5-1.8s1.7,0.6,1.8,1.5l62,570.1
							C579.1,1363.2,578.4,1364,577.5,1364.1z"/>
					</g>
					<g>
						<path class="st3" d="M526.3,893.3c-0.3,0-0.6,0-0.9-0.2c-0.8-0.4-1.2-1.4-0.8-2.2l31.1-64.8c0.4-0.8,1.4-1.2,2.2-0.8
							s1.2,1.4,0.8,2.2l-31.1,64.8C527.4,892.9,526.9,893.2,526.3,893.3z"/>
					</g>
					<g>
						<path class="st3" d="M534.2,965.5c-0.5,0.1-0.9-0.1-1.3-0.4L452.2,890c-0.7-0.6-0.7-1.7-0.1-2.4s1.7-0.7,2.4-0.1l80.7,75.1
							c0.7,0.6,0.7,1.7,0.1,2.4C534.9,965.3,534.6,965.5,534.2,965.5z"/>
					</g>
					<g>
						<path class="st3" d="M542.5,1042c-0.4,0-0.9-0.1-1.2-0.4c-0.7-0.6-0.8-1.6-0.3-2.3l87.8-109.7c0.6-0.7,1.6-0.8,2.3-0.3
							c0.7,0.6,0.8,1.6,0.3,2.3l-87.8,109.7C543.3,1041.7,542.9,1041.9,542.5,1042z"/>
					</g>
					<g>
						<path class="st3" d="M555.4,1160.7c-0.5,0.1-1-0.1-1.3-0.5L422,1030.7c-0.7-0.6-0.7-1.7,0-2.4c0.6-0.7,1.7-0.7,2.4,0
							l132.1,129.5c0.7,0.6,0.7,1.7,0,2.4C556.1,1160.5,555.8,1160.6,555.4,1160.7z"/>
					</g>
					<g>
						<path class="st3" d="M564.6,1245.2c-0.4,0-0.9-0.1-1.2-0.4c-0.7-0.6-0.8-1.6-0.3-2.3l105.3-131.1c0.6-0.7,1.6-0.8,2.3-0.3
							c0.7,0.6,0.8,1.6,0.3,2.3l-105.3,131.1C565.4,1245,565,1245.2,564.6,1245.2z"/>
					</g>
					<g>
						<path class="st3" d="M571.3,1306.6c-0.4,0-0.8-0.1-1.2-0.3l-109.9-83.7c-0.7-0.6-0.9-1.6-0.3-2.3c0.6-0.7,1.6-0.9,2.3-0.3
							l109.9,83.7c0.7,0.6,0.9,1.6,0.3,2.3C572.1,1306.3,571.7,1306.6,571.3,1306.6z"/>
					</g>
				</g>
			</g>
			<g>
				<g>
					<path class="st4" d="M134.9,1040.9c92.7-25.7,206.8-6.5,305.5,60.6s158.5,166,168.8,261.7c-92.7,25.7-206.8,6.5-305.5-60.6
						S145.1,1136.5,134.9,1040.9L134.9,1040.9z"/>
					<path class="st5" d="M611,1364.4l-1.4,0.4c-96.7,26.8-211.4,4-306.8-60.8c-95.5-64.9-158.9-163.2-169.5-262.9l-0.2-1.4l1.4-0.4
						c96.7-26.8,211.4-4.1,306.8,60.8s158.8,163.1,169.5,262.9L611,1364.4z M136.7,1042.1c11,98.3,73.7,195.1,167.9,259.1
						s207.2,86.7,302.7,60.7c-11.1-98.3-73.7-195.1-167.9-259.1C345.2,1038.8,232.2,1016.1,136.7,1042.1z"/>
				</g>
				<g>
					<g>
						<path class="st3" d="M610.6,1364.1c-0.5,0.8-1.6,1-2.3,0.4L134,1042.2c-0.8-0.5-1-1.6-0.4-2.3c0.5-0.8,1.6-1,2.3-0.4
							l474.3,322.3C610.9,1362.3,611.1,1363.3,610.6,1364.1z"/>
					</g>
					<g>
						<path class="st3" d="M218.8,1097.9c-0.2,0.2-0.4,0.5-0.7,0.6c-0.8,0.4-1.8,0-2.2-0.8l-29.1-65.7c-0.4-0.8,0-1.8,0.8-2.2
							c0.8-0.4,1.8,0,2.2,0.8l29.1,65.7C219.2,1096.8,219.1,1097.4,218.8,1097.9z"/>
					</g>
					<g>
						<path class="st3" d="M278.9,1138.7c-0.3,0.4-0.7,0.7-1.2,0.7l-109.5,12.8c-0.9,0.1-1.7-0.5-1.8-1.5c-0.1-0.9,0.5-1.7,1.5-1.8
							l109.5-12.8c0.9-0.1,1.7,0.5,1.8,1.5C279.3,1138,279.2,1138.4,278.9,1138.7z"/>
					</g>
					<g>
						<path class="st3" d="M342.5,1181.9c-0.2,0.4-0.6,0.6-1.1,0.7c-0.9,0.2-1.8-0.4-2-1.3l-26.6-137.9c-0.2-0.9,0.4-1.8,1.3-2
							s1.8,0.4,2,1.3l26.6,137.9C342.9,1181.1,342.7,1181.6,342.5,1181.9z"/>
					</g>
					<g>
						<path class="st3" d="M441.3,1249.1c-0.3,0.4-0.7,0.7-1.2,0.7l-184.2,16.6c-0.9,0.1-1.7-0.6-1.8-1.5s0.6-1.7,1.5-1.8
							l184.2-16.6c0.9-0.1,1.7,0.6,1.8,1.5C441.6,1248.4,441.5,1248.8,441.3,1249.1z"/>
					</g>
					<g>
						<path class="st3" d="M511.6,1296.9c-0.2,0.4-0.6,0.6-1.1,0.7c-0.9,0.2-1.8-0.4-1.9-1.3L477,1131c-0.2-0.9,0.4-1.8,1.3-1.9
							c0.9-0.2,1.8,0.4,1.9,1.3l31.6,165.2C512,1296.1,511.9,1296.5,511.6,1296.9z"/>
					</g>
					<g>
						<path class="st3" d="M562.7,1331.6c-0.2,0.3-0.6,0.6-1,0.7l-135,29.4c-0.9,0.2-1.8-0.4-2-1.3s0.4-1.8,1.3-2l135-29.4
							c0.9-0.2,1.8,0.4,2,1.3C563,1330.7,562.9,1331.2,562.7,1331.6z"/>
					</g>
				</g>
			</g>
		</g>
		<g>
			<g>
				<g>
					<path class="st6" d="M1795.5,1139.1c22.3-50,100.1,26.4,106.6-8.1c-5-50.3-72-173.1,46.6-219c218.8-80.2-0.4,204.9,30.1,273.5
						c17.9,30.4,110.1-21.6,99.3,44.2c-22.2,80.8-143.4,92-215.1,138C1840.6,1291.5,1772.6,1196.4,1795.5,1139.1L1795.5,1139.1z"/>
				</g>
				<g>
					<g>
						<path class="st7" d="M1828.9,1488.8c-0.3,0-0.7,0-1-0.1c-2.2-0.6-3.6-2.8-3-5.1c13.1-51.7,33.5-115,53.3-176.2
							c21.6-66.8,43.9-135.8,57.6-192.6c15.3-62.9,18-102.5,8.4-120.9c-1.1-2-0.3-4.6,1.8-5.6s4.6-0.3,5.6,1.8
							c23.3,44.7-19.8,178.4-65.5,319.9c-19.7,61.1-40.1,124.3-53.1,175.7C1832.5,1487.5,1830.8,1488.8,1828.9,1488.8z"/>
					</g>
					<g>
						<path class="st7" d="M1886.2,1300.2c-0.7,0-1.3-0.2-1.9-0.5c-2-1.1-2.8-3.6-1.8-5.6c20-38.2,57.8-44.1,109-48.3
							c2.3-0.2,4.3,1.5,4.5,3.8s-1.5,4.3-3.8,4.5c-56.2,4.6-85.8,12.3-102.3,43.9C1889.2,1299.4,1887.7,1300.2,1886.2,1300.2z"/>
					</g>
					<g>
						<path class="st7" d="M1900.1,1257.3c-0.3,0-0.5,0-0.8-0.1c-2.3-0.4-3.8-2.6-3.3-4.9c6.3-33.9-30.5-83.2-49.9-91.2
							c-2.1-0.9-3.2-3.3-2.3-5.5c0.9-2.1,3.3-3.2,5.5-2.3c22.5,9.3,62.2,61.6,55,100.4C1903.8,1255.9,1902,1257.3,1900.1,1257.3z"/>
					</g>
				</g>
			</g>
			<g>
				<g>
					<path class="st8" d="M1608.8,1169c-5.1-60.2,110.9-28,98.7-64.8c-31.8-46-162.1-128.6-72-236.4
						c168.3-194.4,109,198.2,175.2,248c33.6,19.8,94.7-79.7,119.5-10.2c21.8,89.8-89.2,165.5-133.8,248.1
						C1733.9,1292.2,1617.5,1236.5,1608.8,1169L1608.8,1169z"/>
				</g>
				<g>
					<g>
						<path class="st9" d="M1825.9,1489c-1.9,0-3.5-1.2-4-3.1c-15-56.9-29.1-129.1-42.8-198.8c-14.9-76-30.3-154.6-47.3-216.7
							c-18.9-69-37.4-108.7-56.6-121.4c-1.9-1.3-2.5-3.9-1.2-5.8c1.3-1.9,3.9-2.5,5.8-1.2c21.3,14.1,40.3,54.2,60.1,126.2
							c17.1,62.4,32.5,141.2,47.4,217.3c13.6,69.6,27.7,141.6,42.7,198.3c0.6,2.2-0.7,4.5-3,5.1
							C1826.6,1489,1826.2,1489,1825.9,1489z"/>
					</g>
					<g>
						<path class="st9" d="M1780.4,1276.3c-2.3,0-4.1-1.8-4.2-4.1c-1.2-47.2,32.1-73.2,79.2-104.7c1.9-1.3,4.5-0.8,5.8,1.2
							c1.3,1.9,0.8,4.5-1.2,5.8c-51.9,34.7-76.5,58.2-75.5,97.5C1784.6,1274.3,1782.7,1276.2,1780.4,1276.3
							C1780.5,1276.3,1780.4,1276.3,1780.4,1276.3z"/>
					</g>
					<g>
						<path class="st9" d="M1770.7,1227.4c-1.8,0-3.4-1.1-4-2.9c-12.1-36.4-74.3-64.4-97.4-61.6c-2.3,0.3-4.4-1.4-4.6-3.7
							c-0.3-2.3,1.4-4.4,3.7-4.6c13.4-1.6,36.5,5.2,57.6,16.9c14.6,8.1,40.5,25.5,48.7,50.4c0.7,2.2-0.5,4.6-2.7,5.3
							C1771.6,1227.4,1771.1,1227.4,1770.7,1227.4z"/>
					</g>
				</g>
			</g>
			<polygon class="st10" points="1874.8,1629.6 1912.5,1648.2 1830.9,1648.2 1749.4,1648.2 1787.2,1629.6 			"/>
			<path class="st11" d="M2003.7,1475.6c-7.3,89-81.8,159-172.7,159c-90.9,0-165.4-70.1-172.6-159H2003.7z"/>
			<path class="st12" d="M1791.9,1613.3c-58.6-8.5-106.1-59.6-114.4-125.2l13.3-0.7c8.3,61,48.9,109.7,101.1,125.7V1613.3z"/>
		</g>
		<path class="st13" d="M1381.5,2000c685.9,0,1245.1-24.1,1245.1-54c0-29.5-559.2-54-1245.1-54s-1245.1,24.5-1245.1,54
			C136.4,1975.9,695.6,2000,1381.5,2000L1381.5,2000z"/>
		<g>
			<g>
				<path class="st14" d="M630.6,1047.5h1324.5c29.4,0,53.6,22.6,53.6,50v202.4c0,27.4-24.3,50-53.6,50H630.6
					c-24.6,0-45.4-15.5-51.6-36.4c2.8,0.6,5.6,0.8,8.5,0.8H1923c24.3,0,44.3-18.3,44.3-40.9v-149.3c0-22.3-20-40.9-44.3-40.9H587.4
					c-2.8,0-5.6,0.3-8.5,0.8C585.1,1063,606,1047.5,630.6,1047.5L630.6,1047.5z"/>
				<path class="st12" d="M597.5,1083h1325.3c24.3,0,44.3,18.6,44.3,40.9v149.3c0,22.6-20,40.9-44.3,40.9H597.5V1083z"/>
				<g>
					<path class="st13" d="M597.5,1257.4H1926c4.8,0,8.7,2.3,8.7,5.1l0,0c0,2.5-4,5.1-8.7,5.1H597.5V1257.4z"/>
					<path class="st13" d="M597.5,1282.8H1926c4.8,0,8.7,2.3,8.7,5.1l0,0c0,2.8-4,5.1-8.7,5.1H597.5V1282.8z"/>
					<path class="st13" d="M597.5,1179.3H1926c4.8,0,8.7,2.3,8.7,5.1l0,0c0,2.8-4,5.1-8.7,5.1H597.5V1179.3z"/>
					<path class="st13" d="M597.5,1204.7H1926c4.8,0,8.7,2.3,8.7,5.1l0,0c0,2.8-4,5.1-8.7,5.1H597.5V1204.7z"/>
					<path class="st13" d="M597.5,1231.2H1926c4.8,0,8.7,2.3,8.7,5.1l0,0c0,2.8-4,5.1-8.7,5.1H597.5V1231.2z"/>
					<path class="st13" d="M597.5,1104.2H1926c4.8,0,8.7,2.3,8.7,5.1l0,0c0,2.8-4,5.1-8.7,5.1H597.5V1104.2z"/>
					<path class="st13" d="M597.5,1129.6H1926c4.8,0,8.7,2.3,8.7,5.1l0,0c0,2.8-4,5.1-8.7,5.1H597.5V1129.6z"/>
					<path class="st13" d="M597.5,1156.4H1926c4.8,0,8.7,2.3,8.7,5.1l0,0c0,2.8-4,5.1-8.7,5.1H597.5V1156.4z"/>
				</g>
				<polygon class="st15" points="890.5,1077.9 981.9,1077.9 981.9,1215.7 966.4,1206.9 936.2,1190.5 906.3,1206.9 890.5,1215.7 
									"/>
			</g>
			<g>
				<path class="st16" d="M1981.3,1350H376.6c-35.8,0-65.2,22.6-65.2,50v202.4c0,27.4,29.4,50,65.2,50h1604.8
					c29.6,0,54.8-15.5,62.7-36.4c-3.4,0.6-7.1,0.8-10.4,0.8h-1618c-29.6,0-53.6-18.6-53.6-40.9v-149.3c0-22.6,24-40.9,53.6-40.9
					h1618c3.4,0,7.1,0.3,10.4,0.8C2036.1,1365.5,2011,1350,1981.3,1350L1981.3,1350z"/>
				<path class="st12" d="M2021.1,1385.6H415.5c-29.6,0-53.6,18.3-53.6,40.9v149.3c0,22.3,24,40.9,53.6,40.9h1605.6V1385.6z"/>
				<g>
					<path class="st13" d="M2021.1,1559.7H411.8c-5.9,0-10.7,2.3-10.7,5.1l0,0c0,2.8,4.8,5.1,10.7,5.1h1609.3L2021.1,1559.7
						L2021.1,1559.7z"/>
					<path class="st13" d="M2021.1,1585.4H411.8c-5.9,0-10.7,2.3-10.7,5.1l0,0c0,2.8,4.8,5.1,10.7,5.1h1609.3L2021.1,1585.4
						L2021.1,1585.4z"/>
					<path class="st13" d="M2021.1,1481.8H411.8c-5.9,0-10.7,2.3-10.7,5.1l0,0c0,2.8,4.8,5.1,10.7,5.1h1609.3L2021.1,1481.8
						L2021.1,1481.8z"/>
					<path class="st13" d="M2021.1,1507.2H411.8c-5.9,0-10.7,2.3-10.7,5.1l0,0c0,2.8,4.8,5.1,10.7,5.1h1609.3L2021.1,1507.2
						L2021.1,1507.2z"/>
					<path class="st13" d="M2021.1,1533.7H411.8c-5.9,0-10.7,2.3-10.7,5.1l0,0c0,2.8,4.8,5.1,10.7,5.1h1609.3L2021.1,1533.7
						L2021.1,1533.7z"/>
					<path class="st13" d="M2021.1,1406.7H411.8c-5.9,0-10.7,2.3-10.7,5.1l0,0c0,2.8,4.8,5.1,10.7,5.1h1609.3L2021.1,1406.7
						L2021.1,1406.7z"/>
					<path class="st13" d="M2021.1,1432.1H411.8c-5.9,0-10.7,2.3-10.7,5.1l0,0c0,2.8,4.8,5.1,10.7,5.1h1609.3L2021.1,1432.1
						L2021.1,1432.1z"/>
					<path class="st13" d="M2021.1,1458.9H411.8c-5.9,0-10.7,2.3-10.7,5.1l0,0c0,2.5,4.8,5.1,10.7,5.1h1609.3L2021.1,1458.9
						L2021.1,1458.9z"/>
				</g>
				<polygon class="st17" points="1809.7,1386.7 1717.2,1386.7 1717.2,1524.4 1733,1515.7 1763.4,1499 1793.9,1515.7 1809.7,1524.4 
									"/>
			</g>
			<g>
				<path class="st18" d="M553.2,1649.7h1622.3c36.1,0,65.8,22.3,65.8,49.7V1902c0,27.4-29.6,49.7-65.8,49.7H553.2
					c-30.2,0-55.6-15.2-63.5-36.1c3.4,0.3,7.1,0.6,10.4,0.6h1636.1c29.9,0,54.2-18.3,54.2-40.9v-149c0-22.6-24.3-40.9-54.2-40.9
					h-1636c-3.4,0-7.1,0.3-10.4,0.8C497.6,1665.3,523,1649.7,553.2,1649.7L553.2,1649.7z"/>
				<path class="st12" d="M512.6,1685.3h1623.7c29.9,0,54.2,18.3,54.2,40.9v149c0,22.6-24.3,40.9-54.2,40.9H512.6V1685.3z"/>
				<g>
					<path class="st13" d="M512.6,1859.4h1627.3c5.9,0,10.7,2.3,10.7,5.1l0,0c0,2.8-4.8,5.1-10.7,5.1H512.6V1859.4z"/>
					<path class="st13" d="M512.6,1884.8h1627.3c5.9,0,10.7,2.3,10.7,5.1l0,0c0,2.8-4.8,5.1-10.7,5.1H512.6V1884.8z"/>
					<path class="st13" d="M512.6,1781.3h1627.3c5.9,0,10.7,2.5,10.7,5.1l0,0c0,2.8-4.8,5.1-10.7,5.1H512.6V1781.3z"/>
					<path class="st13" d="M512.6,1806.7h1627.3c5.9,0,10.7,2.5,10.7,5.1l0,0c0,2.8-4.8,5.1-10.7,5.1H512.6V1806.7z"/>
					<path class="st13" d="M512.6,1833.5h1627.3c5.9,0,10.7,2.3,10.7,5.1l0,0c0,2.8-4.8,5.1-10.7,5.1H512.6V1833.5z"/>
					<path class="st13" d="M512.6,1706.5h1627.3c5.9,0,10.7,2.3,10.7,5.1l0,0c0,2.8-4.8,5.1-10.7,5.1H512.6V1706.5z"/>
					<path class="st13" d="M512.6,1731.9h1627.3c5.9,0,10.7,2.3,10.7,5.1l0,0c0,2.8-4.8,5.1-10.7,5.1H512.6V1731.9z"/>
					<path class="st13" d="M512.6,1758.4h1627.3c5.9,0,10.7,2.3,10.7,5.1l0,0c0,2.8-4.8,5.1-10.7,5.1H512.6V1758.4z"/>
				</g>
				<polygon class="st14" points="724.3,1685.3 805.3,1685.3 805.3,1823 791.4,1814.3 764.6,1797.6 738.1,1814.3 724.3,1823 				"/>
			</g>
			<g>
				<path class="st17" d="M2105.2,749.1H761.5c-29.9,0-54.5,22.3-54.5,49.7v202.6c0,27.4,24.6,49.7,54.5,49.7h1343.7
					c24.8,0,46-15.5,52.5-36.4c-2.8,0.6-5.6,0.8-8.7,0.8H794c-24.6,0-44.9-18.3-44.9-40.9v-149c0-22.6,20.3-40.9,44.9-40.9h1355
					c3.1,0,5.9,0.3,8.7,0.6C2151.2,764.4,2130.1,749.1,2105.2,749.1L2105.2,749.1z"/>
				<path class="st12" d="M2138.8,784.7H794c-24.6,0-44.9,18.3-44.9,40.9v149c0,22.6,20.3,40.9,44.9,40.9h1344.8V784.7z"/>
				<g>
					<path class="st13" d="M2138.8,958.8H790.9c-4.8,0-8.7,2.3-8.7,5.1l0,0c0,2.8,4,5.1,8.7,5.1h1347.9V958.8z"/>
					<path class="st13" d="M2138.8,984.2H790.9c-4.8,0-8.7,2.3-8.7,5.1l0,0c0,2.8,4,5.1,8.7,5.1h1347.9V984.2z"/>
					<path class="st13" d="M2138.8,880.7H790.9c-4.8,0-8.7,2.3-8.7,5.1l0,0c0,2.8,4,5.1,8.7,5.1h1347.9V880.7z"/>
					<path class="st13" d="M2138.8,906.1H790.9c-4.8,0-8.7,2.3-8.7,5.1l0,0c0,2.8,4,5.1,8.7,5.1h1347.9V906.1z"/>
					<path class="st13" d="M2138.8,932.9H790.9c-4.8,0-8.7,2.3-8.7,5.1l0,0c0,2.8,4,5.1,8.7,5.1h1347.9V932.9z"/>
					<path class="st13" d="M2138.8,805.9H790.9c-4.8,0-8.7,2.3-8.7,5.1l0,0c0,2.5,4,5.1,8.7,5.1h1347.9V805.9z"/>
					<path class="st13" d="M2138.8,831.3H790.9c-4.8,0-8.7,2.3-8.7,5.1l0,0c0,2.8,4,5.1,8.7,5.1h1347.9V831.3z"/>
					<path class="st13" d="M2138.8,857.8H790.9c-4.8,0-8.7,2.3-8.7,5.1l0,0c0,2.8,4,5.1,8.7,5.1h1347.9V857.8z"/>
				</g>
				<polygon class="st19" points="1841.6,779.6 1748.8,779.6 1748.8,917.3 1764.6,908.6 1795,891.9 1825.5,908.6 1841.6,917.3 				
					"/>
			</g>
		</g>
		<g>
			<path class="st20" d="M1009.8,615l15.5,25.1l-14.6,12.5c-11.8,19.5-24.5,74.9-35.4,58.4l3.2-76.4l18.4-5.9L1009.8,615z"/>
			<path class="st21" d="M600.9,928l-25.5,19.6c-7.3,17.1-94.5-10.1-85,40.8c45.1,5.3,86,9.2,131.3,14.5c5.8-13.5,4.8-29.4-1-50
				C611.4,945.2,610.1,935.6,600.9,928L600.9,928z"/>
			<path class="st22" d="M691.8,959.4l-26.3,19.3c-26,14.9-93.7-10-84.2,40.9c45.1,5.4,90.3,10.8,135.4,16.2c3-15.5,5.8-35.1,0-55.5
				L691.8,959.4z"/>
			<path class="st6" d="M739.2,654.4c-14.3,0.4-25.7-0.3-59.5,1.2c-33.6,0.4-60.6,19.5-65.8,45.5L576.1,938l49.6,14.7L674,749.2
				c16.1,1.8,31.5,4.9,46.4,8.4L739.2,654.4z"/>
			<path class="st8" d="M910.1,590.6l-66.3,40.5c-35,8.4-55.8,9.2-109,19.2c-35.9,5.7-62.1,30.2-63.7,58.9l-4.7,259.6l55.5,8.2
				l20.9-225.6c104-2.5,191.4,39.4,235-11.6c24.4-29.2,17.1-58.4,11-86.6L910.1,590.6z"/>
			<path class="st6" d="M1026.2,383.3c44.3,37.3,87.8,87.8,124,131.5c4.8,7.8,3.4,13.9-1.2,18.7l-129.2,116.6l-19.7-29.3l80.9-90.3
				l-57.3-34.2l-35.5,158.1c-56.8,32.6-95-20.9-145.2-25.4c11-55.6,7.6-112.9,18.7-168.5c-22.4,37.2-34.1,40.2-39.9,48.8
				c0,0-4.5,3.4-13.5,12.2l-61.4,55L728.5,550l48.5-54.4l92.6-125.9C879.1,352,992,357.6,1026.2,383.3L1026.2,383.3z"/>
			<path class="st20" d="M908.6,341l48.5-15.4l15.7,43.8c-16.5,20.8-39.4,18.4-54.3,14.1L908.6,341z"/>
			<path class="st23" d="M963.4,220.2c-33.2,3.5-66.2,7.1-99.3,10.6c-6.5,21.7,11,103.7,32.3,120.3c26.4,20.9,62.8-4.3,68.9-30.5
				C972.2,296.6,973.9,239,963.4,220.2L963.4,220.2z"/>
			<path class="st24" d="M898,241.3c-12.6-5.1-22.8,12.6-35,6.7c-21-21.7-28.9-45.6,6.3-66.3c0.3,5.9,4.1,8.3,6.7,9.2
				c4.9-4.2,8.9-11,18.9-11.4c-5.3,7.4-5.4,11.6-1,16.3c14,2.6,31.5-13.4,51.6-9.5c18.7,6,26.7,15.4,33.9,28.1
				c16.7,34.7-0.8,62-8.2,76.5c-3.5,3.7-4.9,5-18.4-5.4c9.5-11.7,13.1-26,1-32.2c-17.2-9.6-8.4,14.1-19.8,18.9
				C931.9,262,907.3,244.1,898,241.3L898,241.3z"/>
			<path class="st6" d="M704.6,634l181.5,6c2.3,0,4.1,2.1,4.1,4.3l-0.3,6.4c-0.1,2.4-2.1,4.2-4.4,4.2l-181.4-6
				c-2.3,0-4.1-2.1-4.1-4.5l0.3-6.3C700.4,635.9,702.3,634,704.6,634L704.6,634z"/>
			<path class="st8" d="M603.1,508.5c28,0.9,55.8,1.8,83.7,2.8c28,0.9,55.8,1.8,83.7,2.8c4.7,0.3,9.5,4.2,10.5,9.1
				c4.5,20.2,8.9,40.4,13.5,60.5c4.4,20.2,8.9,40.4,13.3,60.3c1,4.7-1.9,8.5-6.5,8.4c-27.9-0.9-55.6-1.8-83.4-2.8
				c-27.7-0.9-55.6-1.8-83.3-2.8c-4.7-0.3-9.3-4.2-10.4-8.9c-4.5-20.1-9.2-40.2-13.7-60.3s-9.2-40.4-13.9-60.6
				C595.5,512.1,598.4,508.3,603.1,508.5L603.1,508.5z"/>
			<path class="st12" d="M702.7,563.4c6.2,0.1,6.2,1.1,9.1,2.6c-4.4,2.8-6.6,8.3-5.2,14.6c1.6,6.4,6.1,12.1,11.9,15.2
				c-2.2,1.4-1.8,2.2-8,2.1c-6.2-0.3-18.7-8.4-20.7-17.9C687.5,570.5,696.5,563.2,702.7,563.4L702.7,563.4z"/>
		</g>
		<g>
			<path class="st25" d="M1901.7,779.8c-11.2-0.4-22.4-0.9-34.1-1.3c23.8,54.2,47.5,108.5,70.8,163.2c-48-1.8-95.9-3.1-144.3-4.5
				c-48.4-1.3-96.8-2.7-145.2-4.5c-23.8-54.7-47.1-109.4-70.4-164.1c-11.7-0.4-23.3-0.9-35-1.3c83.4,194.1,167.2,390,251.5,586.8
				c84.7,198.1,170.3,398.1,256.4,598.9c11.7,0,23.3,0,35,0c-31.8-74-63.7-148.4-95.5-222.3c48.9,0.4,97.7,0.9,146.1,0.9
				c48.4,0.4,96.8,0.9,144.8,1.3c31.8,73.1,63.7,146.6,95.9,220.1c11.2,0,22.4,0,34.1,0c-86.5-199-172.6-396.3-257.8-592.6
				C2069.4,1165.8,1985.1,972.1,1901.7,779.8L1901.7,779.8z M1974.8,1692.9c-30.9-72.2-61.9-144.3-92.8-216.5
				c48.9,0.9,97.3,1.3,146.1,2.2c48,0.4,96.4,1.3,144.3,1.8c30.9,71.3,62.3,143,93.2,214.3c-48.4,0-96.4-0.4-144.8-0.9
				C2072.1,1693.4,2023.7,1692.9,1974.8,1692.9L1974.8,1692.9z M1865.9,1438.8c-29.6-69-59.2-137.6-88.8-206.2
				c48.9,0.9,97.3,1.8,145.7,2.7c48.4,1.3,96.8,2.2,144.8,3.1c29.6,68.1,59.2,136.7,88.8,204.9c-48-0.9-96.4-1.3-144.8-2.2
				C1963.2,1440.1,1914.7,1439.7,1865.9,1438.8L1865.9,1438.8z M1761.4,1194.9c-32.7-75.3-64.6-150.2-96.8-225
				c48.9,1.3,97.3,2.7,145.7,4c48,1.3,96.4,2.7,144.3,4.5c32.3,74,64.6,148.4,96.8,223.2c-48-1.3-96.4-2.2-144.3-3.6
				C1858.7,1197.2,1809.9,1195.8,1761.4,1194.9L1761.4,1194.9z"/>
			<g>
				<path class="st23" d="M2189.5,1577.7l28.7,3.1l2.2,44.4l-7.2,0.4l3.1,13.9l-7.6,16.6l-91,31.4c30.5-20.2,67.7-40.3,74.9-65
					L2189.5,1577.7z"/>
				<path class="st26" d="M2220.5,1625.2c-2.2-6.7-3.6-5.8-11.2,0.4c-16.6,53.8-128.7,52.9-111.6,74l71.3-4.9
					c26-7.6,33.2-25.6,38.6-34.5l3.1,31.8c2.7,0,5.8,0,8.5-0.4C2219.6,1669.6,2226.7,1648.1,2220.5,1625.2L2220.5,1625.2z"/>
				<path class="st23" d="M1976.2,1324.5l28.7-0.4l8.1,43.5l-7.2,1.3l4.9,13.9l-5.4,17.5l-85.6,42.6c27.8-23.8,61.9-48.4,65.4-74.4
					L1976.2,1324.5z"/>
				<path class="st26" d="M2012.9,1367.5c-3.1-6.3-4-5.4-11.2,2.2c-9,55.6-120.6,69-100.4,87.9l69.9-14.3
					c24.7-11.2,29.1-29.6,33.6-39l7.2,31.4c2.7-0.9,5.8-1.3,8.5-1.8C2017.8,1411.9,2022.3,1389.9,2012.9,1367.5L2012.9,1367.5z"/>
				<path class="st19" d="M2146.5,1121.4l-75.8,54.2c-42.6-1.3-84.7-2.7-127.3-4c-21.1-0.9-35.4,17.5-30.5,31.4l65.4,158.2l43-1.8
					l-36.3-120.1l154.7,28.2l8.5,100l31.8,238l48.9,1.3l-12.1-247l15.2-182.4L2146.5,1121.4z"/>
				<path class="st20" d="M2256.3,1169.8c-0.4,9.4-22,20.2-16.1,25.1c5.8,4,15.7-9.4,17.9-7.6c9.9,4.5,0.4,33.6,9,36.3
					c21.1,7.2,32.3-28.7,11.2-61l-17-1.3C2259.5,1161.3,2257.7,1159.5,2256.3,1169.8L2256.3,1169.8z"/>
				<path class="st27" d="M2109.3,796.9c-11.2-30.5-23.8-67.7,10.8-67.7c14.8,0,21.1-27.8,53.3-24.2c6.7,0.9,19.7,8.1,26.9,19.7
					c4,6.7,24.7,1.8,28.2,24.7c1.3,9.4,6.7,7.6-2.2,39.4c-6.7,23.3,15.2,59.2,16.1,74.9c1.8,26,13,24.7,13,46.6
					c-4.5,11.2-31.8,15.2-61.4,5.4c-10.3-3.6-23.3-5.4-33.6-1.8c-6.3,2.2-26.4,2.2-26.4-12.6c0-12.6-29.6,15.7-24.2-33.6
					c1.8-13,12.1,7.2,12.1-33.6C2121.8,820.2,2118.7,828.2,2109.3,796.9L2109.3,796.9z"/>
				<path class="st20" d="M1946.1,813.4c-1.8-9,16.1-25.1,9.4-27.8s-13,13-15.2,11.7c-10.8-1.8-9.4-32.3-18.4-32.7
					c-22.4-1.3-23.8,35.9,4.9,61.9l17-3.1C1945.7,822.4,1947.9,824.2,1946.1,813.4L1946.1,813.4z"/>
				<path class="st17" d="M2139.8,875.3l38.1-7.2c25.6,10.3,68.1,22.4,73.1,33.2l33.6,127.3c0,46.2,0,92.8,0,139
					c-10.3,5.4-22,4-31.8,0l-17-130l-17.9-60.5l14.3,200.4c-51.6,37.2-106.7,11.7-159.1-3.6l22.4-204.4l-88.8-8.5
					c-17-2.2-19.3-7.6-25.6-17.5l-57.8-117c5.4-7.2,12.6-14.8,26.9-13.9l69.9,97.3l54.7-14.8L2139.8,875.3z"/>
				<path class="st20" d="M2142,839l35.4-1.3l0.4,30.5c-15.2,13.9-29.6,14.8-38.1,7.2L2142,839z"/>
				<path class="st23" d="M2195.4,774.9c-24.2-4.5-48.4-9-72.2-13.4c-9.4,13.9-13.9,74.4-2.2,90.5c14.3,20.2,45.3,10.3,55.1-6.7
					C2185.9,830,2198.9,790.1,2195.4,774.9L2195.4,774.9z"/>
				<path class="st27" d="M2122.7,752c1.8,5.8-11.7,19.7,11.2,19.7c13.9,0,3.1-6.7,19.7,5.8c10.8,7.6,25.1-9,30,13.4
					c1.3,8.1,0.9,17,4.5,24.2c2.2,4,9.9,25.1,15.2,8.1c6.3-18.4,11.2-14.8,7.6-40.8c-0.9-4.9-10.3-20.6-16.1-24.2
					c-10.8-7.2-20.2-8.5-33.6-9.4c-5.4,0-37.7-3.1-38.6,1.3C2122.3,750.7,2122.7,751.6,2122.7,752L2122.7,752z"/>
				<path class="st23" d="M2185.5,822.4c-14.3-7.2-12.6-13.4-1.8-22c3.6-4,10.3-7.2,13.4-0.4C2198.9,805.8,2190,817.5,2185.5,822.4
					L2185.5,822.4z"/>
			</g>
		</g>
		<g>
			<g>
				<path class="st25" d="M1380.7,520.6c19.3,0.1,35.2-15.5,35.3-34.9c0.1-19.3-15.6-35.2-34.9-35.3c-19.3-0.1-35.2,15.5-35.3,34.9
					C1345.8,504.7,1361.4,520.5,1380.7,520.6L1380.7,520.6z"/>
				<path class="st11" d="M1333,390.8l96.9,0.6c11.6,0.1,21.1,9.7,21,21.3l-0.4,62.7c-0.1,11.6-9.6,21.1-21.3,21l-96.9-0.6
					c-11.6-0.1-21.1-9.6-21-21.3l0.4-62.7C1311.8,400.2,1321.4,390.7,1333,390.8L1333,390.8z"/>
				<path class="st28" d="M1286,351.6L1286,351.6C1286,351.7,1286,351.7,1286,351.6c0.5,0.5,0.9,0.9,1.4,1.4
					c5.5,6.1,16.6,24.9,27,49.1l134,0.8c10.6-23.7,21.6-42.1,27.3-48.5c25.5-24.4,41.4-58.7,41.6-96.7
					c0.4-74.6-59.7-135.4-134.3-135.8c-74.6-0.4-135.4,59.7-135.8,134.3C1247,293.4,1261.8,327.1,1286,351.6L1286,351.6z"/>
				<path class="st25" d="M1316.8,442l128.7,0.7c10.4,0.1,18.8,8.6,18.8,18.9l0,0c-0.1,10.4-8.6,18.8-19,18.8l-128.7-0.7
					c-10.3-0.1-18.8-8.6-18.7-19l0,0C1297.9,450.4,1306.5,441.9,1316.8,442L1316.8,442z"/>
				<g>
					<polygon class="st3" points="1341.9,415.7 1340.2,415.7 1340.9,278.7 1422.2,279.2 1422.5,414.1 1420.8,414.1 1420.5,281 
						1342.7,280.5 					"/>
				</g>
				<path class="st25" d="M1317.1,390.7l128.7,0.7c10.4,0.1,18.8,8.6,18.8,19l0,0c-0.1,10.3-8.6,18.8-19,18.7l-128.7-0.7
					c-10.3-0.1-18.8-8.6-18.7-18.9l0,0C1298.2,399.1,1306.8,390.6,1317.1,390.7L1317.1,390.7z"/>
				<path class="st12" d="M1341.2,289.8c5.6,0,10.2-4.5,10.2-10.1c0-5.7-4.5-10.2-10.1-10.3c-5.7,0-10.2,4.5-10.3,10.2
					C1331,285.2,1335.5,289.8,1341.2,289.8L1341.2,289.8z"/>
				<path class="st12" d="M1361.6,289.9c5.7,0,10.2-4.5,10.3-10.1c0-5.7-4.5-10.2-10.2-10.3c-5.6,0-10.2,4.5-10.2,10.2
					C1351.5,285.3,1356,289.9,1361.6,289.9L1361.6,289.9z"/>
				<path class="st12" d="M1382.1,290c5.6,0,10.2-4.5,10.3-10.1c0-5.7-4.5-10.2-10.2-10.3c-5.6,0-10.2,4.5-10.3,10.2
					C1372,285.4,1376.5,290,1382.1,290L1382.1,290z"/>
				<path class="st12" d="M1402.6,290.2c5.6,0,10.2-4.5,10.3-10.1c0-5.7-4.5-10.2-10.2-10.3c-5.6,0-10.2,4.5-10.3,10.2
					C1392.4,285.5,1397,290.1,1402.6,290.2L1402.6,290.2z"/>
				<path class="st12" d="M1422.9,290.3c5.6,0,10.2-4.5,10.3-10.1c0-5.7-4.5-10.2-10.2-10.3c-5.6,0-10.2,4.5-10.3,10.2
					C1412.8,285.7,1417.3,290.2,1422.9,290.3L1422.9,290.3z"/>
				<path class="st12" d="M1499.3,284.4c3.4-11.2,5.2-23.2,5.1-35.6c-0.4-61.1-46.1-110.4-102.1-110c-13.5,0.1-26.4,3.1-38.2,8.4
					c2.8-0.2,5.7-0.4,8.6-0.4c69.4-0.5,126.1,60.6,126.6,136.3C1499.3,283.6,1499.3,284,1499.3,284.4L1499.3,284.4z"/>
			</g>
			<g>
				<path class="st28" d="M1381.5,2L1381.5,2c2.9,0,5.2,2.4,5.2,5.2v54.4c0,2.9-2.4,5.2-5.2,5.2l0,0c-2.9,0-5.2-2.4-5.2-5.2V7.2
					C1376.2,4.4,1378.6,2,1381.5,2L1381.5,2z"/>
				<path class="st28" d="M1213,69L1213,69c2-2,5.4-2,7.4,0l38.5,38.5c2,2,2,5.4,0,7.4l0,0c-2,2.1-5.4,2.1-7.5,0L1213,76.5
					C1210.9,74.4,1210.9,71,1213,69L1213,69z"/>
				<path class="st28" d="M1141.1,203.2L1141.1,203.2c0-3,2.4-5.4,5.4-5.4h54.3c2.9,0,5.2,2.4,5.2,5.4l0,0c0,2.9-2.4,5.2-5.2,5.2
					h-54.3C1143.5,208.5,1141.1,206.1,1141.1,203.2L1141.1,203.2z"/>
				<path class="st28" d="M1550.1,69L1550.1,69c-2.1-2-5.4-2-7.5,0l-38.5,38.5c-2,2-2,5.4,0,7.4l0,0c2.1,2.1,5.5,2.1,7.5,0
					l38.5-38.4C1552,74.4,1552,71,1550.1,69L1550.1,69z"/>
				<path class="st28" d="M1621.8,203.2L1621.8,203.2c0-3-2.4-5.4-5.2-5.4h-54.4c-2.9,0-5.2,2.4-5.2,5.4l0,0c0,2.9,2.4,5.2,5.2,5.2
					h54.4C1619.5,208.5,1621.8,206.1,1621.8,203.2L1621.8,203.2z"/>
			</g>
		</g>
		<g>
			<path class="st18" d="M1203.4,1902.2c6.1,10.7,11.9,21.4,18.1,32.2c27.3,14.1,92.5,13.2,81.8,42.9l-138.7-1.2
				c-6.4-21.4,1.8-39.2,9.2-47.8L1203.4,1902.2z"/>
			<path class="st10" d="M1139.4,1902.2c6.1,10.7,12.2,21.4,18.1,32.2c27.3,14.1,92.5,13.2,81.8,42.9l-138.7-1.2
				c-6.1-21.4,2.1-39.2,9.5-47.8L1139.4,1902.2z"/>
			
				<linearGradient id="SVGID_1_" gradientUnits="userSpaceOnUse" x1="1147.6" y1="322.9" x2="1275" y2="322.9" gradientTransform="matrix(1 0 0 -1 0 2000)">
				<stop  offset="0" style="stop-color:#2C7EFE"/>
				<stop  offset="1" style="stop-color:#0643A3"/>
			</linearGradient>
			<polygon class="st29" points="1147.6,1479 1218.7,1419.9 1253.9,1479 1275,1696.7 1225.1,1934.3 1149.2,1929.7 1172.7,1687.2 			
				"/>
			
				<linearGradient id="SVGID_2_" gradientUnits="userSpaceOnUse" x1="1091.6" y1="310.65" x2="1187.1" y2="310.65" gradientTransform="matrix(1 0 0 -1 0 2000)">
				<stop  offset="0" style="stop-color:#2C7EFE"/>
				<stop  offset="1" style="stop-color:#0643A3"/>
			</linearGradient>
			<polygon class="st30" points="1149.8,1444.4 1091.6,1483.9 1097.1,1934.3 1171.2,1934.3 1187.1,1483.9 			"/>
			<path class="st20" d="M1416.5,1176.4l13.2-9.8c6.4-6.4,8.3-42.3,16.2-39.8c4.9,4,1.5,13.8,0.9,19.3c8.6-9.2,25.4-22.7,34-31.8
				c12.2,0.9-11.9,25.1-15.3,34.3c7.3,4.9,13.2,10.7,13.2,16.5c-3.4,11.9-28.8,19.9-43.2,30L1416.5,1176.4z"/>
			
				<linearGradient id="SVGID_3_" gradientUnits="userSpaceOnUse" x1="1238.3" y1="768.45" x2="1447.7" y2="768.45" gradientTransform="matrix(1 0 0 -1 0 2000)">
				<stop  offset="0" style="stop-color:#2C7EFE"/>
				<stop  offset="1" style="stop-color:#0643A3"/>
			</linearGradient>
			<polygon class="st31" points="1238.3,1295.9 1255.4,1210.7 1334.4,1223.3 1424.1,1167.2 1447.7,1197.3 1344.2,1284.2 			"/>
			
				<linearGradient id="SVGID_4_" gradientUnits="userSpaceOnUse" x1="1091.2765" y1="668.9684" x2="1259.1" y2="668.9684" gradientTransform="matrix(1 0 0 -1 0 2000)">
				<stop  offset="0" style="stop-color:#2C7EFE"/>
				<stop  offset="1" style="stop-color:#0643A3"/>
			</linearGradient>
			<path class="st32" d="M1214.4,1180.4c18.7,4.9,35.2,21.4,44.7,30.3l-3.4,273.1c-0.9,0.3-1.5-0.6-2.4,0h-161.7
				c-1.8-77.8,4.6-207.9,2.4-284.2c8.9-10.7,22-15.3,32.8-21.4L1214.4,1180.4z"/>
			<path class="st33" d="M1226.9,1181.9l14.1,50.5l-16.2,6.1l18.4,5.2l-51.4,109l-79-117l20.2-7.7l-15.3-2.8l2.1-42.3
				C1147.6,1165.1,1198.2,1170.6,1226.9,1181.9L1226.9,1181.9z"/>
			<path class="st12" d="M1211.3,1177c11.3,39.8-5.2,114.5-19,168.1c-26.9-58.2-43.2-115.1-52.7-170.3
				C1162,1169.1,1189.6,1171.2,1211.3,1177L1211.3,1177z"/>
			<path class="st25" d="M1141.5,1185l15.6,8.9l21.4,12.2l21.4-12.6l13.2-8c-0.3-3.1-0.9-6.1-1.8-8.6c-21.7-5.8-49.3-8-71.7-2.1
				C1140.3,1178.3,1140.9,1181.6,1141.5,1185L1141.5,1185z"/>
			<path class="st20" d="M1191.7,1135.4l-43.5,1.8l2.4,37.4c19.9,15.6,37.4,15,47.5,4.9L1191.7,1135.4z"/>
			<path class="st23" d="M1119.8,1062.5c29.1-8,57.9-15.9,87-23.9c12.2,15.9,24.2,89.7,11.6,110.5c-15.3,25.7-54.2,16.8-67.7-2.8
				C1136.9,1128.7,1117,1081.5,1119.8,1062.5L1119.8,1062.5z"/>
			<path class="st27" d="M1151.6,1076.6c15-25.7,47.2-2.4,62.2-8.9c11-11,64.3-58.8,48.4-85.7c-10.7-15.9-62.2-4.6-80.5,2.8
				c-15.3,5.2-31.5,14.1-43.8,23c-12.6,10.7-18.4,24.8-15.6,40.7c-9.5-4-30.3,15.9-30.6,24.2c-4.9,25.4,32.5,28.8,46.5,53
				C1150.1,1122.5,1147.6,1080,1151.6,1076.6L1151.6,1076.6z"/>
			<path class="st16" d="M1193.3,1196l-13.5-7l-12.9,8.3l10.4,18.4l-7.3,75.6c6.4,17.8,13.8,35.8,22.4,53.9
				c3.4-13.5,7-28.5,10.4-43.8l-15-86.7L1193.3,1196z"/>
			<path class="st23" d="M1145.8,1113.7c16.5-7,14.7-14.1,3.4-23.9c-4-4.9-11.3-8.3-15-1.5C1131.7,1095,1140.9,1108.1,1145.8,1113.7
				L1145.8,1113.7z"/>
			<path class="st20" d="M1151,1412.2c7.3,5.8,28.8-2.8,28.8,4.3c-0.9,7-17.1,5.5-17.5,8.3c-2.8,10.1,24.5,22,21.1,30
				c-8.6,20.2-42,5.2-52.1-31.2l10.1-13.5C1142.7,1408.9,1142.4,1406.1,1151,1412.2L1151,1412.2z"/>
			
				<linearGradient id="SVGID_5_" gradientUnits="userSpaceOnUse" x1="1033.7267" y1="682.4" x2="1154.2999" y2="682.4" gradientTransform="matrix(1 0 0 -1 0 2000)">
				<stop  offset="0" style="stop-color:#2C7EFE"/>
				<stop  offset="1" style="stop-color:#0643A3"/>
			</linearGradient>
			<path class="st34" d="M1127.1,1287.6l-32.8-87.9c-16.2,22.4-54.8,109.9-58.5,118.8c-3.7,23.3-1.5,18.7-0.6,29.4l88.5,87.6
				l30.6-25.7l-56-70.1L1127.1,1287.6z"/>
		</g>
	</g>
</g>
</svg>
