<?xml version="1.0" encoding="utf-8"?>
<!-- Generator: Adobe Illustrator 24.0.1, SVG Export Plug-In . SVG Version: 6.00 Build 0)  -->
<svg version="1.1" id="Illustration" xmlns="http://www.w3.org/2000/svg" xmlns:xlink="http://www.w3.org/1999/xlink" x="0px"
	 y="0px" viewBox="0 0 2800 2000" style="enable-background:new 0 0 2800 2000;" xml:space="preserve">
<style type="text/css">
	.st0{fill-rule:evenodd;clip-rule:evenodd;fill:#DFE6FF;}
	.st1{fill-rule:evenodd;clip-rule:evenodd;fill:#D5F0FF;}
	.st2{fill:#84B2FE;}
	.st3{fill:#BE96F8;}
	.st4{fill:#DFCFFD;}
	.st5{fill:#FFAA81;}
	.st6{fill:#2C7EFE;}
	.st7{fill:#8183F1;}
	.st8{fill:#FF9866;}
	.st9{fill:#060352;}
	.st10{fill:#E847ED;}
	.st11{fill-rule:evenodd;clip-rule:evenodd;fill:#BE96F8;}
	.st12{fill-rule:evenodd;clip-rule:evenodd;fill:#FFFFFF;}
	.st13{fill-rule:evenodd;clip-rule:evenodd;fill:#84B2FE;}
	.st14{fill:#FFFFFF;}
	.st15{fill-rule:evenodd;clip-rule:evenodd;fill:#0643A3;}
	.st16{fill-rule:evenodd;clip-rule:evenodd;fill:#060352;}
	.st17{fill-rule:evenodd;clip-rule:evenodd;fill:#2C7EFE;}
	.st18{fill-rule:evenodd;clip-rule:evenodd;fill:#62CBEC;}
	.st19{fill-rule:evenodd;clip-rule:evenodd;fill:#F49EF0;}
	.st20{fill-rule:evenodd;clip-rule:evenodd;fill:#38C551;}
	.st21{fill:#16888C;}
	.st22{fill-rule:evenodd;clip-rule:evenodd;fill:#61EA75;}
	.st23{fill-rule:evenodd;clip-rule:evenodd;fill:#DFCFFD;}
	.st24{fill-rule:evenodd;clip-rule:evenodd;fill:#3EB8CC;}
	.st25{fill-rule:evenodd;clip-rule:evenodd;fill:#FFB044;}
	.st26{fill-rule:evenodd;clip-rule:evenodd;fill:#F7855A;}
	.st27{fill-rule:evenodd;clip-rule:evenodd;fill:#FECB14;}
	.st28{fill-rule:evenodd;clip-rule:evenodd;fill:#F9D023;}
	.st29{fill-rule:evenodd;clip-rule:evenodd;fill:#FEFE1E;}
	.st30{fill-rule:evenodd;clip-rule:evenodd;fill:#FE9F0E;}
	.st31{fill-rule:evenodd;clip-rule:evenodd;fill:#FE7509;}
	.st32{fill-rule:evenodd;clip-rule:evenodd;fill:#F9F987;}
	.st33{fill-rule:evenodd;clip-rule:evenodd;fill:#FBFFA4;}
	.st34{fill-rule:evenodd;clip-rule:evenodd;fill:#ED835C;}
	.st35{fill:#0643A3;}
	.st36{fill-rule:evenodd;clip-rule:evenodd;fill:#FF9866;}
	.st37{fill-rule:evenodd;clip-rule:evenodd;fill:#FFAA81;}
</style>
<g>
	<g>
		<path class="st0" d="M1400,1995.6c712.1,0,1292.8-24.8,1292.8-56.1c0-30.8-580.8-55.6-1292.8-55.6s-1292.8,24.8-1292.8,55.6
			C107.1,1970.7,687.9,1995.6,1400,1995.6L1400,1995.6z"/>
		<path class="st1" d="M368.8,466.6c167.3-284.2,650.4-479.2,1212-461c688.7,22.6,1234.4,357.1,1218.9,747.2
			c-7.6,190.4-147.1,358.9-368.5,478.9c-167.3,284.2-650.4,479.2-1212,461c-688.7-22.6-1234-357-1218.9-747.1
			C7.9,754.7,147.4,586.7,368.8,466.6L368.8,466.6z"/>
		<g>
			<g>
				<polygon class="st2" points="2244,1837.6 2204,1871.9 2137.7,1928.5 2270.4,1928.5 2403,1928.5 2336.7,1871.9 2296.8,1837.6 
					2296.8,1618.5 2244,1618.5 				"/>
				<path class="st3" d="M2000.3,1591.4c-40.4-271.2,210-616.4,391.7-581.4c258.1,49.4,210.3,543.1,98.6,663.1
					C2378.7,1793.1,2036.4,1834.9,2000.3,1591.4L2000.3,1591.4z"/>
				<path class="st4" d="M2490.6,1061.4c32.5,165.2-11.7,374.1-79.2,446.5c-84.2,90.3-297.8,136.1-414.7,50.5
					C1980,1293.1,2217.6,976.6,2392,1010C2431.9,1017.6,2464.4,1035.7,2490.6,1061.4L2490.6,1061.4z"/>
			</g>
			<g>
				<path class="st5" d="M2173.1,1787.5l32.7,3.6l3.4,50.5l-8.3,0.7l3.6,16l-8.6,19.2l-103.6,36.8c34.7-23.2,76.9-46.9,85.1-75.6
					L2173.1,1787.5z"/>
				<path class="st6" d="M2209.2,1841.7c-2.7-7.4-4.1-6.8-13.1,0.9c-18.3,62.1-146.9,61.8-126.8,86l81.5-6.8
					c29.8-8.8,37.7-29.1,44-39.5l3.8,36.6c3.4-0.2,6.5-0.5,9.9-0.7C2208.8,1892.6,2216.4,1868.1,2209.2,1841.7L2209.2,1841.7z"/>
				<path class="st5" d="M2050.8,1777.1l32.5,5.6v50.8h-8.3l2.7,16.5l-9.9,18.5l-105.8,30c36.1-21,79.9-41.7,89.8-69.9
					L2050.8,1777.1z"/>
				<path class="st6" d="M2083.3,1833.5c-2.3-7.7-3.6-7-13.1,0c-22.3,60.7-150.5,52.3-132.2,77.6l81.7-1.4
					c30.5-7,39.5-26.9,46.7-36.8l1.4,36.8c3.2,0,6.5,0,9.9,0C2079.5,1884.3,2088.9,1860.4,2083.3,1833.5L2083.3,1833.5z"/>
				<path class="st7" d="M2224.5,1350c35,20.8,67.9,46,102.9,66.8c45.8,213.9-269.2,67-31.8,379.1c-142.8,44.5-216.4,12.2-313.2-7.2
					c81.9-114.4-16-281.8,176.2-367.8L2224.5,1350z"/>
				<path class="st8" d="M2363.8,1414.1c-0.5,11.1-25.5,23.5-19,29.1c6.8,5,18.5-11.1,21-9c11.7,5.6,0.7,39.7,10.6,42.9
					c24.8,8.6,38.1-33.4,13.3-71.8l-20.1-1.6C2367.4,1404.1,2365.1,1401.7,2363.8,1414.1L2363.8,1414.1z"/>
				<path class="st9" d="M2191.2,977c-12.6-35.9-27.8-79.2,12.9-79.2c17.1,0,25-33.2,62.3-28.9c8.1,1.1,23.2,9.7,31.8,23.5
					c4.7,7.9,28.9,2,32.9,28.7c1.6,11.1,8.1,9.3-2.5,46.3c-7.7,27.3,17.6,69.3,19,88c2,30,15.1,28.4,15.1,54.4
					c-5,13.1-37.2,17.8-71.8,6.3c-12.2-3.8-27.5-6.5-39.7-2c-7.2,2.7-30.9,2.3-30.9-14.9c0-14.4-34.7,18.5-28.2-39
					c1.8-15.3,14.2,8.1,14.2-39.7C2206.3,1004.1,2202.7,1013.6,2191.2,977L2191.2,977z"/>
				<path class="st8" d="M2000.5,996.4c-2.3-10.8,18.5-29.3,10.8-32.9c-7.9-3.2-15.1,15.3-18.1,14c-12.6-2.3-10.8-37.9-21.2-38.6
					c-26.4-1.6-28.2,42.4,5.9,72.7l19.6-3.6C1999.8,1007,2002.5,1008.8,2000.5,996.4L2000.5,996.4z"/>
				<path class="st10" d="M2227,1068.8l44.9-8.6c29.8,12,79.9,26.2,85.5,38.8l39.7,149.4c0,54.4,0,108.5,0,162.9
					c-12.2,5.9-26.2,4.7-37.7,0l-19.6-152.3l-21.2-70.9c3.6,77.8,7,155.7,10.6,233.5c-97.5,43.3-103.6-12-174.9-1.1l20.8-241.4
					l-104.2-10.2c-19.9-2.5-22.6-8.8-29.6-20.5l-67.9-136.7c6.3-8.8,15.1-17.8,31.6-16.7l82.1,113.9l64.1-17.4L2227,1068.8z"/>
				<path class="st8" d="M2229.7,1026.4l41.5-2l0.7,35.9c-17.8,16.5-34.5,17.4-44.9,8.6L2229.7,1026.4z"/>
				<path class="st5" d="M2292.5,950.8c-28.4-5.2-56.6-10.4-84.8-15.6c-10.6,16.2-16,87.3-2.5,106.3c16.9,23.5,53.3,11.7,64.5-8.1
					C2281.2,1015.4,2296.5,968.9,2292.5,950.8L2292.5,950.8z"/>
				<path class="st9" d="M2207.2,924.2c2,6.8-13.8,23.5,13.3,23.5c16,0,3.6-7.9,23,6.3c12.4,9,29.6-10.2,35,16.2
					c2,9.3,1.4,19.9,5.6,28.2c2.3,4.5,11.5,29.1,18.1,9.3c7-21.4,12.6-17.4,8.3-47.4c-0.9-6.1-12-24.4-18.5-28.7
					c-13.1-8.6-23.7-10.2-39.5-10.8c-6.3-0.2-44-4.1-45.4,1.1C2206.9,922.6,2207.2,924,2207.2,924.2L2207.2,924.2z"/>
				<path class="st5" d="M2280.7,1006.6c-16.9-8.3-14.9-15.8-2-25.5c4.3-5,12.2-8.1,15.8-0.7
					C2296.5,987.4,2286.4,1000.9,2280.7,1006.6L2280.7,1006.6z"/>
			</g>
		</g>
		<g>
			<path class="st11" d="M479.6,521.7c87.7,0,159.3-71.2,159.3-159.3c0-87.7-71.6-158.9-159.3-158.9s-159.3,71.2-159.3,158.9
				C320.3,450.5,391.9,521.7,479.6,521.7L479.6,521.7z"/>
			<g>
				<g>
					<path class="st7" d="M629.8,313.4c-1.5,0-2.9-0.9-3.4-2.4c-9.7-26.8-26.3-50.4-47.9-68.4c-1.6-1.3-1.8-3.6-0.5-5.2
						c1.3-1.6,3.6-1.8,5.2-0.5c22.6,18.8,39.9,43.6,50.1,71.5c0.7,1.9-0.3,4-2.2,4.7C630.7,313.3,630.2,313.4,629.8,313.4z"/>
				</g>
				<g>
					<path class="st7" d="M479.6,525.4c-43.6,0-84.5-16.9-115.3-47.7c-30.7-30.8-47.7-71.7-47.7-115.3
						c0-89.6,73.1-162.5,162.9-162.5c27.5,0,53.7,6.7,77.9,19.8c1.8,1,2.4,3.2,1.5,5c-1,1.8-3.2,2.4-5,1.5
						c-23.1-12.5-48.1-18.9-74.4-18.9c-85.8,0-155.6,69.6-155.6,155.2c0,85.8,69.8,155.6,155.6,155.6s155.6-69.8,155.6-155.6
						c0-11.8-1.3-23-4-33.2c-0.5-2,0.7-4,2.6-4.5c2-0.5,4,0.7,4.5,2.6c2.8,10.8,4.2,22.6,4.2,35.1
						C642.5,452.3,569.4,525.4,479.6,525.4z"/>
				</g>
			</g>
			<path class="st12" d="M431.4,397.8l-68.3-36.2c-3.3-2.1-4.1,1.6-2.9,3.7l61.7,67.5c6.6,5.8,11.5,5.8,18.9,0
				c52.7-46.9,105-93.8,157.6-140.8c1.6-1.6,0-4.9-2.9-3.3L431.4,397.8z"/>
		</g>
		<g>
			<path class="st13" d="M1869.9,60.7l64.3-25.4c10.8-4.3,23.2,1.1,27.6,12l29.6,75.1c37.7-6.9,75.8-6,111.9,1.9l32.1-74.1
				c4.7-10.7,17.3-15.7,28-11l63.4,27.5c10.7,4.6,15.7,17.2,11,27.9l-32.1,74.1c30.5,21.1,57.1,48.2,77.9,80.4l75-29.6
				c10.9-4.3,23.3,1.1,27.6,12l25.4,64.3c4.3,10.8-1.1,23.2-12,27.5l-75.1,29.7c6.9,37.7,6,75.7-1.9,111.9l74.1,32.1
				c10.7,4.7,15.7,17.3,11,28l-27.5,63.4c-4.6,10.7-17.2,15.7-27.9,11l-74.1-32.1c-21.1,30.5-48.2,57.1-80.4,77.9l29.6,75
				c4.3,10.9-1.1,23.3-12,27.6l-64.3,25.4c-10.8,4.3-23.2-1.1-27.5-12L2094,686c-37.7,6.9-75.7,6-111.9-1.9l-32.1,74.1
				c-4.7,10.7-17.3,15.7-28,11l-63.4-27.5c-10.7-4.6-15.7-17.2-11-28l32.1-74c-30.5-21.1-57.1-48.2-77.9-80.4l-75,29.6
				c-10.9,4.3-23.3-1.1-27.6-12l-25.4-64.3c-4.3-10.8,1.1-23.2,12-27.5l75.1-29.7c-6.9-37.7-6-75.8,1.9-111.9l-74.1-32.1
				c-10.7-4.7-15.7-17.3-11-28l27.5-63.4c4.7-10.7,17.3-15.7,28-11l74,32.1c21.1-30.5,48.2-57.1,80.4-77.9l-29.6-75
				C1853.6,77.4,1859,65,1869.9,60.7L1869.9,60.7z M1988.5,267.1c75.8-29.9,161.4,7.2,191.3,83c29.9,75.8-7.2,161.4-83,191.3
				s-161.4-7.2-191.3-83S1912.8,297,1988.5,267.1L1988.5,267.1z"/>
			<g>
				<path class="st0" d="M1958.9,192.2c117.1-46.3,249.6,11.1,295.8,128.2c46.3,117.1-11.1,249.6-128.2,295.8
					c-117.1,46.3-249.6-11.1-295.8-128.2C1784.4,370.9,1841.8,238.4,1958.9,192.2L1958.9,192.2z M1988.5,267.1
					c75.8-29.9,161.4,7.2,191.3,83c29.9,75.8-7.2,161.4-83,191.3s-161.4-7.2-191.3-83S1912.8,297,1988.5,267.1L1988.5,267.1z"/>
				<path class="st14" d="M2042.6,635.8c-31.2,0-62.5-6.4-92-19.2c-56.7-24.6-100.5-69.8-123.2-127.3s-21.7-120.4,2.9-177.2
					c24.6-56.7,69.8-100.5,127.3-123.2s120.4-21.7,177.2,2.9c56.7,24.6,100.5,69.8,123.2,127.3s21.7,120.4-2.9,177.2
					c-24.6,56.7-69.8,100.5-127.3,123.2C2100.2,630.4,2071.4,635.8,2042.6,635.8z M2042.8,179.5c-27.9,0-55.9,5.3-82.6,15.9l0,0
					c-55.8,22-99.6,64.4-123.5,119.5c-23.9,55-24.8,116.1-2.8,171.8c22,55.8,64.4,99.6,119.5,123.5c55,23.9,116.1,24.8,171.8,2.8
					c55.8-22,99.6-64.4,123.5-119.5c23.9-55,24.8-116.1,2.8-171.8c-22-55.8-64.4-99.6-119.5-123.5
					C2103.4,185.8,2073.1,179.5,2042.8,179.5z M2042.6,555.2c-20.4,0-40.7-4.2-60-12.5c-37-16-65.5-45.5-80.3-83
					s-14.1-78.5,1.9-115.5s45.5-65.5,83-80.3c37.5-14.8,78.5-14.1,115.5,1.9s65.5,45.5,80.3,83s14.1,78.5-1.9,115.5
					s-45.5,65.5-83,80.3C2080.2,551.7,2061.4,555.2,2042.6,555.2z M2042.5,260.2c-17.6,0-35.4,3.2-52.7,10.1
					c-35.8,14.1-63.9,41.3-79.2,76.6c-15.3,35.3-15.9,74.4-1.8,110.2c22.3,56.5,76.7,91.1,134.1,91.1c17.6,0,35.4-3.2,52.7-10.1
					c73.8-29.2,110.2-113,81-186.8C2154.3,294.8,2099.9,260.2,2042.5,260.2z"/>
			</g>
		</g>
		<g>
			<polygon class="st15" points="1245.2,1431.1 1445.3,1777.7 1542.9,1946.7 1487.4,1946.7 1445.3,1873.9 1245.2,1527.3 
				1045.1,1873.9 1003.1,1946.7 947.5,1946.7 1045.1,1777.7 			"/>
			<rect x="1220.5" y="362.6" class="st15" width="49.5" height="1584.1"/>
			<rect x="596.9" y="462.7" class="st12" width="1296.6" height="778.6"/>
			<rect x="552.7" y="462.7" class="st16" width="1385.1" height="72.9"/>
			<rect x="552.7" y="1228.3" class="st17" width="1385.1" height="46.9"/>
			<g>
				<path class="st18" d="M1600.3,637.5c130.1,0,235.6,105.5,235.6,235.6h-235.6V637.5z"/>
				<path class="st19" d="M1584.5,888.4h235.6c0,100.8-63.3,186.8-152.4,220.4l0,0L1584.5,888.4z"/>
				<path class="st17" d="M1584.5,888.4l83.3,220.4c-26.6,10-54.8,15.2-83.3,15.2c-130.1,0-235.6-105.5-235.6-235.6
					s105.5-235.6,235.6-235.6V888.4z"/>
			</g>
			<rect x="650.9" y="971.7" class="st19" width="57.3" height="152.3"/>
			<rect x="731.6" y="887" class="st20" width="57.3" height="236.9"/>
			<rect x="811.9" y="824.6" class="st19" width="57.3" height="299.4"/>
			<rect x="892.7" y="762.1" class="st20" width="57.3" height="361.9"/>
			<rect x="973.8" y="717.8" class="st19" width="57.3" height="406.1"/>
			<rect x="1054.5" y="835" class="st20" width="57.3" height="289"/>
			<rect x="1134.8" y="733.4" class="st19" width="57.3" height="390.5"/>
			<rect x="1215.6" y="650.1" class="st20" width="57.3" height="473.8"/>
		</g>
		<g>
			<g>
				<g>
					<path id="XMLID_117_" class="st20" d="M811.5,1794.5c29.2-18.6,68.4-79.3,70.4-132c0.7-16.2,2.9-71.8-29.5-72.3
						c-15.2,12.1-15,55.4-45.5,36.2c-11.9-13.7,36.8-26.9,35-44.5c-5.6-23.4-37.1-56.4-64.5-52c-9,8.2-3.2,76.8-19.1,77.7
						c-15.1-2.9,4.4-43.3,6.6-64.9c-0.1-22-35.7-27.8-56.9-33.6c12.2,25.5,17.2,48.5,7.6,51.1c-23.7,3.5,2.4-39.4-7.6-51.1
						c-30.8-8.3-35.6-22.8-52.8-16.3c-12.3,18.6-17.5,27.5-18.4,48.7c-0.6,46.1,71.8,52,63.9,65.6c-11.7,7.9-49.5-30.5-56.9-26.2
						c-16.8,6.3-19,43.2-6.7,53c18.1,14.6,79.8,17.1,79.1,29.8c-0.7,16-70.5-17.8-89.5,2.2c-14.1,17.9-8.4,50.3-1,71.2
						c4.5,30.3,98.2-24.7,103.7-15.2c-1.1,28.9-107.4,28.4-83.2,67.3c14.8,19.8,38.9,25.7,62.7,30.1
						C745.6,1826.3,791.1,1808.4,811.5,1794.5L811.5,1794.5z M673,1679.3c3.1-2.2,7.7-1.2,10.1,2.3c2.5,3.5,1.9,8.2-1.2,10.4
						c-3.2,2.2-7.7,1.2-10.2-2.3C669.3,1686.1,669.9,1681.5,673,1679.3L673,1679.3z M760.2,1651.6c-1.4,11.6,12.7,1.8,14.8-4.2
						c4-6.9,8-17.9,2.2-24.7C767.1,1623.4,762.4,1637,760.2,1651.6L760.2,1651.6z M792.4,1688.9c-9.8-14.1,18.3-35.3,27-31.8
						C826.1,1662.6,801.8,1696.8,792.4,1688.9L792.4,1688.9z M739.9,1751.7c-5.4,3.6,3.8,6,7,4.6c4.3-0.8,10.4-3.1,11.1-7.9
						C754.2,1744.5,746.8,1747.4,739.9,1751.7L739.9,1751.7z M685.8,1615.1c6.7-2.6,15.4,2.1,20.5,6.6c-0.9,5.3-8.7,3.4-13.7,2.6
						C687.2,1623.8,682,1618.5,685.8,1615.1L685.8,1615.1z"/>
					<g id="XMLID_106_">
						<g id="XMLID_115_">
							<path id="XMLID_116_" class="st21" d="M842.7,1901.3c-0.5-0.4-0.9-0.9-1-1.5c-35.7-134.4-91.4-253.9-170.2-365.4
								c-0.9-1.3-0.6-3.1,0.7-4s3.1-0.6,4,0.7c41.5,58.7,77.4,121.3,106.7,186.1c26,57.4,47.6,118.3,64.3,181.2
								c0.4,1.5-0.5,3.1-2.1,3.5C844.3,1902,843.4,1901.8,842.7,1901.3z"/>
						</g>
						<g id="XMLID_113_">
							<path id="XMLID_114_" class="st21" d="M726.9,1620.2c-1.2-0.9-1.5-2.6-0.6-3.9c15.3-22.6,18.2-47.3,8.6-73.3
								c-0.6-1.5,0.2-3.2,1.7-3.7c1.5-0.6,3.2,0.2,3.7,1.7c4.9,13.3,6.7,26.4,5.5,39.1c-1.3,13.7-6.3,26.9-14.7,39.4
								c-0.9,1.3-2.7,1.7-4,0.8C727,1620.3,726.9,1620.3,726.9,1620.2z"/>
						</g>
						<g id="XMLID_111_">
							<path id="XMLID_112_" class="st21" d="M785.6,1736.4c-0.3-0.3-0.6-0.6-0.8-1c-0.7-1.4-0.1-3.2,1.3-3.9
								c43.3-21.2,67.1-59.4,68.8-110.3c0.1-1.6,1.4-2.9,3-2.8s2.9,1.4,2.8,3c-1.8,53.2-26.7,93.1-72,115.3
								C787.6,1737.2,786.5,1737,785.6,1736.4z"/>
						</g>
						<g id="XMLID_109_">
							<path id="XMLID_110_" class="st21" d="M647,1703.4c-0.9-0.7-1.4-2-1-3.1c0.5-1.5,2.1-2.4,3.6-1.9
								c38.8,12.1,71,6.2,111.2-20.2c1.3-0.9,3.1-0.5,4,0.8s0.5,3.1-0.8,4c-20.1,13.2-37.5,21.1-54.7,24.7
								c-19.6,4.2-39.7,2.9-61.5-3.9C647.6,1703.8,647.3,1703.6,647,1703.4z"/>
						</g>
						<g id="XMLID_107_">
							<path id="XMLID_108_" class="st21" d="M672.6,1785.3c-0.9-0.7-1.4-1.9-1-3.1c0.5-1.5,2.1-2.4,3.6-1.9
								c66.9,20.2,101.3,2.1,123.8-15.9c1.2-1,3.1-0.8,4.1,0.5c1,1.2,0.8,3.1-0.5,4.1c-23.6,18.9-59.7,37.9-129.1,16.9
								C673.2,1785.7,672.9,1785.5,672.6,1785.3z"/>
						</g>
					</g>
				</g>
				<g>
					<path id="XMLID_99_" class="st22" d="M890,1800.3c34.2,5.5,103.8-13.9,140.1-52.1c11.2-11.6,49.8-51.9,25.9-73.6
						c-19.4-1-47.9,31.6-58-3.1c0.2-18.2,45.3,4.3,55.7-10.1c11.3-21.2,9.6-66.8-13.8-81.7c-12.2,0.2-53.4,55.3-65.9,45.5
						c-9.4-12.2,32-29.4,48-44.2c14.5-16.5-8.2-44.5-20.3-62.9c-7.8,27.1-19.3,47.7-28.2,43.3c-20.1-13.1,27.9-27.9,28.2-43.3
						c-17.5-26.7-11.5-40.6-28.7-47.2c-21.6,5.8-31.4,8.9-46.1,24.3c-31,34.1,19.2,86.6,4.4,91.5c-14-1.9-16.9-55.7-25.3-57.4
						c-16.7-6.4-42.8,19.7-40.2,35.3c3.9,22.9,48.4,65.6,39.5,74.8c-11.1,11.5-41-60.1-68.5-57.7c-22.4,4.1-39.6,32-47.9,52.6
						c-16.7,25.6,89.9,46.6,87.7,57.4c-19.9,20.9-99.2-50-106.9-4.7c-2,24.6,12,45,27,64.1C819.5,1780.4,865.4,1797.1,890,1800.3
						L890,1800.3z M862.6,1622.2c3.8,0.4,6.6,4.2,6.1,8.5s-4,7.3-7.8,6.9s-6.6-4.2-6.1-8.5C855.3,1624.9,858.8,1621.8,862.6,1622.2
						L862.6,1622.2z M946.3,1659.3c-8.8,7.7,8.3,9.8,13.8,6.6c7.6-2.5,17.9-8.1,18.1-17C970.1,1642.8,957.6,1649.8,946.3,1659.3
						L946.3,1659.3z M945.6,1708.5c2-17,37.1-14.3,41.4-5.9C988.3,1711.3,947.5,1720.7,945.6,1708.5L945.6,1708.5z M864.7,1720.8
						c-6.4-0.9-1.1,7,2.2,8.2c3.8,2.3,9.8,4.5,13.6,1.4C880.1,1724.9,872.7,1722.2,864.7,1720.8L864.7,1720.8z M914.8,1582.7
						c6.8,2.6,10.1,11.8,11,18.6c-4.2,3.4-8.8-3.2-12-7.1C910.1,1590.1,909.7,1582.7,914.8,1582.7L914.8,1582.7z"/>
					<g id="XMLID_88_">
						<g id="XMLID_97_">
							<path id="XMLID_98_" class="st21" d="M843.5,1902.6c-1.1-0.8-1.4-2.3-0.8-3.6c62.4-124.3,100-250.7,114.9-386.4
								c0.2-1.6,1.6-2.7,3.2-2.6c1.6,0.2,2.7,1.6,2.6,3.2c-7.9,71.5-22.5,142.1-43.5,210c-18.6,60.2-42.8,120.1-72,178.3
								c-0.7,1.4-2.5,2-3.9,1.3C843.8,1902.9,843.7,1902.8,843.5,1902.6z"/>
						</g>
						<g id="XMLID_95_">
							<path id="XMLID_96_" class="st21" d="M943.2,1615.5c-0.5-0.4-0.9-0.9-1-1.6c-0.4-1.5,0.5-3.1,2.1-3.5
								c26.5-6.8,45-23.4,55.1-49.2c0.6-1.5,2.3-2.2,3.8-1.6s2.2,2.3,1.6,3.8c-10.8,27.7-30.7,45.4-59,52.7
								C944.8,1616.3,943.9,1616.1,943.2,1615.5z"/>
						</g>
						<g id="XMLID_93_">
							<path id="XMLID_94_" class="st21" d="M910.1,1741.3c-0.9-0.7-1.3-1.9-1-3.1c0.4-1.5,2-2.4,3.6-2
								c46.5,12.8,89.6,0.1,124.7-36.9c1.1-1.2,2.9-1.2,4.1-0.1s1.2,2.9,0.1,4.1c-36.6,38.6-81.7,51.9-130.4,38.5
								C910.7,1741.7,910.4,1741.6,910.1,1741.3z"/>
						</g>
						<g id="XMLID_91_">
							<path id="XMLID_92_" class="st21" d="M857.9,1658.9c-11.6-9-21.6-20.5-30.3-34.9c-0.8-1.4-0.4-3.2,1-4s3.2-0.4,4,1
								c21.1,34.8,49,51.8,96.6,58.6c1.6,0.2,2.7,1.7,2.5,3.3c-0.2,1.6-1.7,2.7-3.3,2.5c-23.8-3.4-42-9.1-57.3-17.7
								C866.4,1665,862,1662.1,857.9,1658.9z"/>
						</g>
						<g id="XMLID_89_">
							<path id="XMLID_90_" class="st21" d="M834.7,1751.6c-13.9-10.8-28.2-26.5-42.2-49.3c-0.8-1.4-0.4-3.1,0.9-4
								c1.4-0.8,3.1-0.4,4,0.9c36.6,59.5,74.4,68.7,103.2,70.1c1.6,0.1,2.8,1.4,2.8,3c-0.1,1.6-1.4,2.8-3,2.8
								C881.3,1774.2,858.4,1770.1,834.7,1751.6z"/>
						</g>
					</g>
				</g>
			</g>
			<polygon class="st11" points="870.3,1952.2 895.6,1964.7 840.8,1964.7 786.1,1964.7 811.4,1952.2 			"/>
			<path class="st23" d="M956.7,1848.9c-4.9,59.7-54.9,106.7-115.9,106.7s-110.9-47-115.8-106.7H956.7z"/>
			<path class="st12" d="M814.6,1941.3c-39.3-5.7-71.1-40-76.7-84l8.9-0.5c5.6,40.9,32.8,73.6,67.8,84.3V1941.3z"/>
		</g>
		<g>
			<path class="st24" d="M1993.8,1412.7H2282c3.6,0,6.7,2.9,6.7,6.7v10c0,3.6-3.1,6.7-6.7,6.7h-288.2c-3.8,0-6.7-3.1-6.7-6.7v-10
				C1987.1,1415.7,1990,1412.7,1993.8,1412.7L1993.8,1412.7z"/>
			<path class="st18" d="M1826.1,1221.7c44.4,0,88.7,0,133.1,0s88.5,0,132.9,0c7.4,0,15.2,6,17.1,13.5c8.1,31.4,16.2,62.6,24.5,94.1
				c8.1,31.2,16.2,62.5,24.3,93.7c1.9,7.2-2.6,13.3-10,13.3c-44.2,0-88.4,0-132.5,0c-44,0-88.2,0-132.4,0c-7.4,0-14.8-6-16.9-13.3
				c-8.3-31.2-16.6-62.5-24.9-93.7c-8.3-31.4-16.6-62.6-25-94.1C1814.3,1227.7,1818.6,1221.7,1826.1,1221.7L1826.1,1221.7z"/>
			<path class="st12" d="M1987.1,1302.3c9.8,0,9.8,1.4,14.3,3.6c-6.7,4.7-9.8,13.3-7.2,23.3c2.6,9.8,10.2,18.5,19.5,23.1
				c-3.5,2.4-2.8,3.6-12.6,3.6c-9.8,0-30-11.9-33.8-26.7C1963.3,1314.4,1977.1,1302.3,1987.1,1302.3L1987.1,1302.3z"/>
		</g>
		<g>
			<rect x="1770.1" y="1461" class="st25" width="19.4" height="482.4"/>
			<rect x="2504.3" y="1461" class="st25" width="19.5" height="482.4"/>
			<rect x="1709.5" y="1439.1" class="st26" width="874.7" height="41.8"/>
		</g>
		<g>
			<g>
				<path class="st27" d="M1619.8,1913.2c21.9,0,42.6,1.8,59.9,4.9h52.4v26.9l0,0c0,0,0,0,0,0.3c0,17.6-50.1,31.8-112.3,31.8
					c-62,0-112.3-14.2-112.3-31.8c0-0.3,0-0.3,0-0.3l0,0v-26.9h52.4C1577.2,1915.1,1597.8,1913.2,1619.8,1913.2L1619.8,1913.2z"/>
				<path class="st28" d="M1623.1,1913.2c20.7,0,40,1.8,56.5,4.9h52.4v26.9l0,0c0,0,0,0,0,0.3c0,17.3-48.5,31.2-109,31.8V1913.2z"/>
				<path class="st29" d="M1619.8,1950.2c62,0,112.3-14.5,112.3-32c0-17.8-50.3-32-112.3-32c-62,0-112.3,14.2-112.3,32
					C1507.5,1935.7,1557.8,1950.2,1619.8,1950.2L1619.8,1950.2z"/>
				<path class="st30" d="M1619.8,1946c56.5,0,102.8-12.7,102.8-27.9c0-15.5-46.2-27.9-102.8-27.9c-56.5,0-102.8,12.4-102.8,27.9
					C1517,1933.4,1563.2,1946,1619.8,1946L1619.8,1946z"/>
				<path class="st27" d="M1617.2,1946c55,0,99.9-12.7,99.9-27.9c0-15.5-44.9-27.9-99.9-27.9c-55.3,0-100.2,12.4-100.2,27.9
					C1517,1933.4,1561.9,1946,1617.2,1946L1617.2,1946z"/>
				<path class="st31" d="M1673.5,1923.8c0,1.5-1.5,3.1-4.4,4.4c-2.8,1.3-7,2.3-12.1,3.4c-5.4,0.8-11.6,1.5-18.8,1.8
					c-2.6,0.3-5.2,0.5-8,0.5v2.1c0,1.3-4.6,2.3-10.3,2.3l0,0c-5.7,0-10.3-1-10.3-2.3v-1.8c-3.6,0-7.2,0-10.8-0.3
					c-4.9-0.3-9.3-0.3-13.2-0.8c-3.9-0.3-7.2-0.5-9.8-0.8c-2.6-0.3-4.6-0.5-5.9-0.8c-1.3-0.3-2.1-0.5-2.6-1c-0.5-0.3-0.8-1-0.8-1.8
					c0-0.3,0-0.8,0.3-1c0.3-0.3,0.5-0.5,0.8-0.8c0.3-0.3,0.8-0.3,1.5-0.5c0.5,0,1.3,0,2.1,0c1,0,3.1,0.3,5.4,0.5
					c2.3,0.3,5.4,0.5,8.8,1c3.6,0.3,7.7,0.8,12.7,1c3.6,0.3,7.5,0.5,11.6,0.5v-11.4l-1.5-0.3c-4.6-0.5-9.3-0.8-13.9-1.3
					c-4.4-0.5-8.5-1.3-12.1-2.1c-3.6-0.8-6.5-1.5-8.5-2.6c-2.3-1-3.4-2.3-3.4-3.6c0-1.3,1.3-2.6,3.6-3.6c2.1-1.3,5.7-2.3,10.3-3.1
					c4.6-1,10.3-1.5,17.3-2.1c2.6-0.3,5.4-0.5,8.3-0.5v-2.1c0-1.3,4.6-2.3,10.3-2.3l0,0c5.7,0,10.3,1,10.3,2.3v1.8
					c2.3,0,4.9,0,7.2,0c4.1,0.3,7.7,0.5,11.1,0.8c3.1,0,5.9,0.3,8.3,0.5c2.3,0.3,4.1,0.5,5.2,0.8c1.3,0.3,2.1,0.5,2.3,0.5
					c0.5,0.3,0.8,0.3,1,0.5c0,0.3,0.3,0.3,0.5,0.5c0,0.5,0,0.8,0,1c0,0.5,0,0.8,0,1c-0.3,0.3-0.5,0.5-1,0.8
					c-0.3,0.3-0.8,0.3-1.3,0.5c-0.8,0-1.3,0-1.8,0c-1,0-2.6,0-4.6-0.3c-1.8-0.3-4.4-0.5-7.2-1c-3.1-0.3-6.7-0.5-10.8-0.8
					c-2.6-0.3-5.7-0.3-8.8-0.3v10.6c1.5,0.3,3.4,0.3,4.9,0.5c4.6,0.3,9.6,0.8,14.2,1.3c4.6,0.5,8.8,1,12.4,1.8
					c3.6,0.8,6.5,1.5,8.5,2.6C1672.4,1921.3,1673.5,1922.5,1673.5,1923.8L1673.5,1923.8z M1630.1,1929c2.6-0.3,4.9-0.5,7-0.8
					c2.8-0.5,4.9-1,6.5-1.5c1.5-0.8,2.3-1.5,2.3-2.3c0-1-1-1.8-3.4-2.3c-2.1-0.8-4.9-1.3-8.5-1.8c-1.3,0-2.6-0.3-3.9-0.3V1929z
					 M1609.4,1904c-2.3,0-4.1,0.3-5.9,0.8c-2.3,0.3-4.1,0.8-5.2,1.3c-1.3,0.5-1.8,1.3-1.8,1.8c0,1,1,1.8,3.4,2.6
					c2.3,0.5,5.2,1,8.8,1.5c0.3,0,0.5,0,0.8,0V1904z"/>
				<path class="st27" d="M1619.8,1875.3c21.9,0,42.6,1.8,59.9,4.9h52.4v26.9l0,0c0,0,0,0,0,0.3c0,17.6-50.1,32-112.3,32
					c-62,0-112.3-14.5-112.3-32c0-0.3,0-0.3,0-0.3l0,0v-26.9h52.4C1577.2,1877.1,1597.8,1875.3,1619.8,1875.3L1619.8,1875.3z"/>
				<path class="st28" d="M1623.1,1875.3c20.7,0,40,1.8,56.5,4.9h52.4v26.9l0,0c0,0,0,0,0,0.3c0,17.3-48.5,31.5-109,31.8V1875.3z"/>
				<path class="st29" d="M1619.8,1912.2c62,0,112.3-14.5,112.3-32c0-17.6-50.3-32-112.3-32c-62,0-112.3,14.5-112.3,32
					C1507.5,1897.8,1557.8,1912.2,1619.8,1912.2L1619.8,1912.2z"/>
				<path class="st30" d="M1619.8,1908.1c56.5,0,102.8-12.7,102.8-27.9c0-15.5-46.2-27.9-102.8-27.9c-56.5,0-102.8,12.4-102.8,27.9
					C1517,1895.4,1563.2,1908.1,1619.8,1908.1L1619.8,1908.1z"/>
				<path class="st27" d="M1617.2,1908.1c55,0,99.9-12.7,99.9-27.9c0-15.5-44.9-27.9-99.9-27.9c-55.3,0-100.2,12.4-100.2,27.9
					C1517,1895.4,1561.9,1908.1,1617.2,1908.1L1617.2,1908.1z"/>
				<path class="st31" d="M1673.5,1885.9c0,1.5-1.5,3.1-4.4,4.4c-2.8,1.3-7,2.3-12.1,3.4c-5.4,0.8-11.6,1.5-18.8,2.1
					c-2.6,0-5.2,0.3-8,0.3v2.1c0,1.3-4.6,2.3-10.3,2.3l0,0c-5.7,0-10.3-1-10.3-2.3v-1.8c-3.6,0-7.2,0-10.8-0.3
					c-4.9,0-9.3-0.3-13.2-0.5c-3.9-0.3-7.2-0.8-9.8-1c-2.6-0.3-4.6-0.5-5.9-0.8c-1.3-0.3-2.1-0.5-2.6-1c-0.5-0.3-0.8-1-0.8-1.8
					c0-0.3,0-0.8,0.3-1c0.3-0.3,0.5-0.5,0.8-0.8c0.3-0.3,0.8-0.3,1.5-0.3c0.5-0.3,1.3-0.3,2.1-0.3c1,0,3.1,0.3,5.4,0.5
					c2.3,0.3,5.4,0.8,8.8,1c3.6,0.3,7.7,0.8,12.7,1c3.6,0.3,7.5,0.5,11.6,0.5v-11.4l-1.5-0.3c-4.6-0.5-9.3-0.8-13.9-1.3
					c-4.4-0.5-8.5-1.3-12.1-2.1c-3.6-0.5-6.5-1.5-8.5-2.6c-2.3-1-3.4-2.3-3.4-3.6c0-1.3,1.3-2.6,3.6-3.6c2.1-1.3,5.7-2.3,10.3-3.1
					c4.6-0.8,10.3-1.5,17.3-2.1c2.6-0.3,5.4-0.5,8.3-0.5v-2.1c0-1.3,4.6-2.3,10.3-2.3l0,0c5.7,0,10.3,1,10.3,2.3v1.8
					c2.3,0,4.9,0,7.2,0.3c4.1,0,7.7,0.3,11.1,0.5c3.1,0.3,5.9,0.5,8.3,0.8c2.3,0.3,4.1,0.3,5.2,0.5c1.3,0.3,2.1,0.5,2.3,0.5
					c0.5,0.3,0.8,0.3,1,0.5c0,0.3,0.3,0.5,0.5,0.8c0,0.3,0,0.5,0,0.8c0,0.5,0,0.8,0,1c-0.3,0.5-0.5,0.8-1,0.8
					c-0.3,0.3-0.8,0.3-1.3,0.5c-0.8,0-1.3,0-1.8,0c-1,0-2.6,0-4.6-0.3c-1.8-0.3-4.4-0.5-7.2-1c-3.1-0.3-6.7-0.5-10.8-0.8
					c-2.6,0-5.7-0.3-8.8-0.3v10.6c1.5,0.3,3.4,0.3,4.9,0.5c4.6,0.3,9.6,0.8,14.2,1.3c4.6,0.5,8.8,1,12.4,1.8
					c3.6,0.8,6.5,1.5,8.5,2.6C1672.4,1883.3,1673.5,1884.6,1673.5,1885.9L1673.5,1885.9z M1630.1,1891c2.6-0.3,4.9-0.5,7-0.8
					c2.8-0.5,4.9-1,6.5-1.5c1.5-0.8,2.3-1.5,2.3-2.3c0-1-1-1.8-3.4-2.3c-2.1-0.5-4.9-1.3-8.5-1.5c-1.3-0.3-2.6-0.5-3.9-0.5V1891z
					 M1609.4,1866c-2.3,0.3-4.1,0.3-5.9,0.8c-2.3,0.3-4.1,0.8-5.2,1.3c-1.3,0.8-1.8,1.3-1.8,2.1c0,0.8,1,1.5,3.4,2.3
					c2.3,0.5,5.2,1,8.8,1.5c0.3,0,0.5,0,0.8,0.3V1866z"/>
				<path class="st27" d="M1619.8,1836.8c21.9,0,42.6,1.8,59.9,4.9h52.4v26.9l0,0c0,0.3,0,0.3,0,0.3c0,17.6-50.1,32-112.3,32
					c-62,0-112.3-14.5-112.3-32c0,0,0,0,0-0.3l0,0v-26.9h52.4C1577.2,1838.6,1597.8,1836.8,1619.8,1836.8L1619.8,1836.8z"/>
				<path class="st28" d="M1623.1,1836.8c20.7,0.3,40,2.1,56.5,4.9h52.4v26.9l0,0c0,0.3,0,0.3,0,0.3c0,17.3-48.5,31.5-109,32V1836.8
					z"/>
				<path class="st29" d="M1619.8,1873.7c62,0,112.3-14.5,112.3-32c0-17.6-50.3-32-112.3-32c-62,0-112.3,14.5-112.3,32
					C1507.5,1859.3,1557.8,1873.7,1619.8,1873.7L1619.8,1873.7z"/>
				<path class="st30" d="M1619.8,1869.6c56.5,0,102.8-12.4,102.8-27.9c0-15.2-46.2-27.9-102.8-27.9c-56.5,0-102.8,12.7-102.8,27.9
					C1517,1857.2,1563.2,1869.6,1619.8,1869.6L1619.8,1869.6z"/>
				<path class="st27" d="M1617.2,1869.6c55,0,99.9-12.4,99.9-27.9c0-15.2-44.9-27.9-99.9-27.9c-55.3,0-100.2,12.7-100.2,27.9
					C1517,1857.2,1561.9,1869.6,1617.2,1869.6L1617.2,1869.6z"/>
				<path class="st31" d="M1673.5,1847.4c0,1.8-1.5,3.1-4.4,4.4c-2.8,1.3-7,2.6-12.1,3.4c-5.4,0.8-11.6,1.5-18.8,2.1
					c-2.6,0-5.2,0.3-8,0.3v2.3c0,1-4.6,2.1-10.3,2.1l0,0c-5.7,0-10.3-1-10.3-2.1v-2.1c-3.6,0-7.2,0-10.8-0.3
					c-4.9,0-9.3-0.3-13.2-0.5c-3.9-0.3-7.2-0.5-9.8-0.8c-2.6-0.5-4.6-0.8-5.9-1c-1.3,0-2.1-0.5-2.6-0.8c-0.5-0.5-0.8-1-0.8-1.8
					c0-0.5,0-0.8,0.3-1.3c0.3-0.3,0.5-0.5,0.8-0.8c0.3,0,0.8-0.3,1.5-0.3c0.5-0.3,1.3-0.3,2.1-0.3c1,0,3.1,0.3,5.4,0.5
					c2.3,0.3,5.4,0.8,8.8,1c3.6,0.5,7.7,0.8,12.7,1c3.6,0.3,7.5,0.5,11.6,0.5v-11.4l-1.5-0.3c-4.6-0.3-9.3-0.8-13.9-1.3
					c-4.4-0.5-8.5-1-12.1-1.8c-3.6-0.8-6.5-1.8-8.5-2.8c-2.3-1-3.4-2.1-3.4-3.6c0-1.3,1.3-2.6,3.6-3.6c2.1-1.3,5.7-2.1,10.3-3.1
					c4.6-0.8,10.3-1.5,17.3-2.1c2.6-0.3,5.4-0.3,8.3-0.5v-2.1c0-1.3,4.6-2.3,10.3-2.3l0,0c5.7,0,10.3,1,10.3,2.3v1.8
					c2.3,0,4.9,0,7.2,0.3c4.1,0,7.7,0.3,11.1,0.5c3.1,0.3,5.9,0.5,8.3,0.8c2.3,0.3,4.1,0.5,5.2,0.5c1.3,0.3,2.1,0.5,2.3,0.5
					c0.5,0.3,0.8,0.5,1,0.5c0,0.3,0.3,0.5,0.5,0.8c0,0.3,0,0.5,0,1c0,0.3,0,0.8,0,1c-0.3,0.3-0.5,0.5-1,0.5
					c-0.3,0.3-0.8,0.5-1.3,0.5c-0.8,0-1.3,0.3-1.8,0.3c-1,0-2.6-0.3-4.6-0.5c-1.8-0.3-4.4-0.5-7.2-0.8c-3.1-0.3-6.7-0.8-10.8-1
					c-2.6,0-5.7-0.3-8.8-0.3v10.6c1.5,0.3,3.4,0.3,4.9,0.5c4.6,0.5,9.6,0.8,14.2,1.3c4.6,0.5,8.8,1.3,12.4,1.8
					c3.6,0.8,6.5,1.5,8.5,2.6C1672.4,1844.8,1673.5,1846.1,1673.5,1847.4L1673.5,1847.4z M1630.1,1852.6c2.6,0,4.9-0.3,7-0.8
					c2.8-0.3,4.9-0.8,6.5-1.5c1.5-0.5,2.3-1.3,2.3-2.3c0-0.8-1-1.5-3.4-2.3c-2.1-0.5-4.9-1-8.5-1.5c-1.3-0.3-2.6-0.3-3.9-0.5V1852.6
					z M1609.4,1827.5c-2.3,0.3-4.1,0.5-5.9,0.8c-2.3,0.5-4.1,0.8-5.2,1.5c-1.3,0.5-1.8,1-1.8,1.8c0,0.8,1,1.5,3.4,2.3
					c2.3,0.5,5.2,1.3,8.8,1.5c0.3,0.3,0.5,0.3,0.8,0.3V1827.5z"/>
				<polygon class="st12" points="1619.3,1924.9 1624.9,1944.7 1645.3,1940.9 1625.4,1946.6 1629.3,1967 1623.6,1947.1 
					1603.2,1950.9 1623.1,1945.3 				"/>
				<path class="st27" d="M1619.8,1797.8c21.9,0,42.6,1.8,59.9,4.9h52.4v26.9l0,0v0.3c0,17.6-50.1,32-112.3,32
					c-62,0-112.3-14.5-112.3-32v-0.3l0,0v-26.9h52.4C1577.2,1799.6,1597.8,1797.8,1619.8,1797.8L1619.8,1797.8z"/>
				<path class="st30" d="M1623.1,1797.8c20.7,0.3,40,1.8,56.5,4.9h52.4v26.9l0,0v0.3c0,17.3-48.5,31.5-109,32V1797.8z"/>
				<path class="st29" d="M1619.8,1834.8c62,0,112.3-14.5,112.3-32c0-17.6-50.3-32-112.3-32c-62,0-112.3,14.5-112.3,32
					C1507.5,1820.3,1557.8,1834.8,1619.8,1834.8L1619.8,1834.8z"/>
				<path class="st30" d="M1619.8,1830.6c56.5,0,102.8-12.7,102.8-27.9s-46.2-27.9-102.8-27.9c-56.5,0-102.8,12.7-102.8,27.9
					S1563.2,1830.6,1619.8,1830.6L1619.8,1830.6z"/>
				<path class="st27" d="M1617.2,1830.6c55,0,99.9-12.7,99.9-27.9s-44.9-27.9-99.9-27.9c-55.3,0-100.2,12.7-100.2,27.9
					S1561.9,1830.6,1617.2,1830.6L1617.2,1830.6z"/>
				<path class="st31" d="M1673.5,1808.4c0,1.8-1.5,3.1-4.4,4.4c-2.8,1.3-7,2.6-12.1,3.4c-5.4,0.8-11.6,1.5-18.8,2.1
					c-2.6,0-5.2,0.3-8,0.3v2.1c0,1.3-4.6,2.3-10.3,2.3l0,0c-5.7,0-10.3-1-10.3-2.3v-1.8c-3.6,0-7.2,0-10.8-0.3
					c-4.9,0-9.3-0.3-13.2-0.5c-3.9-0.3-7.2-0.5-9.8-1c-2.6-0.3-4.6-0.5-5.9-0.8c-1.3-0.3-2.1-0.5-2.6-1c-0.5-0.3-0.8-0.8-0.8-1.5
					c0-0.5,0-1,0.3-1.3c0.3-0.3,0.5-0.5,0.8-0.8c0.3,0,0.8-0.3,1.5-0.3c0.5-0.3,1.3-0.3,2.1-0.3c1,0,3.1,0.3,5.4,0.5
					c2.3,0.3,5.4,0.8,8.8,1c3.6,0.5,7.7,0.8,12.7,1c3.6,0.3,7.5,0.5,11.6,0.5v-11.4l-1.5-0.3c-4.6-0.3-9.3-0.8-13.9-1.3
					c-4.4-0.5-8.5-1.3-12.1-1.8c-3.6-0.8-6.5-1.8-8.5-2.8c-2.3-1-3.4-2.1-3.4-3.6c0-1.3,1.3-2.6,3.6-3.6c2.1-1.3,5.7-2.3,10.3-3.1
					c4.6-0.8,10.3-1.5,17.3-2.1c2.6-0.3,5.4-0.5,8.3-0.5v-2.1c0-1.3,4.6-2.3,10.3-2.3l0,0c5.7,0,10.3,1,10.3,2.3v1.8
					c2.3,0,4.9,0,7.2,0.3c4.1,0,7.7,0.3,11.1,0.5c3.1,0.3,5.9,0.5,8.3,0.8c2.3,0.3,4.1,0.5,5.2,0.5c1.3,0.3,2.1,0.5,2.3,0.5
					c0.5,0.3,0.8,0.5,1,0.5c0,0.3,0.3,0.5,0.5,0.8c0,0.3,0,0.5,0,0.8c0,0.5,0,0.8,0,1.3c-0.3,0.3-0.5,0.5-1,0.5
					c-0.3,0.3-0.8,0.5-1.3,0.5c-0.8,0-1.3,0-1.8,0c-1,0-2.6,0-4.6-0.3c-1.8-0.3-4.4-0.5-7.2-0.8c-3.1-0.5-6.7-0.8-10.8-1
					c-2.6,0-5.7-0.3-8.8-0.3v10.6c1.5,0.3,3.4,0.3,4.9,0.5c4.6,0.3,9.6,0.8,14.2,1.3c4.6,0.5,8.8,1.3,12.4,1.8
					c3.6,0.8,6.5,1.5,8.5,2.6C1672.4,1805.8,1673.5,1807.1,1673.5,1808.4L1673.5,1808.4z M1630.1,1813.6c2.6-0.3,4.9-0.5,7-0.8
					c2.8-0.3,4.9-1,6.5-1.5c1.5-0.8,2.3-1.5,2.3-2.3c0-1-1-1.8-3.4-2.3c-2.1-0.5-4.9-1-8.5-1.5c-1.3-0.3-2.6-0.5-3.9-0.5V1813.6z
					 M1609.4,1788.5c-2.3,0.3-4.1,0.5-5.9,0.8c-2.3,0.3-4.1,0.8-5.2,1.5c-1.3,0.5-1.8,1-1.8,1.8s1,1.5,3.4,2.3
					c2.3,0.5,5.2,1,8.8,1.5c0.3,0,0.5,0.3,0.8,0.3V1788.5z"/>
				<path class="st27" d="M1619.8,1759.9c21.9,0,42.6,1.8,59.9,4.9h52.4v26.9l0,0c0,0.3,0,0.3,0,0.3c0,17.6-50.1,32-112.3,32
					c-62,0-112.3-14.5-112.3-32c0,0,0,0,0-0.3l0,0v-26.9h52.4C1577.2,1761.7,1597.8,1759.9,1619.8,1759.9L1619.8,1759.9z"/>
				<path class="st30" d="M1623.1,1759.9c20.7,0.3,40,2.1,56.5,4.9h52.4v26.9l0,0c0,0.3,0,0.3,0,0.3c0,17.3-48.5,31.5-109,32V1759.9
					z"/>
				<path class="st29" d="M1619.8,1796.8c62,0,112.3-14.5,112.3-32c0-17.6-50.3-32-112.3-32c-62,0-112.3,14.5-112.3,32
					C1507.5,1782.3,1557.8,1796.8,1619.8,1796.8L1619.8,1796.8z"/>
				<path class="st30" d="M1619.8,1792.7c56.5,0,102.8-12.4,102.8-27.9c0-15.2-46.2-27.9-102.8-27.9c-56.5,0-102.8,12.7-102.8,27.9
					C1517,1780.3,1563.2,1792.7,1619.8,1792.7L1619.8,1792.7z"/>
				<path class="st27" d="M1617.2,1792.7c55,0,99.9-12.4,99.9-27.9c0-15.2-44.9-27.9-99.9-27.9c-55.3,0-100.2,12.7-100.2,27.9
					C1517,1780.3,1561.9,1792.7,1617.2,1792.7L1617.2,1792.7z"/>
				<path class="st31" d="M1673.5,1770.5c0,1.8-1.5,3.1-4.4,4.4c-2.8,1.3-7,2.6-12.1,3.4c-5.4,0.8-11.6,1.5-18.8,2.1
					c-2.6,0-5.2,0.3-8,0.3v2.3c0,1-4.6,2.1-10.3,2.1l0,0c-5.7,0-10.3-1-10.3-2.1v-2.1c-3.6,0-7.2,0-10.8-0.3
					c-4.9,0-9.3-0.3-13.2-0.5c-3.9-0.3-7.2-0.5-9.8-0.8c-2.6-0.5-4.6-0.8-5.9-1c-1.3,0-2.1-0.5-2.6-0.8c-0.5-0.5-0.8-1-0.8-1.8
					c0-0.5,0-0.8,0.3-1.3c0.3-0.3,0.5-0.5,0.8-0.8c0.3,0,0.8-0.3,1.5-0.3c0.5-0.3,1.3-0.3,2.1-0.3c1,0,3.1,0.3,5.4,0.5
					c2.3,0.3,5.4,0.8,8.8,1c3.6,0.5,7.7,0.8,12.7,1c3.6,0.3,7.5,0.5,11.6,0.5v-11.4l-1.5-0.3c-4.6-0.3-9.3-0.8-13.9-1.3
					c-4.4-0.5-8.5-1-12.1-1.8c-3.6-0.8-6.5-1.8-8.5-2.8c-2.3-1-3.4-2.1-3.4-3.6c0-1.3,1.3-2.6,3.6-3.6c2.1-1.3,5.7-2.1,10.3-3.1
					c4.6-0.8,10.3-1.5,17.3-2.1c2.6-0.3,5.4-0.3,8.3-0.5v-2.1c0-1.3,4.6-2.3,10.3-2.3l0,0c5.7,0,10.3,1,10.3,2.3v1.8
					c2.3,0,4.9,0,7.2,0.3c4.1,0,7.7,0.3,11.1,0.5c3.1,0.3,5.9,0.5,8.3,0.8c2.3,0.3,4.1,0.5,5.2,0.5c1.3,0.3,2.1,0.5,2.3,0.5
					c0.5,0.3,0.8,0.5,1,0.5c0,0.3,0.3,0.5,0.5,0.8c0,0.3,0,0.5,0,1c0,0.3,0,0.8,0,1c-0.3,0.3-0.5,0.5-1,0.5
					c-0.3,0.3-0.8,0.5-1.3,0.5c-0.8,0-1.3,0.3-1.8,0.3c-1,0-2.6-0.3-4.6-0.5c-1.8-0.3-4.4-0.5-7.2-0.8c-3.1-0.3-6.7-0.8-10.8-1
					c-2.6,0-5.7-0.3-8.8-0.3v10.6c1.5,0.3,3.4,0.3,4.9,0.5c4.6,0.5,9.6,0.8,14.2,1.3c4.6,0.5,8.8,1.3,12.4,1.8
					c3.6,0.8,6.5,1.8,8.5,2.6C1672.4,1767.9,1673.5,1769.2,1673.5,1770.5L1673.5,1770.5z M1630.1,1775.6c2.6,0,4.9-0.3,7-0.8
					c2.8-0.3,4.9-0.8,6.5-1.5c1.5-0.5,2.3-1.3,2.3-2.3c0-0.8-1-1.5-3.4-2.3c-2.1-0.5-4.9-1-8.5-1.5c-1.3-0.3-2.6-0.3-3.9-0.5V1775.6
					z M1609.4,1750.6c-2.3,0.3-4.1,0.5-5.9,0.8c-2.3,0.5-4.1,0.8-5.2,1.5c-1.3,0.5-1.8,1-1.8,1.8c0,0.8,1,1.5,3.4,2.3
					c2.3,0.5,5.2,1.3,8.8,1.5c0.3,0.3,0.5,0.3,0.8,0.3V1750.6z"/>
				<path class="st32" d="M1619.8,1721.4c21.9,0,42.6,1.8,59.9,4.9h52.4v27.1l0,0l0,0c0,17.8-50.1,32-112.3,32
					c-62,0-112.3-14.2-112.3-32l0,0l0,0v-27.1h52.4C1577.2,1723.2,1597.8,1721.4,1619.8,1721.4L1619.8,1721.4z"/>
				<path class="st28" d="M1623.1,1721.4c20.7,0.3,40,2.1,56.5,4.9h52.4v27.1l0,0l0,0c0,17.3-48.5,31.5-109,32V1721.4z"/>
				<path class="st28" d="M1619.8,1758.3c62,0,112.3-14.2,112.3-32c0-17.6-50.3-32-112.3-32c-62,0-112.3,14.5-112.3,32
					C1507.5,1744.1,1557.8,1758.3,1619.8,1758.3L1619.8,1758.3z"/>
				<path class="st33" d="M1617.2,1754.2c55,0,99.9-12.4,99.9-27.9c0-15.2-44.9-27.9-99.9-27.9c-55.3,0-100.2,12.7-100.2,27.9
					C1517,1741.8,1561.9,1754.2,1617.2,1754.2L1617.2,1754.2z"/>
				<path class="st28" d="M1673.5,1732.3c0,1.5-1.5,3.1-4.4,4.4c-2.8,1.3-7,2.3-12.1,3.1c-5.4,1-11.6,1.5-18.8,2.1
					c-2.6,0.3-5.2,0.3-8,0.5v2.1c0,1.3-4.6,2.3-10.3,2.3l0,0c-5.7,0-10.3-1-10.3-2.3v-1.8c-3.6,0-7.2-0.3-10.8-0.3
					c-4.9-0.3-9.3-0.5-13.2-0.8c-3.9-0.3-7.2-0.5-9.8-0.8c-2.6-0.3-4.6-0.5-5.9-0.8c-1.3-0.3-2.1-0.5-2.6-1c-0.5-0.5-0.8-1-0.8-1.8
					c0-0.5,0-0.8,0.3-1c0.3-0.5,0.5-0.8,0.8-0.8c0.3-0.3,0.8-0.5,1.5-0.5c0.5,0,1.3,0,2.1,0c1,0,3.1,0,5.4,0.3
					c2.3,0.5,5.4,0.8,8.8,1.3c3.6,0.3,7.7,0.5,12.7,1c3.6,0.3,7.5,0.3,11.6,0.3v-11.4h-1.5c-4.6-0.5-9.3-1-13.9-1.5
					c-4.4-0.5-8.5-1-12.1-1.8c-3.6-0.8-6.5-1.5-8.5-2.6c-2.3-1-3.4-2.3-3.4-3.9c0-1.3,1.3-2.3,3.6-3.6c2.1-1,5.7-2.1,10.3-3.1
					c4.6-0.8,10.3-1.5,17.3-2.1c2.6-0.3,5.4-0.3,8.3-0.5v-2.1c0-1.3,4.6-2.3,10.3-2.3l0,0c5.7,0,10.3,1,10.3,2.3v1.8
					c2.3,0,4.9,0.3,7.2,0.3c4.1,0.3,7.7,0.3,11.1,0.5c3.1,0.3,5.9,0.5,8.3,0.8c2.3,0.3,4.1,0.5,5.2,0.8c1.3,0.3,2.1,0.3,2.3,0.5
					c0.5,0,0.8,0.3,1,0.5c0,0,0.3,0.3,0.5,0.5c0,0.3,0,0.5,0,1c0,0.3,0,0.8,0,1c-0.3,0.3-0.5,0.5-1,0.8c-0.3,0.3-0.8,0.3-1.3,0.3
					c-0.8,0.3-1.3,0.3-1.8,0.3c-1,0-2.6-0.3-4.6-0.5c-1.8-0.3-4.4-0.5-7.2-0.8c-3.1-0.3-6.7-0.5-10.8-0.8c-2.6-0.3-5.7-0.3-8.8-0.5
					v10.8c1.5,0,3.4,0.3,4.9,0.3c4.6,0.5,9.6,1,14.2,1.5c4.6,0.5,8.8,1,12.4,1.8c3.6,0.5,6.5,1.5,8.5,2.6
					C1672.4,1729.7,1673.5,1730.7,1673.5,1732.3L1673.5,1732.3z M1630.1,1737.4c2.6-0.3,4.9-0.5,7-0.8c2.8-0.5,4.9-1,6.5-1.8
					c1.5-0.5,2.3-1.3,2.3-2.3c0-0.8-1-1.5-3.4-2.3c-2.1-0.5-4.9-1-8.5-1.5c-1.3-0.3-2.6-0.3-3.9-0.5V1737.4z M1609.4,1712.1
					c-2.3,0.3-4.1,0.5-5.9,0.8c-2.3,0.5-4.1,1-5.2,1.5c-1.3,0.5-1.8,1.3-1.8,1.8c0,1,1,1.8,3.4,2.3c2.3,0.8,5.2,1.3,8.8,1.8
					c0.3,0,0.5,0,0.8,0V1712.1z"/>
				<polygon class="st12" points="1669.3,1786.2 1675,1806.1 1695.2,1802.2 1675.3,1807.9 1679.2,1828.3 1673.5,1808.4 
					1653.1,1812.3 1673,1806.6 				"/>
				<polygon class="st12" points="1687.7,1704.1 1693.4,1724 1713.7,1720.1 1693.9,1726.1 1697.7,1746.2 1692.1,1726.3 
					1671.7,1730.2 1691.5,1724.5 				"/>
			</g>
			<g>
				<path class="st33" d="M1619.8,1913.2c21.9,0,42.6,1.8,59.9,4.9h52.4v26.9l0,0c0,0,0,0,0,0.3c0,17.6-50.3,31.8-112.3,31.8
					s-112.3-14.2-112.3-31.8c0-0.3,0-0.3,0-0.3l0,0v-26.9h52.4C1577.2,1915.1,1597.8,1913.2,1619.8,1913.2L1619.8,1913.2z"/>
				<path class="st28" d="M1623.1,1913.2c20.7,0,40,1.8,56.5,4.9h52.4v26.9l0,0c0,0,0,0,0,0.3c0,17.3-48.5,31.2-109,31.8V1913.2z"/>
				<path class="st29" d="M1619.8,1950.2c62,0,112.3-14.5,112.3-32c0-17.8-50.3-32-112.3-32s-112.3,14.2-112.3,32
					C1507.5,1935.7,1557.8,1950.2,1619.8,1950.2L1619.8,1950.2z"/>
				<path class="st28" d="M1619.8,1946c56.5,0,102.8-12.7,102.8-27.9c0-15.5-46.2-27.9-102.8-27.9s-102.8,12.4-102.8,27.9
					C1517,1933.4,1563.2,1946,1619.8,1946L1619.8,1946z"/>
				<path class="st33" d="M1616.9,1946c55.3,0,100.2-12.7,100.2-27.9c0-15.5-44.9-27.9-100.2-27.9c-55,0-99.9,12.4-99.9,27.9
					C1517,1933.4,1561.9,1946,1616.9,1946L1616.9,1946z"/>
				<path class="st31" d="M1673.5,1923.8c0,1.5-1.5,3.1-4.4,4.4c-2.8,1.3-7,2.3-12.1,3.4c-5.4,0.8-11.6,1.5-18.8,1.8
					c-2.6,0.3-5.2,0.5-8,0.5v2.1c0,1.3-4.6,2.3-10.3,2.3l0,0c-5.7,0-10.3-1-10.3-2.3v-1.8c-3.6,0-7.2,0-10.8-0.3
					c-4.9-0.3-9.3-0.3-13.2-0.8c-3.9-0.3-7.2-0.5-9.8-0.8c-2.8-0.3-4.6-0.5-5.9-0.8c-1.3-0.3-2.1-0.5-2.6-1c-0.5-0.3-1-1-1-1.8
					c0-0.3,0.3-0.8,0.5-1c0.3-0.3,0.5-0.5,0.8-0.8c0.3-0.3,0.8-0.3,1.3-0.5c0.8,0,1.5,0,2.3,0c1,0,2.8,0.3,5.4,0.5
					c2.3,0.3,5.4,0.5,8.8,1c3.6,0.3,7.7,0.8,12.7,1c3.6,0.3,7.5,0.5,11.6,0.5v-11.4l-1.5-0.3c-4.6-0.5-9.3-0.8-13.9-1.3
					c-4.4-0.5-8.5-1.3-12.1-2.1c-3.6-0.8-6.5-1.5-8.5-2.6c-2.3-1-3.4-2.3-3.4-3.6c0-1.3,1.3-2.6,3.4-3.6c2.3-1.3,5.9-2.3,10.6-3.1
					c4.6-1,10.3-1.5,17-2.1c2.8-0.3,5.7-0.5,8.5-0.5v-2.1c0-1.3,4.6-2.3,10.3-2.3l0,0c5.7,0,10.3,1,10.3,2.3v1.8c2.3,0,4.9,0,7.2,0
					c4.1,0.3,7.7,0.5,10.8,0.8c3.4,0,6.2,0.3,8.5,0.5c2.3,0.3,4.1,0.5,5.2,0.8c1.3,0.3,2.1,0.5,2.3,0.5c0.5,0.3,0.8,0.3,0.8,0.5
					c0.3,0.3,0.5,0.3,0.5,0.5c0.3,0.5,0.3,0.8,0.3,1c0,0.5,0,0.8-0.3,1c0,0.3-0.3,0.5-0.8,0.8c-0.3,0.3-0.8,0.3-1.3,0.5
					c-0.8,0-1.3,0-2.1,0c-1,0-2.3,0-4.4-0.3c-1.8-0.3-4.4-0.5-7.2-1c-3.1-0.3-6.7-0.5-10.8-0.8c-2.6-0.3-5.7-0.3-8.8-0.3v10.6
					c1.5,0.3,3.1,0.3,4.9,0.5c4.6,0.3,9.6,0.8,14.2,1.3c4.6,0.5,8.8,1,12.1,1.8c3.6,0.8,6.7,1.5,8.8,2.6
					C1672.2,1921.3,1673.5,1922.5,1673.5,1923.8L1673.5,1923.8z M1630.1,1929c2.6-0.3,4.9-0.5,7-0.8c2.8-0.5,4.9-1,6.5-1.5
					c1.5-0.8,2.3-1.5,2.3-2.3c0-1-1-1.8-3.4-2.3c-2.1-0.8-4.9-1.3-8.5-1.8c-1.3,0-2.6-0.3-3.9-0.3V1929z M1609.4,1904
					c-2.3,0-4.1,0.3-5.9,0.8c-2.3,0.3-4.1,0.8-5.2,1.3c-1.3,0.5-1.8,1.3-1.8,1.8c0,1,1,1.8,3.4,2.6c2.3,0.5,5.2,1,8.8,1.5
					c0.3,0,0.5,0,0.8,0V1904z"/>
				<path class="st33" d="M1619.8,1875.3c21.9,0,42.6,1.8,59.9,4.9h52.4v26.9l0,0c0,0,0,0,0,0.3c0,17.6-50.3,32-112.3,32
					s-112.3-14.5-112.3-32c0-0.3,0-0.3,0-0.3l0,0v-26.9h52.4C1577.2,1877.1,1597.8,1875.3,1619.8,1875.3L1619.8,1875.3z"/>
				<path class="st28" d="M1623.1,1875.3c20.7,0,40,1.8,56.5,4.9h52.4v26.9l0,0c0,0,0,0,0,0.3c0,17.3-48.5,31.5-109,31.8V1875.3z"/>
				<path class="st29" d="M1619.8,1912.2c62,0,112.3-14.5,112.3-32c0-17.6-50.3-32-112.3-32s-112.3,14.5-112.3,32
					C1507.5,1897.8,1557.8,1912.2,1619.8,1912.2L1619.8,1912.2z"/>
				<path class="st28" d="M1619.8,1908.1c56.5,0,102.8-12.7,102.8-27.9c0-15.5-46.2-27.9-102.8-27.9s-102.8,12.4-102.8,27.9
					C1517,1895.4,1563.2,1908.1,1619.8,1908.1L1619.8,1908.1z"/>
				<path class="st33" d="M1616.9,1908.1c55.3,0,100.2-12.7,100.2-27.9c0-15.5-44.9-27.9-100.2-27.9c-55,0-99.9,12.4-99.9,27.9
					C1517,1895.4,1561.9,1908.1,1616.9,1908.1L1616.9,1908.1z"/>
				<path class="st31" d="M1673.5,1885.9c0,1.5-1.5,3.1-4.4,4.4c-2.8,1.3-7,2.3-12.1,3.4c-5.4,0.8-11.6,1.5-18.8,2.1
					c-2.6,0-5.2,0.3-8,0.3v2.1c0,1.3-4.6,2.3-10.3,2.3l0,0c-5.7,0-10.3-1-10.3-2.3v-1.8c-3.6,0-7.2,0-10.8-0.3
					c-4.9,0-9.3-0.3-13.2-0.5s-7.2-0.8-9.8-1c-2.8-0.3-4.6-0.5-5.9-0.8c-1.3-0.3-2.1-0.5-2.6-1c-0.5-0.3-1-1-1-1.8
					c0-0.3,0.3-0.8,0.5-1c0.3-0.3,0.5-0.5,0.8-0.8c0.3-0.3,0.8-0.3,1.3-0.3c0.8-0.3,1.5-0.3,2.3-0.3c1,0,2.8,0.3,5.4,0.5
					c2.3,0.3,5.4,0.8,8.8,1c3.6,0.3,7.7,0.8,12.7,1c3.6,0.3,7.5,0.5,11.6,0.5v-11.4l-1.5-0.3c-4.6-0.5-9.3-0.8-13.9-1.3
					c-4.4-0.5-8.5-1.3-12.1-2.1c-3.6-0.5-6.5-1.5-8.5-2.6c-2.3-1-3.4-2.3-3.4-3.6c0-1.3,1.3-2.6,3.4-3.6c2.3-1.3,5.9-2.3,10.6-3.1
					c4.6-0.8,10.3-1.5,17-2.1c2.8-0.3,5.7-0.5,8.5-0.5v-2.1c0-1.3,4.6-2.3,10.3-2.3l0,0c5.7,0,10.3,1,10.3,2.3v1.8
					c2.3,0,4.9,0,7.2,0.3c4.1,0,7.7,0.3,10.8,0.5c3.4,0.3,6.2,0.5,8.5,0.8c2.3,0.3,4.1,0.3,5.2,0.5c1.3,0.3,2.1,0.5,2.3,0.5
					c0.5,0.3,0.8,0.3,0.8,0.5c0.3,0.3,0.5,0.5,0.5,0.8c0.3,0.3,0.3,0.5,0.3,0.8c0,0.5,0,0.8-0.3,1c0,0.5-0.3,0.8-0.8,0.8
					c-0.3,0.3-0.8,0.3-1.3,0.5c-0.8,0-1.3,0-2.1,0c-1,0-2.3,0-4.4-0.3c-1.8-0.3-4.4-0.5-7.2-1c-3.1-0.3-6.7-0.5-10.8-0.8
					c-2.6,0-5.7-0.3-8.8-0.3v10.6c1.5,0.3,3.1,0.3,4.9,0.5c4.6,0.3,9.6,0.8,14.2,1.3c4.6,0.5,8.8,1,12.1,1.8
					c3.6,0.8,6.7,1.5,8.8,2.6C1672.2,1883.3,1673.5,1884.6,1673.5,1885.9L1673.5,1885.9z M1630.1,1891c2.6-0.3,4.9-0.5,7-0.8
					c2.8-0.5,4.9-1,6.5-1.5c1.5-0.8,2.3-1.5,2.3-2.3c0-1-1-1.8-3.4-2.3c-2.1-0.5-4.9-1.3-8.5-1.5c-1.3-0.3-2.6-0.5-3.9-0.5V1891z
					 M1609.4,1866c-2.3,0.3-4.1,0.3-5.9,0.8c-2.3,0.3-4.1,0.8-5.2,1.3c-1.3,0.8-1.8,1.3-1.8,2.1c0,0.8,1,1.5,3.4,2.3
					c2.3,0.5,5.2,1,8.8,1.5c0.3,0,0.5,0,0.8,0.3V1866z"/>
				<path class="st33" d="M1619.8,1836.8c21.9,0,42.6,1.8,59.9,4.9h52.4v26.9l0,0c0,0.3,0,0.3,0,0.3c0,17.6-50.3,32-112.3,32
					s-112.3-14.5-112.3-32c0,0,0,0,0-0.3l0,0v-26.9h52.4C1577.2,1838.6,1597.8,1836.8,1619.8,1836.8L1619.8,1836.8z"/>
				<path class="st28" d="M1623.1,1836.8c20.7,0.3,40,2.1,56.5,4.9h52.4v26.9l0,0c0,0.3,0,0.3,0,0.3c0,17.3-48.5,31.5-109,32V1836.8
					z"/>
				<path class="st29" d="M1619.8,1873.7c62,0,112.3-14.5,112.3-32c0-17.6-50.3-32-112.3-32s-112.3,14.5-112.3,32
					C1507.5,1859.3,1557.8,1873.7,1619.8,1873.7L1619.8,1873.7z"/>
				<path class="st28" d="M1619.8,1869.6c56.5,0,102.8-12.4,102.8-27.9c0-15.2-46.2-27.9-102.8-27.9s-102.8,12.7-102.8,27.9
					C1517,1857.2,1563.2,1869.6,1619.8,1869.6L1619.8,1869.6z"/>
				<path class="st33" d="M1616.9,1869.6c55.3,0,100.2-12.4,100.2-27.9c0-15.2-44.9-27.9-100.2-27.9c-55,0-99.9,12.7-99.9,27.9
					C1517,1857.2,1561.9,1869.6,1616.9,1869.6L1616.9,1869.6z"/>
				<path class="st28" d="M1673.5,1847.4c0,1.8-1.5,3.1-4.4,4.4c-2.8,1.3-7,2.6-12.1,3.4c-5.4,0.8-11.6,1.5-18.8,2.1
					c-2.6,0-5.2,0.3-8,0.3v2.3c0,1-4.6,2.1-10.3,2.1l0,0c-5.7,0-10.3-1-10.3-2.1v-2.1c-3.6,0-7.2,0-10.8-0.3
					c-4.9,0-9.3-0.3-13.2-0.5c-3.9-0.3-7.2-0.5-9.8-0.8c-2.8-0.5-4.6-0.8-5.9-1c-1.3,0-2.1-0.5-2.6-0.8c-0.5-0.5-1-1-1-1.8
					c0-0.5,0.3-0.8,0.5-1.3c0.3-0.3,0.5-0.5,0.8-0.8c0.3,0,0.8-0.3,1.3-0.3c0.8-0.3,1.5-0.3,2.3-0.3c1,0,2.8,0.3,5.4,0.5
					c2.3,0.3,5.4,0.8,8.8,1c3.6,0.5,7.7,0.8,12.7,1c3.6,0.3,7.5,0.5,11.6,0.5v-11.4l-1.5-0.3c-4.6-0.3-9.3-0.8-13.9-1.3
					c-4.4-0.5-8.5-1-12.1-1.8c-3.6-0.8-6.5-1.8-8.5-2.8c-2.3-1-3.4-2.1-3.4-3.6c0-1.3,1.3-2.6,3.4-3.6c2.3-1.3,5.9-2.1,10.6-3.1
					c4.6-0.8,10.3-1.5,17-2.1c2.8-0.3,5.7-0.3,8.5-0.5v-2.1c0-1.3,4.6-2.3,10.3-2.3l0,0c5.7,0,10.3,1,10.3,2.3v1.8
					c2.3,0,4.9,0,7.2,0.3c4.1,0,7.7,0.3,10.8,0.5c3.4,0.3,6.2,0.5,8.5,0.8c2.3,0.3,4.1,0.5,5.2,0.5c1.3,0.3,2.1,0.5,2.3,0.5
					c0.5,0.3,0.8,0.5,0.8,0.5c0.3,0.3,0.5,0.5,0.5,0.8c0.3,0.3,0.3,0.5,0.3,1c0,0.3,0,0.8-0.3,1c0,0.3-0.3,0.5-0.8,0.5
					c-0.3,0.3-0.8,0.5-1.3,0.5c-0.8,0-1.3,0.3-2.1,0.3c-1,0-2.3-0.3-4.4-0.5c-1.8-0.3-4.4-0.5-7.2-0.8c-3.1-0.3-6.7-0.8-10.8-1
					c-2.6,0-5.7-0.3-8.8-0.3v10.6c1.5,0.3,3.1,0.3,4.9,0.5c4.6,0.5,9.6,0.8,14.2,1.3c4.6,0.5,8.8,1.3,12.1,1.8
					c3.6,0.8,6.7,1.5,8.8,2.6C1672.2,1844.8,1673.5,1846.1,1673.5,1847.4L1673.5,1847.4z M1630.1,1852.6c2.6,0,4.9-0.3,7-0.8
					c2.8-0.3,4.9-0.8,6.5-1.5c1.5-0.5,2.3-1.3,2.3-2.3c0-0.8-1-1.5-3.4-2.3c-2.1-0.5-4.9-1-8.5-1.5c-1.3-0.3-2.6-0.3-3.9-0.5V1852.6
					z M1609.4,1827.5c-2.3,0.3-4.1,0.5-5.9,0.8c-2.3,0.5-4.1,0.8-5.2,1.5c-1.3,0.5-1.8,1-1.8,1.8c0,0.8,1,1.5,3.4,2.3
					c2.3,0.5,5.2,1.3,8.8,1.5c0.3,0.3,0.5,0.3,0.8,0.3V1827.5z"/>
				<polygon class="st12" points="1581,1829.3 1586.7,1849.2 1606.9,1845.3 1587.2,1851 1590.8,1871.4 1585.2,1851.5 1565,1855.4 
					1584.7,1849.7 				"/>
				<polygon class="st12" points="1619.3,1924.9 1624.9,1944.7 1645.3,1940.9 1625.4,1946.6 1629.3,1967 1623.4,1947.1 
					1603.2,1950.9 1623.1,1945.3 				"/>
			</g>
			<g>
				<path class="st33" d="M1619.8,1798.9c21.9,0,42.6,1.8,59.9,4.9h52.4v26.9l0,0c0,0,0,0,0,0.3c0,17.6-50.3,31.8-112.3,31.8
					s-112.3-14.2-112.3-31.8c0-0.3,0-0.3,0-0.3l0,0v-26.9h52.4C1577.2,1800.7,1597.8,1798.9,1619.8,1798.9L1619.8,1798.9z"/>
				<path class="st28" d="M1623.1,1798.9c20.7,0,40,1.8,56.5,4.9h52.4v26.9l0,0c0,0,0,0,0,0.3c0,17.3-48.5,31.2-109,31.8V1798.9z"/>
				<path class="st29" d="M1619.8,1835.8c62,0,112.3-14.5,112.3-32c0-17.8-50.3-32-112.3-32s-112.3,14.2-112.3,32
					C1507.5,1821.4,1557.8,1835.8,1619.8,1835.8L1619.8,1835.8z"/>
				<path class="st28" d="M1619.8,1831.7c56.5,0,102.8-12.7,102.8-27.9c0-15.5-46.2-27.9-102.8-27.9s-102.8,12.4-102.8,27.9
					C1517,1819,1563.2,1831.7,1619.8,1831.7L1619.8,1831.7z"/>
				<path class="st33" d="M1616.9,1831.7c55.3,0,100.2-12.7,100.2-27.9c0-15.5-44.9-27.9-100.2-27.9c-55,0-99.9,12.4-99.9,27.9
					C1517,1819,1561.9,1831.7,1616.9,1831.7L1616.9,1831.7z"/>
				<path class="st31" d="M1673.5,1809.5c0,1.5-1.5,3.1-4.4,4.4c-2.8,1.3-7,2.3-12.1,3.4c-5.4,0.8-11.6,1.5-18.8,1.8
					c-2.6,0.3-5.2,0.5-8,0.5v2.1c0,1.3-4.6,2.3-10.3,2.3l0,0c-5.7,0-10.3-1-10.3-2.3v-1.8c-3.6,0-7.2,0-10.8-0.3
					c-4.9-0.3-9.3-0.3-13.2-0.8c-3.9-0.3-7.2-0.5-9.8-0.8c-2.8-0.3-4.6-0.5-5.9-0.8c-1.3-0.3-2.1-0.5-2.6-1c-0.5-0.3-1-1-1-1.8
					c0-0.3,0.3-0.8,0.5-1c0.3-0.3,0.5-0.5,0.8-0.8s0.8-0.3,1.3-0.5c0.8,0,1.5,0,2.3,0c1,0,2.8,0.3,5.4,0.5c2.3,0.3,5.4,0.5,8.8,1
					c3.6,0.3,7.7,0.8,12.7,1c3.6,0.3,7.5,0.5,11.6,0.5v-11.4l-1.5-0.3c-4.6-0.5-9.3-0.8-13.9-1.3c-4.4-0.5-8.5-1.3-12.1-2.1
					c-3.6-0.8-6.5-1.5-8.5-2.6c-2.3-1-3.4-2.3-3.4-3.6s1.3-2.6,3.4-3.6c2.3-1.3,5.9-2.3,10.6-3.1c4.6-1,10.3-1.5,17-2.1
					c2.8-0.3,5.7-0.5,8.5-0.5v-2.1c0-1.3,4.6-2.3,10.3-2.3l0,0c5.7,0,10.3,1,10.3,2.3v1.8c2.3,0,4.9,0,7.2,0
					c4.1,0.3,7.7,0.5,10.8,0.8c3.4,0,6.2,0.3,8.5,0.5c2.3,0.3,4.1,0.5,5.2,0.8c1.3,0.3,2.1,0.5,2.3,0.5c0.5,0.3,0.8,0.3,0.8,0.5
					c0.3,0.3,0.5,0.3,0.5,0.5c0.3,0.5,0.3,0.8,0.3,1c0,0.5,0,0.8-0.3,1c0,0.3-0.3,0.5-0.8,0.8c-0.3,0.3-0.8,0.3-1.3,0.5
					c-0.8,0-1.3,0-2.1,0c-1,0-2.3,0-4.4-0.3c-1.8-0.3-4.4-0.5-7.2-1c-3.1-0.3-6.7-0.5-10.8-0.8c-2.6-0.3-5.7-0.3-8.8-0.3v10.6
					c1.5,0.3,3.1,0.3,4.9,0.5c4.6,0.3,9.6,0.8,14.2,1.3c4.6,0.5,8.8,1,12.1,1.8c3.6,0.8,6.7,1.5,8.8,2.6
					C1672.2,1806.9,1673.5,1808.2,1673.5,1809.5L1673.5,1809.5z M1630.1,1814.7c2.6-0.3,4.9-0.5,7-0.8c2.8-0.5,4.9-1,6.5-1.5
					c1.5-0.8,2.3-1.5,2.3-2.3c0-1-1-1.8-3.4-2.3c-2.1-0.8-4.9-1.3-8.5-1.8c-1.3,0-2.6-0.3-3.9-0.3V1814.7z M1609.4,1789.6
					c-2.3,0-4.1,0.3-5.9,0.8c-2.3,0.3-4.1,0.8-5.2,1.3c-1.3,0.5-1.8,1.3-1.8,1.8c0,1,1,1.8,3.4,2.6c2.3,0.5,5.2,1,8.8,1.5
					c0.3,0,0.5,0,0.8,0V1789.6z"/>
				<path class="st33" d="M1619.8,1760.9c21.9,0,42.6,1.8,59.9,4.9h52.4v26.9l0,0c0,0,0,0,0,0.3c0,17.6-50.3,32-112.3,32
					s-112.3-14.5-112.3-32c0-0.3,0-0.3,0-0.3l0,0v-26.9h52.4C1577.2,1762.8,1597.8,1760.9,1619.8,1760.9L1619.8,1760.9z"/>
				<path class="st28" d="M1623.1,1760.9c20.7,0,40,1.8,56.5,4.9h52.4v26.9l0,0c0,0,0,0,0,0.3c0,17.3-48.5,31.5-109,31.8V1760.9z"/>
				<path class="st29" d="M1619.8,1797.9c62,0,112.3-14.5,112.3-32c0-17.6-50.3-32-112.3-32s-112.3,14.5-112.3,32
					C1507.5,1783.4,1557.8,1797.9,1619.8,1797.9L1619.8,1797.9z"/>
				<path class="st28" d="M1619.8,1793.7c56.5,0,102.8-12.7,102.8-27.9c0-15.5-46.2-27.9-102.8-27.9s-102.8,12.4-102.8,27.9
					C1517,1781.1,1563.2,1793.7,1619.8,1793.7L1619.8,1793.7z"/>
				<path class="st33" d="M1616.9,1793.7c55.3,0,100.2-12.7,100.2-27.9c0-15.5-44.9-27.9-100.2-27.9c-55,0-99.9,12.4-99.9,27.9
					C1517,1781.1,1561.9,1793.7,1616.9,1793.7L1616.9,1793.7z"/>
				<path class="st31" d="M1673.5,1771.5c0,1.5-1.5,3.1-4.4,4.4c-2.8,1.3-7,2.3-12.1,3.4c-5.4,0.8-11.6,1.5-18.8,2.1
					c-2.6,0-5.2,0.3-8,0.3v2.1c0,1.3-4.6,2.3-10.3,2.3l0,0c-5.7,0-10.3-1-10.3-2.3v-1.8c-3.6,0-7.2,0-10.8-0.3
					c-4.9,0-9.3-0.3-13.2-0.5c-3.9-0.3-7.2-0.8-9.8-1c-2.8-0.3-4.6-0.5-5.9-0.8c-1.3-0.3-2.1-0.5-2.6-1c-0.5-0.3-1-1-1-1.8
					c0-0.3,0.3-0.8,0.5-1c0.3-0.3,0.5-0.5,0.8-0.8c0.3-0.3,0.8-0.3,1.3-0.3c0.8-0.3,1.5-0.3,2.3-0.3c1,0,2.8,0.3,5.4,0.5
					c2.3,0.3,5.4,0.8,8.8,1c3.6,0.3,7.7,0.8,12.7,1c3.6,0.3,7.5,0.5,11.6,0.5v-11.4l-1.5-0.3c-4.6-0.5-9.3-0.8-13.9-1.3
					c-4.4-0.5-8.5-1.3-12.1-2.1c-3.6-0.5-6.5-1.5-8.5-2.6c-2.3-1-3.4-2.3-3.4-3.6c0-1.3,1.3-2.6,3.4-3.6c2.3-1.3,5.9-2.3,10.6-3.1
					c4.6-0.8,10.3-1.5,17-2.1c2.8-0.3,5.7-0.5,8.5-0.5v-2.1c0-1.3,4.6-2.3,10.3-2.3l0,0c5.7,0,10.3,1,10.3,2.3v1.8
					c2.3,0,4.9,0,7.2,0.3c4.1,0,7.7,0.3,10.8,0.5c3.4,0.3,6.2,0.5,8.5,0.8c2.3,0.3,4.1,0.3,5.2,0.5c1.3,0.3,2.1,0.5,2.3,0.5
					c0.5,0.3,0.8,0.3,0.8,0.5c0.3,0.3,0.5,0.5,0.5,0.8c0.3,0.3,0.3,0.5,0.3,0.8c0,0.5,0,0.8-0.3,1c0,0.5-0.3,0.8-0.8,0.8
					c-0.3,0.3-0.8,0.3-1.3,0.5c-0.8,0-1.3,0-2.1,0c-1,0-2.3,0-4.4-0.3c-1.8-0.3-4.4-0.5-7.2-1c-3.1-0.3-6.7-0.5-10.8-0.8
					c-2.6,0-5.7-0.3-8.8-0.3v10.6c1.5,0.3,3.1,0.3,4.9,0.5c4.6,0.3,9.6,0.8,14.2,1.3c4.6,0.5,8.8,1,12.1,1.8
					c3.6,0.8,6.7,1.5,8.8,2.6C1672.2,1769,1673.5,1770.2,1673.5,1771.5L1673.5,1771.5z M1630.1,1776.7c2.6-0.3,4.9-0.5,7-0.8
					c2.8-0.5,4.9-1,6.5-1.5c1.5-0.8,2.3-1.5,2.3-2.3c0-1-1-1.8-3.4-2.3c-2.1-0.5-4.9-1.3-8.5-1.5c-1.3-0.3-2.6-0.5-3.9-0.5V1776.7z
					 M1609.4,1751.7c-2.3,0.3-4.1,0.3-5.9,0.8c-2.3,0.3-4.1,0.8-5.2,1.3c-1.3,0.8-1.8,1.3-1.8,2.1c0,0.8,1,1.5,3.4,2.3
					c2.3,0.5,5.2,1,8.8,1.5c0.3,0,0.5,0,0.8,0.3V1751.7z"/>
				<path class="st33" d="M1619.8,1722.5c21.9,0,42.6,1.8,59.9,4.9h52.4v26.9l0,0c0,0.3,0,0.3,0,0.3c0,17.6-50.3,32-112.3,32
					s-112.3-14.5-112.3-32c0,0,0,0,0-0.3l0,0v-26.9h52.4C1577.2,1724.3,1597.8,1722.5,1619.8,1722.5L1619.8,1722.5z"/>
				<path class="st28" d="M1623.1,1722.5c20.7,0.3,40,2.1,56.5,4.9h52.4v26.9l0,0c0,0.3,0,0.3,0,0.3c0,17.3-48.5,31.5-109,32V1722.5
					z"/>
				<path class="st29" d="M1619.8,1759.4c62,0,112.3-14.5,112.3-32c0-17.6-50.3-32-112.3-32s-112.3,14.5-112.3,32
					C1507.5,1744.9,1557.8,1759.4,1619.8,1759.4L1619.8,1759.4z"/>
				<path class="st28" d="M1619.8,1755.3c56.5,0,102.8-12.4,102.8-27.9c0-15.2-46.2-27.9-102.8-27.9s-102.8,12.7-102.8,27.9
					C1517,1742.9,1563.2,1755.3,1619.8,1755.3L1619.8,1755.3z"/>
				<path class="st33" d="M1616.9,1755.3c55.3,0,100.2-12.4,100.2-27.9c0-15.2-44.9-27.9-100.2-27.9c-55,0-99.9,12.7-99.9,27.9
					C1517,1742.9,1561.9,1755.3,1616.9,1755.3L1616.9,1755.3z"/>
				<path class="st28" d="M1673.5,1733.1c0,1.8-1.5,3.1-4.4,4.4c-2.8,1.3-7,2.6-12.1,3.4c-5.4,0.8-11.6,1.5-18.8,2.1
					c-2.6,0-5.2,0.3-8,0.3v2.3c0,1-4.6,2.1-10.3,2.1l0,0c-5.7,0-10.3-1-10.3-2.1v-2.1c-3.6,0-7.2,0-10.8-0.3
					c-4.9,0-9.3-0.3-13.2-0.5s-7.2-0.5-9.8-0.8c-2.8-0.5-4.6-0.8-5.9-1c-1.3,0-2.1-0.5-2.6-0.8c-0.5-0.5-1-1-1-1.8
					c0-0.5,0.3-0.8,0.5-1.3c0.3-0.3,0.5-0.5,0.8-0.8c0.3,0,0.8-0.3,1.3-0.3c0.8-0.3,1.5-0.3,2.3-0.3c1,0,2.8,0.3,5.4,0.5
					c2.3,0.3,5.4,0.8,8.8,1c3.6,0.5,7.7,0.8,12.7,1c3.6,0.3,7.5,0.5,11.6,0.5v-11.4l-1.5-0.3c-4.6-0.3-9.3-0.8-13.9-1.3
					c-4.4-0.5-8.5-1-12.1-1.8c-3.6-0.8-6.5-1.8-8.5-2.8c-2.3-1-3.4-2.1-3.4-3.6c0-1.3,1.3-2.6,3.4-3.6c2.3-1.3,5.9-2.1,10.6-3.1
					c4.6-0.8,10.3-1.5,17-2.1c2.8-0.3,5.7-0.3,8.5-0.5v-2.1c0-1.3,4.6-2.3,10.3-2.3l0,0c5.7,0,10.3,1,10.3,2.3v1.8
					c2.3,0,4.9,0,7.2,0.3c4.1,0,7.7,0.3,10.8,0.5c3.4,0.3,6.2,0.5,8.5,0.8c2.3,0.3,4.1,0.5,5.2,0.5c1.3,0.3,2.1,0.5,2.3,0.5
					c0.5,0.3,0.8,0.5,0.8,0.5c0.3,0.3,0.5,0.5,0.5,0.8c0.3,0.3,0.3,0.5,0.3,1c0,0.3,0,0.8-0.3,1c0,0.3-0.3,0.5-0.8,0.5
					c-0.3,0.3-0.8,0.5-1.3,0.5c-0.8,0-1.3,0.3-2.1,0.3c-1,0-2.3-0.3-4.4-0.5c-1.8-0.3-4.4-0.5-7.2-0.8c-3.1-0.3-6.7-0.8-10.8-1
					c-2.6,0-5.7-0.3-8.8-0.3v10.6c1.5,0.3,3.1,0.3,4.9,0.5c4.6,0.5,9.6,0.8,14.2,1.3c4.6,0.5,8.8,1.3,12.1,1.8
					c3.6,0.8,6.7,1.5,8.8,2.6C1672.2,1730.5,1673.5,1731.8,1673.5,1733.1L1673.5,1733.1z M1630.1,1738.2c2.6,0,4.9-0.3,7-0.8
					c2.8-0.3,4.9-0.8,6.5-1.5c1.5-0.5,2.3-1.3,2.3-2.3c0-0.8-1-1.5-3.4-2.3c-2.1-0.5-4.9-1-8.5-1.5c-1.3-0.3-2.6-0.3-3.9-0.5V1738.2
					z M1609.4,1713.2c-2.3,0.3-4.1,0.5-5.9,0.8c-2.3,0.5-4.1,0.8-5.2,1.5c-1.3,0.5-1.8,1-1.8,1.8s1,1.5,3.4,2.3
					c2.3,0.5,5.2,1.3,8.8,1.5c0.3,0.3,0.5,0.3,0.8,0.3V1713.2z"/>
				<polygon class="st12" points="1581,1715 1586.7,1734.9 1606.9,1731 1587.2,1736.7 1590.8,1757.1 1585.2,1737.2 1565,1741.1 
					1584.7,1735.4 				"/>
				<polygon class="st12" points="1619.3,1810.5 1624.9,1830.4 1645.3,1826.5 1625.4,1832.2 1629.3,1852.6 1623.4,1832.7 
					1603.2,1836.6 1623.1,1830.9 				"/>
			</g>
			<g>
				<path class="st33" d="M1387.1,1913.2c21.9,0,42.6,1.8,59.9,4.9h52.4v26.9l0,0c0,0,0,0,0,0.3c0,17.6-50.3,31.8-112.3,31.8
					c-62,0-112.3-14.2-112.3-31.8c0-0.3,0-0.3,0-0.3l0,0v-26.9h52.4C1344.5,1915.1,1365.2,1913.2,1387.1,1913.2L1387.1,1913.2z"/>
				<path class="st28" d="M1390.5,1913.2c20.7,0,40,1.8,56.5,4.9h52.4v26.9l0,0c0,0,0,0,0,0.3c0,17.3-48.5,31.2-109,31.8V1913.2z"/>
				<path class="st29" d="M1387.1,1950.2c62,0,112.3-14.5,112.3-32c0-17.8-50.3-32-112.3-32c-62,0-112.3,14.2-112.3,32
					C1274.8,1935.7,1325.2,1950.2,1387.1,1950.2L1387.1,1950.2z"/>
				<path class="st28" d="M1387.1,1946c56.5,0,102.8-12.7,102.8-27.9c0-15.5-46.2-27.9-102.8-27.9s-102.8,12.4-102.8,27.9
					C1284.4,1933.4,1330.6,1946,1387.1,1946L1387.1,1946z"/>
				<path class="st33" d="M1384.3,1946c55.3,0,100.2-12.7,100.2-27.9c0-15.5-44.9-27.9-100.2-27.9c-55,0-99.9,12.4-99.9,27.9
					C1284.4,1933.4,1329.3,1946,1384.3,1946L1384.3,1946z"/>
				<path class="st31" d="M1440.8,1923.8c0,1.5-1.5,3.1-4.4,4.4c-2.8,1.3-7,2.3-12.1,3.4c-5.4,0.8-11.6,1.5-18.8,1.8
					c-2.6,0.3-5.2,0.5-8,0.5v2.1c0,1.3-4.6,2.3-10.3,2.3l0,0c-5.7,0-10.3-1-10.3-2.3v-1.8c-3.6,0-7.2,0-10.8-0.3
					c-4.9-0.3-9.3-0.3-13.2-0.8c-3.9-0.3-7.2-0.5-9.8-0.8c-2.8-0.3-4.6-0.5-5.9-0.8c-1.3-0.3-2.1-0.5-2.6-1c-0.5-0.3-1-1-1-1.8
					c0-0.3,0.3-0.8,0.5-1c0.3-0.3,0.5-0.5,0.8-0.8c0.3-0.3,0.8-0.3,1.3-0.5c0.8,0,1.5,0,2.3,0c1,0,2.8,0.3,5.4,0.5
					c2.3,0.3,5.4,0.5,8.8,1c3.6,0.3,7.7,0.8,12.7,1c3.6,0.3,7.5,0.5,11.6,0.5v-11.4l-1.5-0.3c-4.6-0.5-9.3-0.8-13.9-1.3
					c-4.4-0.5-8.5-1.3-12.1-2.1c-3.6-0.8-6.5-1.5-8.5-2.6c-2.3-1-3.4-2.3-3.4-3.6c0-1.3,1.3-2.6,3.4-3.6c2.3-1.3,5.9-2.3,10.6-3.1
					c4.6-1,10.3-1.5,17-2.1c2.8-0.3,5.7-0.5,8.5-0.5v-2.1c0-1.3,4.6-2.3,10.3-2.3l0,0c5.7,0,10.3,1,10.3,2.3v1.8c2.3,0,4.9,0,7.2,0
					c4.1,0.3,7.7,0.5,10.8,0.8c3.4,0,6.2,0.3,8.5,0.5c2.3,0.3,4.1,0.5,5.2,0.8c1.3,0.3,2.1,0.5,2.3,0.5c0.5,0.3,0.8,0.3,0.8,0.5
					c0.3,0.3,0.5,0.3,0.5,0.5c0.3,0.5,0.3,0.8,0.3,1c0,0.5,0,0.8-0.3,1c0,0.3-0.3,0.5-0.8,0.8c-0.3,0.3-0.8,0.3-1.3,0.5
					c-0.8,0-1.3,0-2.1,0c-1,0-2.3,0-4.4-0.3c-1.8-0.3-4.4-0.5-7.2-1c-3.1-0.3-6.7-0.5-10.8-0.8c-2.6-0.3-5.7-0.3-8.8-0.3v10.6
					c1.5,0.3,3.1,0.3,4.9,0.5c4.6,0.3,9.6,0.8,14.2,1.3c4.6,0.5,8.8,1,12.1,1.8c3.6,0.8,6.7,1.5,8.8,2.6
					C1439.5,1921.3,1440.8,1922.5,1440.8,1923.8L1440.8,1923.8z M1397.5,1929c2.6-0.3,4.9-0.5,7-0.8c2.8-0.5,4.9-1,6.5-1.5
					c1.5-0.8,2.3-1.5,2.3-2.3c0-1-1-1.8-3.4-2.3c-2.1-0.8-4.9-1.3-8.5-1.8c-1.3,0-2.6-0.3-3.9-0.3V1929z M1376.8,1904
					c-2.3,0-4.1,0.3-5.9,0.8c-2.3,0.3-4.1,0.8-5.2,1.3c-1.3,0.5-1.8,1.3-1.8,1.8c0,1,1,1.8,3.4,2.6c2.3,0.5,5.2,1,8.8,1.5
					c0.3,0,0.5,0,0.8,0V1904z"/>
				<path class="st33" d="M1387.1,1875.3c21.9,0,42.6,1.8,59.9,4.9h52.4v26.9l0,0c0,0,0,0,0,0.3c0,17.6-50.3,32-112.3,32
					c-62,0-112.3-14.5-112.3-32c0-0.3,0-0.3,0-0.3l0,0v-26.9h52.4C1344.5,1877.1,1365.2,1875.3,1387.1,1875.3L1387.1,1875.3z"/>
				<path class="st28" d="M1390.5,1875.3c20.7,0,40,1.8,56.5,4.9h52.4v26.9l0,0c0,0,0,0,0,0.3c0,17.3-48.5,31.5-109,31.8V1875.3z"/>
				<path class="st29" d="M1387.1,1912.2c62,0,112.3-14.5,112.3-32c0-17.6-50.3-32-112.3-32c-62,0-112.3,14.5-112.3,32
					C1274.8,1897.8,1325.2,1912.2,1387.1,1912.2L1387.1,1912.2z"/>
				<path class="st28" d="M1387.1,1908.1c56.5,0,102.8-12.7,102.8-27.9c0-15.5-46.2-27.9-102.8-27.9s-102.8,12.4-102.8,27.9
					C1284.4,1895.4,1330.6,1908.1,1387.1,1908.1L1387.1,1908.1z"/>
				<path class="st33" d="M1384.3,1908.1c55.3,0,100.2-12.7,100.2-27.9c0-15.5-44.9-27.9-100.2-27.9c-55,0-99.9,12.4-99.9,27.9
					C1284.4,1895.4,1329.3,1908.1,1384.3,1908.1L1384.3,1908.1z"/>
				<path class="st31" d="M1440.8,1885.9c0,1.5-1.5,3.1-4.4,4.4c-2.8,1.3-7,2.3-12.1,3.4c-5.4,0.8-11.6,1.5-18.8,2.1
					c-2.6,0-5.2,0.3-8,0.3v2.1c0,1.3-4.6,2.3-10.3,2.3l0,0c-5.7,0-10.3-1-10.3-2.3v-1.8c-3.6,0-7.2,0-10.8-0.3
					c-4.9,0-9.3-0.3-13.2-0.5c-3.9-0.3-7.2-0.8-9.8-1c-2.8-0.3-4.6-0.5-5.9-0.8c-1.3-0.3-2.1-0.5-2.6-1c-0.5-0.3-1-1-1-1.8
					c0-0.3,0.3-0.8,0.5-1c0.3-0.3,0.5-0.5,0.8-0.8c0.3-0.3,0.8-0.3,1.3-0.3c0.8-0.3,1.5-0.3,2.3-0.3c1,0,2.8,0.3,5.4,0.5
					c2.3,0.3,5.4,0.8,8.8,1c3.6,0.3,7.7,0.8,12.7,1c3.6,0.3,7.5,0.5,11.6,0.5v-11.4l-1.5-0.3c-4.6-0.5-9.3-0.8-13.9-1.3
					c-4.4-0.5-8.5-1.3-12.1-2.1c-3.6-0.5-6.5-1.5-8.5-2.6c-2.3-1-3.4-2.3-3.4-3.6c0-1.3,1.3-2.6,3.4-3.6c2.3-1.3,5.9-2.3,10.6-3.1
					c4.6-0.8,10.3-1.5,17-2.1c2.8-0.3,5.7-0.5,8.5-0.5v-2.1c0-1.3,4.6-2.3,10.3-2.3l0,0c5.7,0,10.3,1,10.3,2.3v1.8
					c2.3,0,4.9,0,7.2,0.3c4.1,0,7.7,0.3,10.8,0.5c3.4,0.3,6.2,0.5,8.5,0.8c2.3,0.3,4.1,0.3,5.2,0.5c1.3,0.3,2.1,0.5,2.3,0.5
					c0.5,0.3,0.8,0.3,0.8,0.5c0.3,0.3,0.5,0.5,0.5,0.8c0.3,0.3,0.3,0.5,0.3,0.8c0,0.5,0,0.8-0.3,1c0,0.5-0.3,0.8-0.8,0.8
					c-0.3,0.3-0.8,0.3-1.3,0.5c-0.8,0-1.3,0-2.1,0c-1,0-2.3,0-4.4-0.3c-1.8-0.3-4.4-0.5-7.2-1c-3.1-0.3-6.7-0.5-10.8-0.8
					c-2.6,0-5.7-0.3-8.8-0.3v10.6c1.5,0.3,3.1,0.3,4.9,0.5c4.6,0.3,9.6,0.8,14.2,1.3c4.6,0.5,8.8,1,12.1,1.8
					c3.6,0.8,6.7,1.5,8.8,2.6C1439.5,1883.3,1440.8,1884.6,1440.8,1885.9L1440.8,1885.9z M1397.5,1891c2.6-0.3,4.9-0.5,7-0.8
					c2.8-0.5,4.9-1,6.5-1.5c1.5-0.8,2.3-1.5,2.3-2.3c0-1-1-1.8-3.4-2.3c-2.1-0.5-4.9-1.3-8.5-1.5c-1.3-0.3-2.6-0.5-3.9-0.5V1891z
					 M1376.8,1866c-2.3,0.3-4.1,0.3-5.9,0.8c-2.3,0.3-4.1,0.8-5.2,1.3c-1.3,0.8-1.8,1.3-1.8,2.1c0,0.8,1,1.5,3.4,2.3
					c2.3,0.5,5.2,1,8.8,1.5c0.3,0,0.5,0,0.8,0.3V1866z"/>
				<path class="st33" d="M1387.1,1836.8c21.9,0,42.6,1.8,59.9,4.9h52.4v26.9l0,0c0,0.3,0,0.3,0,0.3c0,17.6-50.3,32-112.3,32
					c-62,0-112.3-14.5-112.3-32c0,0,0,0,0-0.3l0,0v-26.9h52.4C1344.5,1838.6,1365.2,1836.8,1387.1,1836.8L1387.1,1836.8z"/>
				<path class="st28" d="M1390.5,1836.8c20.7,0.3,40,2.1,56.5,4.9h52.4v26.9l0,0c0,0.3,0,0.3,0,0.3c0,17.3-48.5,31.5-109,32V1836.8
					z"/>
				<path class="st29" d="M1387.1,1873.7c62,0,112.3-14.5,112.3-32c0-17.6-50.3-32-112.3-32c-62,0-112.3,14.5-112.3,32
					C1274.8,1859.3,1325.2,1873.7,1387.1,1873.7L1387.1,1873.7z"/>
				<path class="st28" d="M1387.1,1869.6c56.5,0,102.8-12.4,102.8-27.9c0-15.2-46.2-27.9-102.8-27.9s-102.8,12.7-102.8,27.9
					C1284.4,1857.2,1330.6,1869.6,1387.1,1869.6L1387.1,1869.6z"/>
				<path class="st33" d="M1384.3,1869.6c55.3,0,100.2-12.4,100.2-27.9c0-15.2-44.9-27.9-100.2-27.9c-55,0-99.9,12.7-99.9,27.9
					C1284.4,1857.2,1329.3,1869.6,1384.3,1869.6L1384.3,1869.6z"/>
				<path class="st28" d="M1440.8,1847.4c0,1.8-1.5,3.1-4.4,4.4c-2.8,1.3-7,2.6-12.1,3.4c-5.4,0.8-11.6,1.5-18.8,2.1
					c-2.6,0-5.2,0.3-8,0.3v2.3c0,1-4.6,2.1-10.3,2.1l0,0c-5.7,0-10.3-1-10.3-2.1v-2.1c-3.6,0-7.2,0-10.8-0.3
					c-4.9,0-9.3-0.3-13.2-0.5c-3.9-0.3-7.2-0.5-9.8-0.8c-2.8-0.5-4.6-0.8-5.9-1c-1.3,0-2.1-0.5-2.6-0.8c-0.5-0.5-1-1-1-1.8
					c0-0.5,0.3-0.8,0.5-1.3c0.3-0.3,0.5-0.5,0.8-0.8c0.3,0,0.8-0.3,1.3-0.3c0.8-0.3,1.5-0.3,2.3-0.3c1,0,2.8,0.3,5.4,0.5
					c2.3,0.3,5.4,0.8,8.8,1c3.6,0.5,7.7,0.8,12.7,1c3.6,0.3,7.5,0.5,11.6,0.5v-11.4l-1.5-0.3c-4.6-0.3-9.3-0.8-13.9-1.3
					c-4.4-0.5-8.5-1-12.1-1.8c-3.6-0.8-6.5-1.8-8.5-2.8c-2.3-1-3.4-2.1-3.4-3.6c0-1.3,1.3-2.6,3.4-3.6c2.3-1.3,5.9-2.1,10.6-3.1
					c4.6-0.8,10.3-1.5,17-2.1c2.8-0.3,5.7-0.3,8.5-0.5v-2.1c0-1.3,4.6-2.3,10.3-2.3l0,0c5.7,0,10.3,1,10.3,2.3v1.8
					c2.3,0,4.9,0,7.2,0.3c4.1,0,7.7,0.3,10.8,0.5c3.4,0.3,6.2,0.5,8.5,0.8c2.3,0.3,4.1,0.5,5.2,0.5c1.3,0.3,2.1,0.5,2.3,0.5
					c0.5,0.3,0.8,0.5,0.8,0.5c0.3,0.3,0.5,0.5,0.5,0.8c0.3,0.3,0.3,0.5,0.3,1c0,0.3,0,0.8-0.3,1c0,0.3-0.3,0.5-0.8,0.5
					c-0.3,0.3-0.8,0.5-1.3,0.5c-0.8,0-1.3,0.3-2.1,0.3c-1,0-2.3-0.3-4.4-0.5c-1.8-0.3-4.4-0.5-7.2-0.8c-3.1-0.3-6.7-0.8-10.8-1
					c-2.6,0-5.7-0.3-8.8-0.3v10.6c1.5,0.3,3.1,0.3,4.9,0.5c4.6,0.5,9.6,0.8,14.2,1.3c4.6,0.5,8.8,1.3,12.1,1.8
					c3.6,0.8,6.7,1.5,8.8,2.6C1439.5,1844.8,1440.8,1846.1,1440.8,1847.4L1440.8,1847.4z M1397.5,1852.6c2.6,0,4.9-0.3,7-0.8
					c2.8-0.3,4.9-0.8,6.5-1.5c1.5-0.5,2.3-1.3,2.3-2.3c0-0.8-1-1.5-3.4-2.3c-2.1-0.5-4.9-1-8.5-1.5c-1.3-0.3-2.6-0.3-3.9-0.5V1852.6
					z M1376.8,1827.5c-2.3,0.3-4.1,0.5-5.9,0.8c-2.3,0.5-4.1,0.8-5.2,1.5c-1.3,0.5-1.8,1-1.8,1.8c0,0.8,1,1.5,3.4,2.3
					c2.3,0.5,5.2,1.3,8.8,1.5c0.3,0.3,0.5,0.3,0.8,0.3V1827.5z"/>
				<polygon class="st12" points="1348.4,1829.3 1354.1,1849.2 1374.2,1845.3 1354.6,1851 1358.2,1871.4 1352.5,1851.5 
					1332.4,1855.4 1352,1849.7 				"/>
				<polygon class="st12" points="1386.6,1924.9 1392.3,1944.7 1412.7,1940.9 1392.8,1946.6 1396.7,1967 1390.8,1947.1 
					1370.6,1950.9 1390.5,1945.3 				"/>
			</g>
			<g>
				<path class="st29" d="M1607.1,1454.7c71-4.9,132.7,48.8,137.9,119.8c4.9,71.3-48.8,133-119.8,137.9
					c-71.3,5.2-133-48.5-137.9-119.8C1482.2,1521.6,1535.9,1459.9,1607.1,1454.7L1607.1,1454.7z"/>
				<path class="st28" d="M1607.6,1463.5c66.4-4.6,123.9,45.4,128.6,111.8c4.6,66.1-45.4,123.7-111.8,128.3
					c-66.4,4.6-123.7-45.2-128.3-111.5C1491.4,1525.7,1541.3,1468.1,1607.6,1463.5L1607.6,1463.5z"/>
				<path class="st33" d="M1608.1,1471.5c64-4.4,119.8,43.9,124.2,107.9c4.6,64.3-43.9,119.8-107.9,124.2
					c-64,4.6-119.5-43.9-124.2-107.9C1495.8,1531.6,1544.1,1476.1,1608.1,1471.5L1608.1,1471.5z"/>
				<path class="st28" d="M1670.1,1619.4c0.3,6.2-0.5,11.9-2.6,16.8c-2.1,4.9-5.2,9.3-9.3,12.9c-4.1,3.4-9,6.5-15,8.5
					c-2.3,0.8-4.4,1.3-6.7,1.8l0.5,8c0.5,4.6-3.1,8.8-7.7,9l0,0c-4.9,0.3-8.8-3.4-9.3-8l-0.5-6.7c-3.1,0-6.2,0-9-0.3
					c-4.1-0.5-7.7-1-11.1-1.8c-3.4-0.8-5.9-1.5-8.3-2.6c-2.3-1-4.1-1.8-5.2-2.6c-1-0.8-2.1-2.1-2.6-3.6c-0.5-1.5-1-3.6-1-6.5
					c-0.3-1.8-0.3-3.1,0-4.4c0-1,0.3-2.1,0.3-2.8c0.3-0.8,0.8-1.3,1.3-1.5c0.5-0.3,1-0.5,1.5-0.5c1-0.3,2.6,0.3,4.6,1.3
					c2.1,1.3,4.6,2.3,7.7,3.6c3.1,1,6.7,2.1,10.6,3.1c3.1,0.8,6.5,1,10.1,1l-3.1-42.3l-1.3-0.5c-4.1-1.3-8-2.6-11.9-4.4
					c-3.9-1.5-7.5-3.6-10.6-6.2c-3.1-2.6-5.9-5.7-8-9.6c-2.1-3.6-3.1-8-3.6-13.4c-0.3-4.6,0.3-9.3,1.8-13.7c1.8-4.4,4.4-8.5,8-11.9
					c3.6-3.6,8.3-6.5,13.7-9c2.3-0.8,4.4-1.5,7-2.3l-0.5-7.7c-0.3-4.6,3.1-8.8,8-9l0,0c4.6-0.5,8.8,3.1,9,7.7l0.5,7
					c2.1,0,4.1,0,6.2,0.3c3.4,0.3,6.2,0.8,9,1.5c2.8,0.5,5.2,1.3,7.2,2.1c1.8,1,3.4,1.5,4.4,2.3c1,0.8,1.8,1.3,2.1,1.8
					c0.5,0.5,0.8,1,1,1.8c0,0.5,0.3,1.3,0.5,2.3c0.3,1,0.3,2.1,0.5,3.6c0,1.5,0,2.8,0,3.9c0,1-0.3,2.1-0.5,2.8
					c-0.3,0.8-0.5,1.3-1,1.5c-0.5,0.3-1,0.5-1.5,0.5c-0.8,0-2.1-0.3-3.9-1.3c-1.5-0.8-3.6-1.5-6.2-2.6c-2.8-1-5.7-1.8-9.3-2.6
					c-2.1-0.5-4.6-0.8-7.5-0.8l2.8,39.5c1.5,0.5,2.8,1,4.1,1.3c4.1,1.3,8.3,2.8,12.1,4.4c4.1,1.5,7.7,3.6,10.8,5.9
					c3.1,2.6,5.7,5.4,7.7,9C1668.3,1609.9,1669.6,1614.3,1670.1,1619.4L1670.1,1619.4z M1635.3,1641.1c2.3-0.8,4.1-1.8,5.7-3.1
					c2.3-1.8,3.9-3.9,4.9-6.5c1.3-2.6,1.5-5.4,1.3-8.8c-0.3-3.4-1.3-6.2-3.4-8.3c-1.8-2.1-4.4-4.1-7.5-5.7c-1-0.5-2.1-1-3.4-1.5
					L1635.3,1641.1z M1611.8,1549.2c-1.8,0.8-3.6,1.8-4.9,3.1c-1.8,1.5-3.1,3.6-3.9,5.7c-0.8,2.3-1,4.6-1,7c0.3,3.6,1.5,6.5,3.4,8.5
					c2.1,2.3,4.6,4.1,7.7,5.7c0.3,0.3,0.5,0.3,0.8,0.5L1611.8,1549.2z"/>
				<polygon class="st12" points="1595.8,1513.6 1594.2,1537.8 1618,1543.8 1593.7,1542.2 1587.8,1566 1589.3,1541.7 1565.5,1535.8 
					1589.8,1537.3 				"/>
			</g>
		</g>
		<g>
			<polygon id="XMLID_87_" class="st15" points="421.7,1311.4 302.8,1331.6 307.7,1892.7 389.7,1892.7 426.1,1555.7 453.9,1892.7 
				530.7,1891.5 536.3,1291.4 426.5,1265.2 			"/>
			<path id="XMLID_86_" class="st34" d="M659.6,1190.1l29.7-39c12.6,3,22.5,6.1,35.6,6.1c14.3-9.9,38.4-30.2,43.9-20.3
				c-1.6,5.4-19.2,19.6-20.3,27.5c8.2,11,50.4,3,90.5-3.9c12.6,0-6.6,26.4-67.4,38.4C748.5,1203.8,707.3,1187.4,659.6,1190.1
				L659.6,1190.1z"/>
			<path id="XMLID_85_" class="st12" d="M327.4,890.4c13.6-4.9,27-10.1,38-16.8c22,3.2,40.7,4.5,62.7,7.7
				c17.1-0.8,42.2,12.8,56.2,25.1c6.7,7.9,13,18.4,18.9,30.4V1320c-51.1,10.1-101.7,13.5-175.8,4.1L327.4,890.4L327.4,890.4z"/>
			<path id="XMLID_84_" class="st13" d="M401.1,885.6l-51.9-12.2l-21.4,8.3c7.4,18.3,14.8,36.6,22.2,54.9
				C359.6,907.1,378.8,898.3,401.1,885.6L401.1,885.6z"/>
			<path id="XMLID_83_" class="st11" d="M387.4,899.4c20.6,117.2,31.7,234.8,29.4,355.9l19.5,19.7c9.7-11.5,19.5-22.9,29.3-34.4
				c-4.3-120.6-21.6-238.1-63-342.4L387.4,899.4L387.4,899.4z"/>
			<path id="XMLID_80_" class="st17" d="M337.9,877.9c62.6,149.3,71.2,353.2,63.7,531.4c-38.1-1.3-82.3-7.6-138.3-20.8l28.1-123.9
				c-33.6-43.5-94.1-100.8-100.7-130.5c-9.9-11.5,46.3-160.2,81-218C285.9,898.5,312.5,889,337.9,877.9L337.9,877.9z M294.8,1091.1
				l-13.2,21.5c7.6,17,13.2,36.3,23.1,51.2C303.9,1139.9,298.1,1115.4,294.8,1091.1L294.8,1091.1z"/>
			<path id="XMLID_79_" class="st13" d="M680.5,1141.9l13.7,4.3l-8.2,54.7c0,0-17.7-6.5-18.2-1.7
				C667.3,1203.9,680.2,1144.1,680.5,1141.9L680.5,1141.9z"/>
			<path id="XMLID_78_" class="st13" d="M408.6,876.9l-11.4,12.6c16.1-0.6,26.2,9.1,31,18l12,12.9l9.3-36.1L408.6,876.9z"/>
			<path id="XMLID_77_" class="st17" d="M416.6,878c47.7,167.3,71.3,351,78.3,524.4c16.1-3.6,32.1-8,48.8-13l-14.8-201.5l147,16.5
				l8.2-61.2l-128.8-42.9c-23.7-66.7-43-160.3-71.1-199.9C474,889.6,436.9,879.6,416.6,878L416.6,878z"/>
			<polygon id="XMLID_76_" class="st11" points="397.8,918.4 404.1,912.1 410.3,905.7 406.3,897.8 402.1,889.9 393.4,891.4 
				384.6,892.8 383.3,901.7 381.9,910.5 389.9,914.5 			"/>
			<path id="XMLID_65_" class="st34" d="M306.3,1265.4l30.3-25.9c5.8,10.8,11.7,21.6,17.6,32.3c22.4,14.8,32.9,38.9,29.5,57.2
				l-55.3,5.3c-3-15.2-8.8-30.7-6.1-47.7L306.3,1265.4z"/>
			
				<rect id="XMLID_64_" x="305.3" y="1308.1" transform="matrix(0.1084 -0.9941 0.9941 0.1084 -1037.2628 1546.3539)" class="st17" width="76.2" height="86.7"/>
			<g id="XMLID_63_">
				<polygon class="st35" points="391.2,1325.3 311.6,1316.8 312.1,1312.3 387.1,1320.3 387.3,1318.8 302.3,1310.3 302.8,1305.8 
					392.2,1314.8 				"/>
			</g>
			<polygon id="XMLID_11_" class="st13" points="292.8,1261.3 338.6,1226 345.4,1236 299.6,1270.5 			"/>
			<g id="XMLID_10_">
				
					<rect x="261.7" y="1074.6" transform="matrix(0.5459 -0.8378 0.8378 0.5459 -762.7903 744.4978)" class="st35" width="87.6" height="2.7"/>
			</g>
			<g id="XMLID_9_">
				<path class="st35" d="M528,1188.8c-3.1-66.4-14.6-131.3-26.1-192l2.7-0.5c11.5,60.9,23,125.8,26.1,192.4L528,1188.8z"/>
			</g>
			<g id="XMLID_8_">
				<path class="st17" d="M333.9,880.2c-4.9,26.7-6.5,63.4-6.5,90.2l22.3,3.6c-4.5,8.1-14,19.4-18.5,27.5l56.8,106.8l6.4,13.5
					c-4.7-44.6-14.3-101.8-25.6-150.5c-8.4-32.8-18.7-63.2-30.9-92.4C336.5,879.4,335.2,879.6,333.9,880.2L333.9,880.2z"/>
				<path class="st35" d="M397.3,1132.1l-10.9-23l-57.2-107.6l0.5-0.9c2.3-4.1,5.9-9.1,9.3-13.9c2.8-3.9,5.7-7.8,7.8-11.3l-21.2-3.4
					v-1.5c0-12.9,0.5-57.4,6.5-90.6l0.2-0.9l0.9-0.4c0.9-0.4,1.7-0.7,2.6-0.9c0.5-0.2,1-0.3,1.6-0.5l1.6-0.6l0.7,1.6
					c12.5,29.9,22.6,60.2,31,92.7c11,47.4,20.8,105.1,25.6,150.8L397.3,1132.1z M333.3,1001.5l56.3,106l1.8,3.9
					c-5.1-43.6-14.3-96-24.4-139.6c-8.1-31.7-18-61.4-30.2-90.6h-0.1c-0.4,0.1-0.9,0.3-1.3,0.4c-5.6,31.6-6.2,73.1-6.3,87.4
					l23.3,3.7l-1.2,2.2c-2.3,4.1-5.9,9.1-9.3,13.9C338.8,993.2,335.5,997.7,333.3,1001.5z"/>
			</g>
			<g id="XMLID_7_">
				<path class="st17" d="M420.2,879.4l39.8,59.5l-6.1,17.6l9.7,5.8l1.1,128.3c-12.1-74-27.9-141.2-47.9-211.3
					C418,879.3,419,879.2,420.2,879.4L420.2,879.4z"/>
				<path class="st35" d="M462.9,1090.9c-11.3-69.1-26.5-136.1-47.8-211.1l-0.7-2.4l2.5,0.1c0.5,0,0.9,0,1.3,0c0.7,0,1.4,0,2.2,0.1
					l0.8,0.1l40.7,61l-5.9,17l9.3,5.5l1.1,129.4L462.9,1090.9z M419.2,881.1c18.7,66.2,32.7,126.2,43.5,187l-0.9-104.9l-10-6
					l6.3-18.1L419.2,881.1L419.2,881.1z"/>
			</g>
			<path id="XMLID_6_" class="st20" d="M453.7,1888.9l77.4-1.3c34.6,34.3,108.1,8.4,97.3,61.4l-120.4-2.4l-16.8-10.6l-0.4,11.9
				l-41.4,1C448.6,1930.2,448.9,1909.6,453.7,1888.9L453.7,1888.9z"/>
			<path id="XMLID_2_" class="st22" d="M309.1,1893.2l77.5-1.2c34.6,31.9,108.1,7.8,97.2,57.1l-120.4-2.2l-16.9-9.8l-0.3,11.1
				l-41.4,1C304,1931.5,304.4,1912.4,309.1,1893.2L309.1,1893.2z"/>
			<path id="XMLID_5_" class="st36" d="M403.5,825.5l-57.3,1.6l2.5,49.5c26.4,20.9,49.4,20.3,62.8,7.1L403.5,825.5z"/>
			<path id="XMLID_4_" class="st37" d="M309.4,727.9c38.3-10.1,76.8-20.2,115.2-30.3c16.3,21.2,31,118.9,14.1,146
				c-20.8,34.2-72.1,21.7-89.7-4.3C331.4,815.7,305.5,753,309.4,727.9L309.4,727.9z"/>
			<path id="XMLID_3_" class="st15" d="M351.3,747.1c20.2-34,62.3-2.6,82.4-11.1c14.7-14.3,30.3-54.1,3.8-89.2
				c-13.9-21.4-37.9,10.1-57.3,12.1c-15.5-1-26.2-17.9-46.3-3l-22.5,25.6c-12.5-5.5-24.2,23.4-24.6,34.4
				c-6.6,33.6,27.7,63.7,46.1,95.7C348.9,807.8,346.2,751.3,351.3,747.1L351.3,747.1z"/>
			<path id="XMLID_1_" class="st37" d="M343.3,796.1c21.8-9.1,19.6-18.7,4.6-31.6c-5-6.6-14.8-11.3-19.7-2.2
				C324.9,771,336.7,788.4,343.3,796.1L343.3,796.1z"/>
		</g>
	</g>
</g>
</svg>
