<?xml version="1.0" encoding="utf-8"?>
<!-- Generator: Adobe Illustrator 24.0.1, SVG Export Plug-In . SVG Version: 6.00 Build 0)  -->
<svg version="1.1" id="Illustration" xmlns="http://www.w3.org/2000/svg" xmlns:xlink="http://www.w3.org/1999/xlink" x="0px"
	 y="0px" viewBox="0 0 2800 1955" style="enable-background:new 0 0 2800 1955;" xml:space="preserve">
<style type="text/css">
	.st0{display:none;}
	.st1{display:none;fill-rule:evenodd;clip-rule:evenodd;fill:#FFFFFF;}
	.st2{fill-rule:evenodd;clip-rule:evenodd;fill:#DFE6FF;}
	.st3{fill-rule:evenodd;clip-rule:evenodd;fill:#D5F0FF;}
	.st4{fill-rule:evenodd;clip-rule:evenodd;fill:#FFFFFF;}
	.st5{fill-rule:evenodd;clip-rule:evenodd;fill:#FFAA81;}
	.st6{fill-rule:evenodd;clip-rule:evenodd;fill:#6767FD;}
	.st7{fill-rule:evenodd;clip-rule:evenodd;fill:#FF9866;}
	.st8{fill-rule:evenodd;clip-rule:evenodd;fill:#060352;}
	.st9{fill-rule:evenodd;clip-rule:evenodd;fill:#0643A3;}
	.st10{fill-rule:evenodd;clip-rule:evenodd;fill:#FBFFA4;}
	.st11{fill-rule:evenodd;clip-rule:evenodd;fill:#2C7EFE;}
	.st12{fill-rule:evenodd;clip-rule:evenodd;fill:#38C551;}
	.st13{fill-rule:evenodd;clip-rule:evenodd;fill:#BE96F8;}
	.st14{fill-rule:evenodd;clip-rule:evenodd;fill:#61EA75;}
	.st15{fill-rule:evenodd;clip-rule:evenodd;fill:#84B2FE;}
	.st16{fill:#FFFFFF;}
	.st17{fill-rule:evenodd;clip-rule:evenodd;fill:#DFCFFD;}
	.st18{fill:#84B2FE;}
	.st19{fill-rule:evenodd;clip-rule:evenodd;fill:#CCCCFE;}
	.st20{fill-rule:evenodd;clip-rule:evenodd;fill:#9999FE;}
	.st21{fill-rule:evenodd;clip-rule:evenodd;fill:#6666CB;}
	.st22{fill-rule:evenodd;clip-rule:evenodd;fill:#F49EF0;}
	.st23{fill-rule:evenodd;clip-rule:evenodd;fill:#8183F1;}
	.st24{fill-rule:evenodd;clip-rule:evenodd;fill:#FFBB9B;}
</style>
<g id="Template_1_" class="st0">
</g>
<g>
	<rect class="st1" width="2800" height="2000"/>
	<g>
		<path class="st2" d="M1445,1955c610.5,0,1108.4-12.7,1108.4-28.5c0-15.7-498-28.4-1108.4-28.4c-610.6,0-1108.6,12.7-1108.6,28.4
			C336.4,1942.3,834.4,1955,1445,1955L1445,1955z"/>
		<path class="st3" d="M2429.8,479.8C2261.6,193.1,1778.6-1.9,1217.9,19.1C530.9,44.9-12.3,385.4,4.6,779.5
			C12.9,972,153.1,1141.7,374.3,1262c168.2,286.5,651.2,481.7,1211.9,460.5c687.2-25.8,1230.4-366.2,1213.4-760.4
			C2791.3,769.8,2651,600.1,2429.8,479.8L2429.8,479.8z"/>
		<path class="st4" d="M1843.7,757.9c23.6,0,45.8,5.4,65.4,15.1c12.5-95,93.9-168.5,192.4-168.5c107.1,0,193.9,87,193.9,194
			c0,1.2,0,2.3,0,3.5c35.8,5.4,66.4,26,85.6,54.8c22.3-20.4,52.2-32.9,84.9-32.9c69.5,0,125.8,56.3,125.8,125.8
			c0,32.9-12.5,62.8-33.2,85.2H1767c-43.3-26-72.3-73.5-72.3-127.7C1694.6,824.6,1761.4,757.9,1843.7,757.9L1843.7,757.9z"/>
		<g>
			<path class="st5" d="M1326.2,1863.3l-15.6-0.2l-4.2,23.4l3.8,0.8l-2.6,7.4l2.9,9.4l46.4,22.8c-14.9-12.7-33.4-26.1-35.5-39.9
				L1326.2,1863.3z"/>
			<path class="st6" d="M1306.4,1886.6c1.5-3.3,2.1-2.9,5.9,1.2c5.1,29.9,65.2,36.8,54.7,47.1l-37.7-7.7
				c-13.4-5.7-16-15.7-18.4-20.8l-3.8,16.8c-1.5-0.3-3-0.5-4.5-0.8C1303.9,1910.4,1301.4,1898.5,1306.4,1886.6L1306.4,1886.6z"/>
			<path class="st5" d="M1427.2,1862.7l-15.3,2.6v23.9h3.8l-1.2,7.7l4.7,8.8l49.7,14c-16.9-9.8-37.6-19.6-42.3-32.8L1427.2,1862.7z"
				/>
			<path class="st6" d="M1412,1889.1c0.9-3.6,1.7-3.3,6,0c10.4,28.5,70.8,24.6,62.2,36.5l-38.5-0.8c-14.2-3.3-18.6-12.5-21.9-17.2
				l-0.6,17.2c-1.5,0-3.2,0-4.7,0C1413.6,1913,1409.3,1901.8,1412,1889.1L1412,1889.1z"/>
			<path class="st7" d="M1226.1,1426.8c-4.2-3.5-1.7-17.1-5.7-16.2c-4.1,1.2-1.2,10.6-2.9,10.9c-5.6,3-15.7-11.5-19.9-8.6
				c-10.7,7.2,1.8,25.1,24.3,26.7l6.5-7.5C1229,1431.2,1230.6,1431,1226.1,1426.8L1226.1,1426.8z"/>
			<path class="st7" d="M1509.7,1406c3.8-3.5,0.9-15.9,4.7-15.1c3.8,0.9,1.5,9.7,3,10c5.3,2.4,14-11.2,18-8.6
				c10.1,6.2-0.8,23-21.3,25.2l-6.3-6.5C1507.3,1410,1505.7,1410,1509.7,1406L1509.7,1406z"/>
			<path class="st8" d="M1397.8,1445.2c3.5-19.3,7.2-42.7-13.4-39.3c-8.8,1.5-15.6-14.5-34.3-9.1c-3.9,1.2-10.9,6.9-14,14.6
				c-1.7,4.4-14.5,3.6-14.2,17.5c0.2,5.7-3.3,5.3,5.3,23.3c6.3,13.3-2.9,36.8-2,46.5c1.7,15.4-5.1,15.9-2.9,29
				c2.4,17.4,21.6,11.9,37-3c4.8-4.5,13.4-5.7,20.1-4.5c3.9,0.8,16-1.7,14.5-10.4c-1.4-7.2,19.2,6.3,10.9-22.2
				c-2.3-7.7-6.5,5.4-10.7-19C1392.5,1460.5,1395.2,1464.8,1397.8,1445.2L1397.8,1445.2z"/>
			<polygon class="st9" points="1424.1,1646.6 1325.9,1647.5 1305.2,1878.9 1337.2,1880.7 1377.5,1709.4 1402.2,1881.3 
				1434.3,1878.9 			"/>
			<path class="st10" d="M1519.8,1422.7c-0.3-5.3-3.2-17.8-12.4-18.6c-34.4,24.5-65.4,61-101.6,87.7c-13.6-3.9-43-1.4-58.1,3
				c-41.4-21.4-79.7-49.1-120.5-68.1c-5.7,2.7-9.8,13.4-9.8,18.7c40.2,25.5,85.2,58.7,116,85.8c-5.3,44.7-9.2,78.1-14.5,122.8
				c35.2,11.9,78.5,9.8,110.4-2.4c-5.6-43.9-9.5-74.4-15.1-118.4C1450,1497.5,1484.6,1454.4,1519.8,1422.7L1519.8,1422.7z"/>
			<path class="st7" d="M1382.7,1473.7l-21.3,2.6l2.7,18.4c10.6,6.8,19,5.7,23.6,0.3L1382.7,1473.7z"/>
			<path class="st5" d="M1344,1440.8c14-5.1,27.9-10.3,41.8-15.4c6.8,7.2,15.9,43,10.6,53.8c-6.5,13.6-26,10.7-33.5,1.7
				C1355.5,1472.7,1343.6,1450.3,1344,1440.8L1344,1440.8z"/>
			<path class="st8" d="M1385.1,1419.8c-0.5,3.6,9.1,10.6-4.7,13c-8.3,1.4-2.6-3.6-11.2,5.3c-5.6,5.7-16-2.6-16.5,11.3
				c-0.2,4.8,1.1,10.3-0.3,14.9c-0.8,2.4-3.3,15.7-8.3,6.2c-5.6-10.3-8.2-7.7-8.6-23.4c0-3.2,4.1-13.4,6.9-16.2
				c5.9-5.6,11.2-7.2,19.3-8.9c3.2-0.8,21.9-6,23.1-3.5C1385.1,1418.9,1385.1,1419.7,1385.1,1419.8L1385.1,1419.8z"/>
			<path class="st5" d="M1354.9,1468.2c7.9-5.7,6.2-9.4-1.2-13.1c-2.6-2.1-6.9-3.2-8.2,0.9
				C1345.2,1459.9,1351.6,1465.7,1354.9,1468.2L1354.9,1468.2z"/>
		</g>
		<g>
			<path class="st7" d="M2372.7,1397.6l-14.8-4.4l3.9-11.8c-3.2-4.8-10.9-7.1-9.7-14.5c4.1-4.8,6.8,6.8,11.8,8.5
				c4.8-8.6-2.7-18.4,4.2-23.1c8.5-6.2,19.5-3.5,18,7.9c-1.8,8.5-5.9,13-9.5,18.4L2372.7,1397.6z"/>
			<path class="st7" d="M2124.5,1392.4l14.6-4.8l-4.4-11.6c3-5,10.7-7.5,9.2-14.8c-4.2-4.7-6.6,6.9-11.5,8.8
				c-5.3-8.5,2-18.4-5.1-22.8c-8.8-6-19.6-2.9-17.7,8.5c2.1,8.3,6.3,12.8,10.3,18.1L2124.5,1392.4z"/>
			<path class="st11" d="M2324.4,1900.6l-9.8,4.8c-11.6,8.9-42.6,9.4-35.2,26.9l59-7.9c-0.9-7.1-1.4-15.1-6-21.6L2324.4,1900.6z"/>
			<path class="st7" d="M2331.4,1892.9l-18,2.6l1.2,10c6.2,1.1,12.5,0,17.8-2.6L2331.4,1892.9z"/>
			<path class="st11" d="M2225.4,1902.3l-10.9,4.2c-13.6,8-45.3,7.1-40.9,24.3l61.8-4.7c0.5-6.9,1.5-14.6-2.1-21.1L2225.4,1902.3z"
				/>
			<path class="st7" d="M2234,1895.3l-18.9,1.5l-0.6,9.7c6.2,1.4,12.8,0.6,18.7-1.5L2234,1895.3z"/>
			<path class="st11" d="M2268,1609.5l44.5,34.1l20.7,252.3l-22,2l-41.7-191l-25.7,54.1l-8,138.3l-24.8-1.8
				c-0.3-13.1-8.6-114-9.5-135.7c2.3-20.2,20.2-75,30.5-110.8L2268,1609.5z"/>
			<path class="st12" d="M2296.6,1497.6c34.9,0.6,22.5-5.1,33.5-22.6c2.7-7.4,2.9-11.3,5.1-18.1l17.1-69.2l25.2,3.8l-21.7,115.8
				l-47.6,37.9l4.2,99.5c-25.8,24.6-53.3,1.8-80.5,6.2l-16-102.4l-51.8-37.3c-11.8-11.6-40.2-111.1-44.5-122.9l24-6l38.8,101.3
				l39.1,20.5C2245,1495.6,2275.1,1488.7,2296.6,1497.6L2296.6,1497.6z"/>
			<path class="st7" d="M2253.3,1477.1l25.2,4.4l-3,23.1c-12.1,5.3-21.7-1.1-27.5-6.3L2253.3,1477.1z"/>
			<path class="st5" d="M2305.3,1436.3c-15.6-6-31.3-12.1-47-18.1c-7.9,8-18.6,48.3-12.8,60.5c7.1,15.4,29.3,12.7,37.9,2.4
				C2292,1472.1,2305.7,1447,2305.3,1436.3L2305.3,1436.3z"/>
			<path class="st8" d="M2290,1432.5l-34.3-10.9c-9.2-11.2-14-20.2-11.9-36.7c12.5-1.8,17.2,3.9,22.2,10.7
				c0.8-9.1-0.9-18.4,8.9-21.4c14.9,0,12.5,34.3,46.1,44.4c3.5,16.3-12.8,36.2-26.1,45.9L2290,1432.5z"/>
		</g>
		<g>
			<g>
				<path class="st7" d="M533.1,1652.4c1.4,6.3,17.1,11.3,13.8,15c-3.5,3.6-11.8-4.6-13.1-3.2c-6.1,4.3,3.4,23.1-2.1,26
					c-13.7,7.2-25.3-16-14.4-40.5l11.5-2.7C530.1,1646.9,531.1,1645.2,533.1,1652.4L533.1,1652.4z"/>
				<path class="st7" d="M691.6,1462.9c-1.4-6.3-17.1-11.3-13.8-15.1c3.5-3.6,11.8,4.6,13.1,3.2c6.1-4.3-3.5-23.1,2.1-26
					c13.7-7.2,25.3,16,14.4,40.5l-11.5,2.7C694.6,1468.4,693.6,1470.2,691.6,1462.9L691.6,1462.9z"/>
				<path class="st13" d="M652.4,1907.8l10.7,4c13.2,8,45.4,5.1,39.6,24l-62.2-1.6c0.1-7.5-0.3-15.8,3.9-23.1L652.4,1907.8z"/>
				<path class="st7" d="M644.3,1900.7l18.9,0.6l-0.1,10.5c-6.4,1.8-12.9,1.4-18.7-0.6L644.3,1900.7z"/>
				<path class="st13" d="M546.8,1903.1l10.2,5c12.4,9.3,44.6,9.5,37.1,27.8l-61.8-7.5c0.9-7.5,1.2-15.8,6.1-22.6L546.8,1903.1z"/>
				<path class="st7" d="M539.4,1895.2l18.8,2.5L557,1908c-6.5,1.2-13,0.2-18.6-2.4L539.4,1895.2z"/>
				<polygon class="st6" points="595.4,1604.8 556.5,1640.5 557.8,1771.4 534.2,1895.6 563.4,1898.8 601.6,1775.1 606.5,1711.5 
					626.9,1781 641.4,1906.1 666.1,1905.6 667.2,1783.3 641,1638.1 625.7,1619.4 600.7,1630 				"/>
				<path class="st14" d="M556.9,1485.7c-28.2,17.2-43.8,73.5-43.8,73.5c-2.7,10.4-5.4,35.6-3.2,38.6l4.1,53.6l23.1-0.7l-1.6-72.3
					L549,1549l7.3,91.4c29.7,22.9,55.7-3.9,84.5-2.3l5.4-108.3l49.8,20.1c5.5,2.7,23.3,0.4,23.5-8.2l-8.3-76.2l-20.4,1.8l0.8,49.3
					l-56.1-32.3C610.4,1478.1,578.3,1474.1,556.9,1485.7L556.9,1485.7z"/>
				<path class="st7" d="M614.1,1459.2l-29,1.4l0.2,26.3c12.9,7.7,24.7,2,31.8-3.3L614.1,1459.2z"/>
				<path class="st5" d="M561.2,1406.1c18.4-4.6,36.9-9.4,55.3-14c7.7,10.2,14.3,57,6.1,70c-10.1,16.3-34.6,10.1-43-2.4
					C571.3,1448.3,559.2,1418.2,561.2,1406.1L561.2,1406.1z"/>
				<path class="st8" d="M600.4,1404.4c5.7-5.2,14.7,2.2,20.1-3.3c7-15.7,6.6-29.8-16.3-33.8c0.9,3.2-0.7,5.2-1.8,6.1
					c-3.6-1.2-7-4-12.4-2.2c4.3,2.9,5.1,5.1,3.7,8.5c-7,4.1-19.5-0.9-29.5,5.2c-8.9,6.8-11.3,13.3-12.7,21.6
					c-2.2,21.6,12.4,32.6,19.2,38.7c2.6,1.3,3.6,1.7,8.8-6.4c-7.3-4.4-12-11.2-6.8-16.9c7.4-8.5,7.3,5.8,14.3,6.1
					C586.2,1422.1,595.9,1407.7,600.4,1404.4L600.4,1404.4z"/>
			</g>
			<g>
				<rect x="890" y="1481.5" class="st9" width="17.6" height="448.4"/>
				<polygon class="st9" points="872.7,1483.8 890,1488.7 840.8,1929.9 822.9,1929.9 				"/>
				<polygon class="st9" points="924.8,1483.8 907.4,1488.7 956.8,1929.9 974.6,1929.9 				"/>
				<path class="st9" d="M677.7,1405.4l-29.4,8.4c-6.8,1.9-10.8,9-8.8,15.8l0,0c1.9,6.8,9,10.8,15.8,8.9l29.4-8.4
					c6.8-1.9,10.8-9,8.9-15.8l0,0C691.7,1407.5,684.5,1403.5,677.7,1405.4L677.7,1405.4z"/>
				<polygon class="st11" points="743.9,1372.4 649,1409.4 657.7,1440.1 757.9,1421.6 				"/>
				<polygon class="st9" points="865,1314.7 725.1,1372.9 741.2,1429.7 890.9,1405.7 				"/>
				<polygon class="st11" points="1112.3,1199 835.6,1317.8 866.7,1417.9 1162,1359.4 				"/>
				<path class="st9" d="M1112.7,1190.1L1112.7,1190.1c7.2-2,14.8,2.2,16.8,9.5l43,151.3c2.1,7.2-2.2,14.8-9.4,16.8l0,0
					c-7.3,2.1-14.8-2.2-16.9-9.4l-43-151.3C1101.2,1199.8,1105.5,1192.2,1112.7,1190.1L1112.7,1190.1z"/>
				<path class="st15" d="M898.7,1347.3L898.7,1347.3c18.4,0,33.5,9.1,33.5,20.2v39.4c0,11.2-15.1,20.3-33.5,20.3l0,0
					c-18.4,0-33.5-9.1-33.5-20.3v-39.4C865.2,1356.4,880.3,1347.3,898.7,1347.3L898.7,1347.3z M898.7,1363.6L898.7,1363.6
					c9.5,0,17.2,4.7,17.2,10.4v26.3c0,5.7-7.7,10.4-17.2,10.4l0,0c-9.5,0-17.2-4.7-17.2-10.4V1374
					C881.5,1368.3,889.3,1363.6,898.7,1363.6L898.7,1363.6z"/>
				<rect x="865.2" y="1402.9" class="st15" width="67" height="69.3"/>
				<path class="st11" d="M866.7,1468.3H931c5.7,0,10.4,4.7,10.4,10.4l0,0c0,5.7-4.6,10.4-10.4,10.4h-64.3
					c-5.7,0-10.4-4.7-10.4-10.4l0,0C856.2,1473.1,860.9,1468.3,866.7,1468.3L866.7,1468.3z"/>
			</g>
		</g>
		<g>
			<path class="st15" d="M1104.4,20l33.2-13.1c5.6-2.2,12,0.6,14.3,6.2l15.3,38.8c19.5-3.6,39.1-3.1,57.8,1l16.6-38.3
				c2.4-5.5,8.9-8.1,14.5-5.7l32.7,14.2c5.5,2.4,8.1,8.9,5.7,14.4l-16.6,38.3c15.8,10.9,29.5,24.9,40.2,41.5l38.7-15.3
				c5.6-2.2,12,0.6,14.3,6.2l13.1,33.2c2.2,5.6-0.6,12-6.2,14.2l-38.8,15.4c3.6,19.5,3.1,39.1-1,57.8l38.3,16.6
				c5.5,2.4,8.1,8.9,5.7,14.5l-14.2,32.7c-2.4,5.5-8.9,8.1-14.4,5.7l-38.3-16.6c-10.9,15.8-24.9,29.5-41.5,40.2l15.3,38.7
				c2.2,5.6-0.6,12-6.2,14.3l-33.2,13.1c-5.6,2.2-12-0.6-14.2-6.2l-15.4-38.8c-19.5,3.6-39.1,3.1-57.8-1l-16.6,38.3
				c-2.4,5.5-8.9,8.1-14.5,5.7l-32.7-14.2c-5.5-2.4-8.1-8.9-5.7-14.5l16.6-38.2c-15.8-10.9-29.5-24.9-40.2-41.5l-38.7,15.3
				c-5.6,2.2-12-0.6-14.3-6.2l-13.1-33.2c-2.2-5.6,0.6-12,6.2-14.2l38.8-15.4c-3.6-19.5-3.1-39.1,1-57.8l-38.3-16.6
				c-5.5-2.4-8.1-8.9-5.7-14.5l14.2-32.7c2.4-5.5,8.9-8.1,14.5-5.7l38.2,16.6c10.9-15.8,24.9-29.5,41.5-40.2l-15.3-38.7
				C1096,28.6,1098.8,22.2,1104.4,20L1104.4,20z M1165.7,126.5c39.1-15.5,83.3,3.7,98.8,42.9c15.5,39.1-3.7,83.3-42.9,98.8
				c-39.1,15.5-83.3-3.7-98.8-42.9C1107.4,186.2,1126.6,142,1165.7,126.5L1165.7,126.5z"/>
			<g>
				<path class="st2" d="M1150.4,87.9c60.5-23.9,128.9,5.7,152.8,66.2s-5.7,128.9-66.2,152.8c-60.5,23.9-128.9-5.7-152.8-66.2
					S1089.9,111.7,1150.4,87.9L1150.4,87.9z M1165.7,126.5c39.1-15.5,83.3,3.7,98.8,42.9c15.5,39.1-3.7,83.3-42.9,98.8
					c-39.1,15.5-83.3-3.7-98.8-42.9C1107.4,186.2,1126.6,142,1165.7,126.5L1165.7,126.5z"/>
				<path class="st16" d="M1193.6,317c-16.1,0-32.3-3.3-47.5-9.9c-29.3-12.7-51.9-36-63.6-65.7s-11.2-62.2,1.5-91.5
					s36-51.9,65.7-63.6s62.2-11.2,91.5,1.5s51.9,36,63.6,65.7s11.2,62.2-1.5,91.5s-36,51.9-65.7,63.6
					C1223.4,314.2,1208.5,317,1193.6,317z M1193.7,81.4c-14.4,0-28.8,2.7-42.7,8.2l0,0c-28.8,11.4-51.4,33.3-63.8,61.7
					c-12.3,28.4-12.8,59.9-1.4,88.7s33.3,51.5,61.7,63.8c28.4,12.3,59.9,12.8,88.7,1.4c28.8-11.4,51.5-33.3,63.8-61.7
					s12.8-59.9,1.4-88.7s-33.3-51.5-61.7-63.8C1225,84.6,1209.4,81.4,1193.7,81.4z M1193.6,275.4c-10.5,0-21-2.2-31-6.5
					c-19.1-8.3-33.8-23.5-41.5-42.9s-7.3-40.5,1-59.6s23.5-33.8,42.9-41.5s40.5-7.3,59.6,1s33.8,23.5,41.5,42.9s7.3,40.5-1,59.6
					s-23.5,33.8-42.9,41.5C1213,273.5,1203.3,275.4,1193.6,275.4z M1193.6,123c-9.1,0-18.3,1.7-27.2,5.2
					c-18.5,7.3-33,21.4-40.9,39.6s-8.2,38.4-0.9,56.9c11.5,29.2,39.6,47,69.2,47c9.1,0,18.3-1.7,27.2-5.2
					c38.1-15.1,56.9-58.3,41.8-96.5C1251.3,140.9,1223.2,123,1193.6,123z"/>
			</g>
		</g>
		<path class="st4" d="M1164.6,283.9c-29.7,0-58,6.8-83,19C1065.7,182.3,962.5,89,837.4,89C701.2,89,591,199.3,591,335.4
			c0,1.5,0,2.9,0,4.4c-45.3,6.9-84.4,33.1-108.7,69.6c-28.4-26-66.3-41.8-107.8-41.8c-88.2,0-159.8,71.6-159.8,159.8
			c0,41.8,16,79.9,42.3,108.3h1005.2c55.1-33.1,92-93.5,92-162.3C1354.1,368.6,1269.3,283.9,1164.6,283.9L1164.6,283.9z"/>
		<g>
			<path class="st17" d="M443.1,751.6l30.9,3.7c5.2,0.6,9,5.4,8.4,10.6l-4.3,36.1c16.4,5.4,31.3,13.8,44.1,24.7l28.6-22.5
				c4.2-3.3,10.2-2.6,13.4,1.6l19.3,24.4c3.2,4.2,2.5,10.2-1.7,13.5l-28.6,22.5c7.6,14.9,12.4,31.4,13.7,48.6l36.1,4.3
				c5.2,0.7,9,5.4,8.4,10.6l-3.7,31c-0.6,5.2-5.4,9-10.6,8.4l-36.1-4.3c-5.3,16.4-13.8,31.3-24.7,44.1l22.5,28.6
				c3.3,4.2,2.6,10.2-1.6,13.4l-24.4,19.3c-4.2,3.2-10.2,2.5-13.5-1.7l-22.5-28.6c-14.9,7.6-31.4,12.4-48.6,13.7l-4.3,36.1
				c-0.6,5.2-5.4,9-10.6,8.4l-30.9-3.7c-5.3-0.6-9.1-5.4-8.5-10.6l4.3-36.1c-16.4-5.3-31.3-13.8-44-24.7l-28.6,22.5
				c-4.2,3.3-10.3,2.6-13.5-1.6l-19.2-24.4c-3.3-4.2-2.6-10.2,1.6-13.5l28.6-22.5c-7.6-14.9-12.4-31.4-13.7-48.6l-36.1-4.3
				c-5.2-0.6-9-5.4-8.4-10.6l3.7-30.9c0.6-5.3,5.4-9.1,10.6-8.5l36.1,4.3c5.4-16.4,13.8-31.3,24.7-44l-22.5-28.6
				c-3.2-4.2-2.6-10.3,1.6-13.5l24.4-19.2c4.2-3.3,10.2-2.6,13.5,1.6l22.5,28.6c14.9-7.6,31.4-12.4,48.6-13.7l4.3-36.1
				C433.1,754.7,437.9,751,443.1,751.6L443.1,751.6z M446.1,858.9c36.4,4.4,62.5,37.4,58.2,73.9c-4.4,36.5-37.4,62.6-73.9,58.3
				c-36.5-4.4-62.6-37.4-58.3-73.9C376.5,880.6,409.6,854.6,446.1,858.9L446.1,858.9z"/>
			<g>
				<path class="st15" d="M450.3,822.8c56.4,6.7,96.7,57.9,90,114.2c-6.7,56.4-57.9,96.7-114.2,90c-56.4-6.7-96.7-57.9-90-114.2
					C342.8,856.4,393.9,816.1,450.3,822.8L450.3,822.8z M446.1,858.9c36.4,4.4,62.5,37.4,58.2,73.9c-4.4,36.5-37.4,62.6-73.9,58.3
					c-36.5-4.4-62.6-37.4-58.3-73.9C376.5,880.6,409.6,854.6,446.1,858.9L446.1,858.9z"/>
				<path class="st18" d="M438.4,1030c-4.2,0-8.4-0.2-12.6-0.8c-27.9-3.3-52.8-17.3-70.2-39.3c-17.4-22-25.1-49.5-21.8-77.4
					c3.3-27.9,17.3-52.8,39.3-70.2s49.5-25.1,77.4-21.8l0,0c27.9,3.3,52.8,17.3,70.2,39.3c17.4,22,25.1,49.5,21.8,77.4
					s-17.3,52.8-39.3,70.2C484.5,1022.2,461.9,1030,438.4,1030z M438,824.3c-22.4,0-44.1,7.5-62,21.6
					c-21.1,16.6-34.5,40.5-37.7,67.2s4.2,53,20.9,74.1c16.6,21.1,40.5,34.5,67.2,37.7c26.7,3.2,53-4.2,74.1-20.9
					c21.1-16.6,34.5-40.5,37.7-67.2c3.2-26.7-4.2-53-20.9-74.1c-16.6-21.1-40.5-34.5-67.2-37.7l0,0C446,824.5,442,824.3,438,824.3z
					 M438.3,993.7c-2.7,0-5.4-0.2-8.2-0.5c-18.2-2.2-34.6-11.3-45.9-25.7c-11.4-14.4-16.4-32.4-14.3-50.6
					c2.2-18.3,11.3-34.6,25.7-45.9c14.4-11.4,32.4-16.4,50.7-14.3l0,0c37.6,4.5,64.5,38.8,60.1,76.3c-2.2,18.2-11.3,34.6-25.7,45.9
					C468.5,988.6,453.7,993.7,438.3,993.7z M438.2,860.6c-32.1,0-60,24.1-63.9,56.8c-4.1,35.2,21.1,67.2,56.3,71.4
					c35.2,4.1,67.2-21.1,71.4-56.3c4.1-35.2-21.1-67.2-56.2-71.4C443.3,860.8,440.7,860.6,438.2,860.6z"/>
			</g>
		</g>
		<g>
			<polygon class="st6" points="1351,797.1 1358.4,1108.3 1608.1,936.5 			"/>
			<polygon class="st19" points="1557.7,1100 1169.9,573.2 2527.7,453.9 			"/>
			<path class="st20" d="M1359.1,1109.1c-23.1-52.4-55-211.2-44.8-341.5l1186.1-303l-1145.7,360
				C1357.5,917.2,1373.6,1072.4,1359.1,1109.1L1359.1,1109.1z"/>
		</g>
		<g>
			<path class="st21" d="M1657.8,719.2l-11,4.7c-13.6,9.2-48,7.9-40.9,27.6l66-4.8c-0.5-8-0.5-16.8-5.3-24.3L1657.8,719.2z"/>
			<path class="st7" d="M1666.1,711.2l-20.1,1.7l0.8,11c6.8,1.7,13.7,0.9,19.8-1.5L1666.1,711.2z"/>
			<path class="st21" d="M1757.9,711.7l11.9,2.3c15.3,6,48.5-2.7,45.8,18.1l-65.5,9.5c-1.2-8-3.2-16.6,0-24.9L1757.9,711.7z"/>
			<path class="st7" d="M1748.1,705.6l19.9-2.7l1.8,11c-6.3,3-13.3,3.8-19.8,2.7L1748.1,705.6z"/>
			<polygon class="st22" points="1673.2,375.8 1723.3,418.1 1772.7,709.5 1745.2,712.9 1690.3,503.6 1671.2,717.5 1642.1,719.8 
				1631.7,426.3 			"/>
			<path class="st23" d="M1690.4,218.8c-17.5,2.3-28.4,1.1-45.9,3.2c-18.6,1.8-28.4,7.4-40.3,21.1c-9.2,11.5-40.9,46.2-57.1,70.5
				c-11.2,18.1-7.5,33.1,6,42.6l57.8,32.6l7.5-14.2l-33.1-38.2l26.3-32.2l19.9,122l91.7-8.2l1.8-153.7l48.8-63
				c9.5-11.6,2.6-22.2-9.8-26.9l-64.6-23l-7.1,19.6l44.1,24.3L1690.4,218.8z"/>
			<path class="st7" d="M1668.5,201.3l-26.4,2.7l3,22.8c12.8,8.8,23.6,7.5,29.3,1.1L1668.5,201.3z"/>
			<path class="st24" d="M1621.6,159.6c17.4-6,34.7-12.1,52.1-18.1c8.2,9.2,18.6,53.8,11.8,66.9c-8.3,16.5-32.5,12.7-41.5,1.2
				C1634.8,199.3,1620.6,171.4,1621.6,159.6L1621.6,159.6z"/>
			<path class="st8" d="M1641.6,167c8-16.5,28.5-3.5,37.6-8.2c6.2-7.1,36.7-38.7,25.8-54.4c-7.1-9.4-38.1-0.3-49.1,5
				c-9.1,3.9-18.7,10.1-25.7,16c-7.2,6.9-10.3,16-8,25.5c-5.9-2.1-17.8,11-17.5,16c-1.8,15.9,21,16.3,30.7,30.3
				C1642.7,195.1,1639.4,169.1,1641.6,167L1641.6,167z"/>
			<path class="st24" d="M1639.7,190c9.7-5.1,8.3-9.4,0.9-14.8c-2.6-2.9-7.2-4.7-9.2-0.3C1630.3,178.9,1636.4,186.6,1639.7,190
				L1639.7,190z"/>
			<path class="st7" d="M1699,152.8c-19.8-6-46.4-16.9-50.3-11c-3.2,3.8,28.5,7.2,34.6,18.9c-2.9,0.5-4.1,0.8-6.2,0.2
				c-3.8-1.7-12.2-7.1-15.9-2.1c-0.3,2.7,13,7.1,18.7,9.1l11.9,0.5l1.4,0.5L1699,152.8z"/>
			<path class="st7" d="M1611.3,388.2c5,6.5,8.3,14.6,16.3,18c7.9,2.4,17.2-14,14.2-22.5c-4.7-8.3-15.3-6.3-23.6-8.6L1611.3,388.2z"
				/>
		</g>
	</g>
</g>
</svg>
