<?xml version="1.0" encoding="utf-8"?>
<!-- Generator: Adobe Illustrator 24.0.1, SVG Export Plug-In . SVG Version: 6.00 Build 0)  -->
<svg version="1.1" id="Layer_1" xmlns="http://www.w3.org/2000/svg" xmlns:xlink="http://www.w3.org/1999/xlink" x="0px" y="0px"
	 viewBox="0 0 1000 1000" style="enable-background:new 0 0 1000 1000;" xml:space="preserve">
<style type="text/css">
	.st0{fill:#DBCFF4;}
	.st1{fill:#9876DF;}
</style>
<g>
	<circle class="st0" cx="500" cy="500" r="499"/>
	<path class="st1" d="M307.3,677.3V331.9h399.3V481l64.5,21.2V300.1c0-17.3-14.4-32.7-32.7-32.7H275.6c-17.3,0-32.7,15.4-32.7,32.7
		v409.9c0,18.3,15.4,32.7,32.7,32.7h231.9l-22.1-65.4H307.3z"/>
	<path class="st1" d="M926.1,823.6L791.3,688.9l47.2-47.2c17.3-17.3,10.6-46.2-12.5-53.9l-276.2-89.5c-25-7.7-49.1,15.4-40.4,40.4
		L598.9,814c7.7,23.1,36.6,29.8,53.9,12.5l47.2-47.2l134.7,134.7c10.6,10.6,26.9,10.6,36.6,0l54.8-54.8
		C936.6,849.6,936.6,833.2,926.1,823.6z"/>
</g>
</svg>
