<?xml version="1.0" encoding="utf-8"?>
<!-- Generator: Adobe Illustrator 24.0.1, SVG Export Plug-In . SVG Version: 6.00 Build 0)  -->
<svg version="1.1" id="Layer_1" xmlns="http://www.w3.org/2000/svg" xmlns:xlink="http://www.w3.org/1999/xlink" x="0px" y="0px"
	 viewBox="0 0 1000 1000" style="enable-background:new 0 0 1000 1000;" xml:space="preserve">
<style type="text/css">
	.st0{fill:#FBDDFA;}
	.st1{fill-rule:evenodd;clip-rule:evenodd;fill:#F49EF0;}
</style>
<g>
	<g>
		<circle class="st0" cx="500" cy="500" r="499"/>
	</g>
	<g>
		<path class="st1" d="M457.1,865.5c0,0,44.9,1.1,44.9-26.9h32.1v-35.4h-154v35.4h32.1C412.2,866.6,457.1,865.5,457.1,865.5z
			 M539.3,242.1h73v-19.8c-12.5-7-21-20.4-21-35.8c0-22.6,18.4-41,41-41s41,18.3,41,41c0,15.4-8.5,28.8-21,35.8v19.8h73
			c13.9,0,25.3,11.4,25.3,25.3v185.8c0,13.9-11.4,25.3-25.3,25.3h-73V463c12.5-7,21-20.4,21-35.8c0-22.6-18.4-41-41-41
			s-41,18.3-41,41c0,15.4,8.5,28.8,21,35.8v15.7h-73c-13.9,0-25.3-11.4-25.3-25.3v-72.9h-19.8c-7,12.5-20.4,21-35.8,21
			c-22.6,0-41-18.4-41-41c0-22.6,18.4-41,41-41c15.4,0,28.8,8.5,35.8,21h19.8v-73C513.9,253.5,525.3,242.1,539.3,242.1L539.3,242.1z
			 M847,360.4c0,22.6-18.4,41-41,41c-15.4,0-28.8-8.5-35.8-21h-19.8v-39.9h19.8c7-12.5,20.4-21,35.8-21
			C828.6,319.4,847,337.8,847,360.4z M534.1,775.4v-29.2h-154v29.2H534.1z M534.1,718.6v-24.5c0,0,37-2.8,37-58.3s0-57.7,0-57.7
			s34.8-24.3,61.2-74.2h-93.1c-27.9,0-50.6-22.7-50.6-50.6v-34c-9.2,4.7-19.6,7.3-30.3,7.3c-36.6,0-66.3-29.7-66.3-66.3
			s29.7-66.3,66.3-66.3c10.7,0,21.1,2.6,30.3,7.3v-34c0-27.9,22.7-50.6,50.6-50.6h11c-121.1-50.8-297.6,4.7-297.6,166.3
			c0,131.7,90.4,195,90.4,195s0,2.2,0,57.7s37,58.3,37,58.3v24.5H534.1z"/>
	</g>
</g>
</svg>
