<?xml version="1.0" encoding="utf-8"?>
<!-- Generator: Adobe Illustrator 24.0.1, SVG Export Plug-In . SVG Version: 6.00 Build 0)  -->
<svg version="1.1" id="Layer_1" xmlns="http://www.w3.org/2000/svg" xmlns:xlink="http://www.w3.org/1999/xlink" x="0px" y="0px"
	 viewBox="0 0 2834.6 881.6" style="enable-background:new 0 0 2834.6 881.6;" xml:space="preserve">
<style type="text/css">
	.st0{fill:url(#SVGID_1_);}
	.st1{fill:url(#SVGID_2_);}
	.st2{fill:url(#SVGID_3_);}
	.st3{fill:#3D3D3D;}
	.st4{fill:url(#SVGID_4_);}
	.st5{fill:url(#SVGID_5_);}
	.st6{clip-path:url(#SVGID_7_);}
	.st7{fill:#FBFFA4;}
	.st8{fill:#FFFFFF;}
</style>
<g>
	<g>
		<g>
			<linearGradient id="SVGID_1_" gradientUnits="userSpaceOnUse" x1="1271.9753" y1="464.7874" x2="1768.6659" y2="435.1342">
				<stop  offset="0" style="stop-color:#3FECFF"/>
				<stop  offset="1" style="stop-color:#C694FF"/>
			</linearGradient>
			<path class="st0" d="M1779.3,481.5c0,31.2-24.3,49.4-69.8,49.4h-92.9v-179h88.2c45.5,0,66.7,19.7,66.7,46.8
				c0,16.6-7.8,30.4-22.9,38.6C1768,444.9,1779.3,460.2,1779.3,481.5z M1671.3,394v26.6h25.9c12.5,0,18.2-4.6,18.2-13.3
				s-5.7-13.3-18.2-13.3H1671.3z M1723.2,474.5c0-9.2-6.1-14.1-18.4-14.1h-33.5v28.1h33.5C1717,488.6,1723.2,483.8,1723.2,474.5z"/>
			<linearGradient id="SVGID_2_" gradientUnits="userSpaceOnUse" x1="1270.7689" y1="444.5805" x2="1767.4596" y2="414.9274">
				<stop  offset="0" style="stop-color:#3FECFF"/>
				<stop  offset="1" style="stop-color:#C694FF"/>
			</linearGradient>
			<path class="st1" d="M1261.9,351.6h55.7v136h74.5v43.2h-130.2V351.6z"/>
			<linearGradient id="SVGID_3_" gradientUnits="userSpaceOnUse" x1="1271.5269" y1="457.2756" x2="1768.2175" y2="427.6224">
				<stop  offset="0" style="stop-color:#3FECFF"/>
				<stop  offset="1" style="stop-color:#C694FF"/>
			</linearGradient>
			<path class="st2" d="M1535.2,502h-62.7l-11.1,28.8h-56.6l72.2-179.2h54.7l72.2,179.2h-57.5L1535.2,502z M1519.9,461.9l-16-55.6
				l-16,55.6H1519.9z"/>
		</g>
		<g>
			<path class="st3" d="M0,449.7v-98h57.8V448c0,26.2,10,36,26.2,36c16.2,0,26.2-9.8,26.2-36v-96.3h56.8v98c0,51.4-30.8,81-83.5,81
				S0,501.1,0,449.7z"/>
			<path class="st3" d="M348.5,351.9v178.9H301l-65.1-81.6v81.6h-56.3V351.9h47.5l65.1,85.4v-85.4H348.5z"/>
			<path class="st3" d="M361.2,351.9H419v178.9h-57.8V351.9z"/>
			<path class="st3" d="M431.7,441.2c0-52.6,40.4-89.6,95.5-89.6c33.5,0,60,12.2,76.9,34.3l-36.5,32.6c-10-12.7-22-20.1-37.5-20.1
				c-24,0-40.1,16.6-40.1,42.8c0,26.2,16.2,42.8,40.1,42.8c15.4,0,27.4-7.3,37.5-20.1l36.5,32.6c-16.9,22-43.3,34.3-76.9,34.3
				C472.1,530.8,431.7,493.8,431.7,441.2z"/>
			<path class="st3" d="M1168.6,351.7v178.9h-47.5L1056,449v81.6h-56.3V351.7h47.5l65.1,85.4v-85.4H1168.6z"/>
			<path class="st3" d="M616.7,441.2c0-51.9,40.9-89.6,96.7-89.6c55.8,0,96.7,37.7,96.7,89.6s-40.9,89.6-96.7,89.6
				C657.6,530.8,616.7,493.1,616.7,441.2z M751.8,441.2c0-26.7-17.1-42.8-38.4-42.8S675,414.5,675,441.2c0,26.7,17.1,42.8,38.4,42.8
				S751.8,467.9,751.8,441.2z"/>
			<path class="st3" d="M896.2,485.7h-15.7v45h-57.8v-179h82.5c47.7,0,78.1,26.1,78.1,67.5c0,25.8-11.7,45.3-32.3,56.3l36,55.2
				h-61.7L896.2,485.7z M901.6,398.3h-21v41.9h21c15.9,0,23.5-7.9,23.5-21C925.1,406.2,917.5,398.3,901.6,398.3z"/>
		</g>
	</g>
	<g id="юникорн_16_">
		<path id="фон_обводка_9_" class="st3" d="M2784.5,237.1c-21.5-41-49.2-78.2-82.5-110.8
			C2619.3,45.6,2510.1,1.1,2394.5,1.1c-119.5,0-231.4,47.1-314.9,132.6c-66.2,67.8-108.1,153.1-121,246.7
			c-12.7,91.7,3.1,183.3,45.9,264.9c21.5,41,49.2,78.2,82.5,110.8c82.7,80.8,191.9,125.2,307.5,125.2c0,0,0,0,0,0
			c119.5,0,231.3-47.1,314.9-132.6c66.2-67.8,108.1-153.1,121-246.7C2843.1,410.4,2827.2,318.7,2784.5,237.1z"/>
		<g id="гррадиент_4_">
			
				<linearGradient id="SVGID_4_" gradientUnits="userSpaceOnUse" x1="-52.3668" y1="304.626" x2="229.9236" y2="1112.028" gradientTransform="matrix(-0.4855 -0.8742 0.8742 -0.4855 1715.1141 770.8256)">
				<stop  offset="0" style="stop-color:#ADB3F2"/>
				<stop  offset="1" style="stop-color:#FABCF3"/>
			</linearGradient>
			<path class="st4" d="M2693.3,135.3c-169-165-439.7-161.8-604.8,7.2c-132.7,135.9-156.6,337.5-73,497.1l758-396.7
				C2753.1,204,2726.4,167.6,2693.3,135.3z"/>
			
				<linearGradient id="SVGID_5_" gradientUnits="userSpaceOnUse" x1="-313.3767" y1="395.8824" x2="-31.0863" y2="1203.2843" gradientTransform="matrix(-0.4855 -0.8742 0.8742 -0.4855 1715.1141 770.8256)">
				<stop  offset="0" style="stop-color:#97F0FF"/>
				<stop  offset="1" style="stop-color:#B1B6F4"/>
			</linearGradient>
			<path class="st5" d="M2700.5,740c132.7-135.9,156.6-337.5,73-497.1l-758,396.7c20.4,38.9,47.1,75.3,80.2,107.6
				C2264.7,912.2,2535.4,909,2700.5,740z"/>
		</g>
		<g id="юникорн_24_">
			<defs>
				<circle id="SVGID_6_" cx="2394.7" cy="441.2" r="427.9"/>
			</defs>
			<clipPath id="SVGID_7_">
				<use xlink:href="#SVGID_6_"  style="overflow:visible;"/>
			</clipPath>
			<g id="юникорн_25_" class="st6">
				<polygon id="фон_5_" class="st3" points="2489.5,375.7 2384.4,217 2384.5,275.8 2327.4,189.7 2327.6,262.4 2158.3,285.8 
					1960,446.2 1969.1,562.9 1947.7,566.3 2117.2,860.7 2335.1,536.5 2371.3,587.6 2397.3,716.5 2505.7,727.9 2542.2,455 
					2827.5,208.6 				"/>
				<g id="юникорн_треугольники_4_">
					<g id="юникорн_26_">
						<polygon id="рог_6_" class="st7" points="2537.3,447.6 2494.4,383.7 2773.5,244.4 						"/>
						<polygon id="перед_тела_7_" class="st8" points="2117.6,844.1 2327.3,532 1961.5,572.9 						"/>
						<polygon id="задняя_часть_спины_7_" class="st8" points="2327.3,277.6 1982.7,560.1 2327.3,522.9 						"/>
						<polygon id="низ_морды_7_" class="st8" points="2405.2,708.5 2383.2,600.1 2488.7,718.9 						"/>
						<polygon id="верх_морды_7_" class="st8" points="2497,714.8 2384.9,588.8 2533.8,462.3 						"/>
						<polygon id="_x33__грива_9_" class="st8" points="1914.3,601.7 1967.6,461 2112.4,440 						"/>
						<polygon id="_x31__грива_14_" class="st8" points="2156.2,299.3 2114,429.1 1967.4,451.9 						"/>
						<polygon id="_x31__грива_13_" class="st8" points="2122.4,432.8 2167.8,293.4 2320.6,271 						"/>
						<polygon id="голова_7_" class="st8" points="2379.6,583.2 2336.2,523.1 2336.2,277.8 2450.6,333.5 2530.4,454.1 						
							"/>
						<polygon id="_x31__ухо_14_" class="st8" points="2383.9,291.1 2336.2,267.9 2336.2,218.9 						"/>
						<polygon id="_x31__ухо_13_" class="st8" points="2440.9,318.7 2393.2,295.6 2393.2,246.5 						"/>
					</g>
				</g>
			</g>
		</g>
	</g>
</g>
</svg>
