<?xml version="1.0" encoding="utf-8"?>
<!-- Generator: Adobe Illustrator 24.0.1, SVG Export Plug-In . SVG Version: 6.00 Build 0)  -->
<svg version="1.1" id="Layer_1" xmlns="http://www.w3.org/2000/svg" xmlns:xlink="http://www.w3.org/1999/xlink" x="0px" y="0px"
	 viewBox="0 0 2834.6 2687.2" style="enable-background:new 0 0 2834.6 2687.2;" xml:space="preserve">
<style type="text/css">
	.st0{fill:#3D3D3D;}
	.st1{fill:url(#SVGID_1_);}
	.st2{fill:url(#SVGID_2_);}
	.st3{clip-path:url(#SVGID_4_);}
	.st4{display:none;}
	.st5{fill:#FBFFA4;}
	.st6{fill:#FFFFFF;}
	.st7{display:none;fill:#FFFFFF;}
	.st8{fill:url(#SVGID_5_);}
	.st9{fill:url(#SVGID_6_);}
	.st10{fill:url(#SVGID_7_);}
</style>
<g>
	<g id="юникорн_4_">
		<path id="фон_обводка_3_" class="st0" d="M2348.1,563.6c-51.2-97.8-117.4-186.7-196.9-264.3
			C1953.8,106.5,1693.2,0.4,1417.4,0.4c-285.3,0-552.2,112.4-751.5,316.5c-158,161.8-257.9,365.3-288.8,588.6
			c-30.4,218.9,7.5,437.5,109.5,632.3c51.2,97.8,117.4,186.7,196.9,264.3c197.3,192.7,457.9,298.9,733.8,298.9c0,0,0.1,0,0.1,0
			c285.2,0,552.1-112.4,751.4-316.5c158-161.8,257.9-365.3,288.8-588.6C2487.9,977,2450.1,758.4,2348.1,563.6z"/>
		<g id="гррадиент_1_">
			
				<linearGradient id="SVGID_1_" gradientUnits="userSpaceOnUse" x1="663.9542" y1="-127.0737" x2="1337.6304" y2="1799.7627" gradientTransform="matrix(-0.4855 -0.8742 0.8742 -0.4855 925.6959 2112.2759)">
				<stop  offset="0" style="stop-color:#ADB3F2"/>
				<stop  offset="1" style="stop-color:#FABCF3"/>
			</linearGradient>
			<path class="st1" d="M2130.4,320.5C1727.2-73.3,1081-65.7,687.2,337.6C370.5,661.8,313.5,1143.1,512.9,1524l1808.9-946.6
				C2273.2,484.6,2209.4,397.7,2130.4,320.5z"/>
			
				<linearGradient id="SVGID_2_" gradientUnits="userSpaceOnUse" x1="41.0634" y1="90.7064" x2="714.7396" y2="2017.5428" gradientTransform="matrix(-0.4855 -0.8742 0.8742 -0.4855 925.6959 2112.2759)">
				<stop  offset="0" style="stop-color:#97F0FF"/>
				<stop  offset="1" style="stop-color:#B1B6F4"/>
			</linearGradient>
			<path class="st2" d="M2147.5,1763.8c316.7-324.2,373.7-805.5,174.3-1186.4L512.9,1524c48.6,92.8,112.3,179.7,191.4,256.8
				C1107.5,2174.7,1753.7,2167,2147.5,1763.8z"/>
		</g>
		<g id="юникорн_5_">
			<defs>
				<circle id="SVGID_3_" cx="1417.8" cy="1050.6" r="1021.3"/>
			</defs>
			<clipPath id="SVGID_4_">
				<use xlink:href="#SVGID_3_"  style="overflow:visible;"/>
			</clipPath>
			<g id="юникорн_6_" class="st3">
				<polygon id="фон_2_" class="st0" points="1644.1,894.4 1393.3,515.5 1393.4,656 1257.2,450.3 1257.6,624 853.7,679.7 
					380.5,1062.6 402.1,1341 351.1,1349.1 755.6,2051.8 1275.6,1278 1361.9,1399.9 1424.1,1707.5 1682.6,1734.9 1769.8,1083.5 
					2450.7,495.5 				"/>
				<g id="юникорн_треугольники_1_">
					<polygon id="фон_обводка_2_" class="st4" points="2334.6,582.1 2313.6,548.3 1607.4,815.2 1535.3,719.1 
						1463.6,490.8 1404.1,624.7 1315.7,434.8 1264.8,595.5 1201.8,579.7 867.6,594.7 381,921.4 363.5,1095.5 363.5,1131.5 
						302.6,1204.7 752.2,1993.5 1259.7,1236.4 1324.2,1333.8 1394.6,1662 1650.9,1692 1748.2,1031.3 					"/>
					<g id="юникорн_7_">
						<polygon id="рог_1_" class="st5" points="1758.1,1066 1655.7,913.3 2321.8,580.9 						"/>
						<polygon id="перед_тела_4_" class="st6" points="756.5,2012 1257,1267.3 384,1364.9 						"/>
						<polygon id="задняя_часть_спины_4_" class="st6" points="1257,660.2 434.7,1334.5 1257,1245.7 						"/>
						<polygon id="низ_морды_4_" class="st6" points="1442.9,1688.5 1390.5,1429.8 1642.1,1713.2 						"/>
						<polygon id="верх_морды_4_" class="st6" points="1662,1703.7 1394.5,1402.9 1749.9,1101.1 						"/>
						<polygon id="_x34__грива_3_" class="st7" points="479.8,1041.7 404.4,1337.5 103.2,1356.7 						"/>
						<polygon id="_x33__грива_6_" class="st7" points="431.3,1312.7 508.1,1017.3 809.3,999.5 						"/>
						<polygon id="_x32__грива_5_" class="st7" points="912.9,680.6 837.5,976.3 536.4,995.5 						"/>
						<polygon id="_x33__грива_5_" class="st6" points="271.3,1433.6 398.6,1098 744.1,1047.7 						"/>
						<polygon id="_x31__грива_6_" class="st6" points="848.6,712.1 748,1021.8 398,1076.1 						"/>
						<polygon id="_x31__грива_5_" class="st6" points="768.1,1030.5 876.2,697.8 1241,644.6 						"/>
						<polygon id="голова_4_" class="st6" points="1381.7,1389.5 1278.3,1246.2 1278.3,660.6 1551.3,793.6 1741.7,1081.3 
													"/>
						<polygon id="_x31__ухо_10_" class="st6" points="1392.1,692.3 1278.2,637.2 1278.1,520 						"/>
						<polygon id="_x31__ухо_9_" class="st6" points="1528.2,758.2 1414.3,703.1 1414.2,585.9 						"/>
					</g>
				</g>
			</g>
		</g>
	</g>
	<g>
		<g>
			<linearGradient id="SVGID_5_" gradientUnits="userSpaceOnUse" x1="2018.9878" y1="2565.4558" x2="2819.9053" y2="2538.4585">
				<stop  offset="0" style="stop-color:#3FECFF"/>
				<stop  offset="1" style="stop-color:#C694FF"/>
			</linearGradient>
			<path class="st8" d="M2834.6,2608.1c0,49.7-38.7,78.6-111.2,78.6h-148v-285.2h140.5c72.5,0,106.3,31.4,106.3,74.6
				c0,26.5-12.4,48.5-36.4,61.5C2816.6,2549.8,2834.6,2574.3,2834.6,2608.1z M2662.6,2468.8v42.4h41.3c19.9,0,28.9-7.3,28.9-21.2
				c0-13.9-9-21.2-28.9-21.2H2662.6z M2745.2,2597.1c0-14.7-9.8-22.4-29.3-22.4h-53.4v44.8h53.4
				C2735.5,2619.5,2745.2,2611.8,2745.2,2597.1z"/>
			<linearGradient id="SVGID_6_" gradientUnits="userSpaceOnUse" x1="2014.4696" y1="2547.3691" x2="2814.7322" y2="2520.3938">
				<stop  offset="0" style="stop-color:#3FECFF"/>
				<stop  offset="1" style="stop-color:#C694FF"/>
			</linearGradient>
			<path class="st9" d="M2010.4,2401.3h88.7V2618h118.7v68.8h-207.4V2401.3z"/>
			<linearGradient id="SVGID_7_" gradientUnits="userSpaceOnUse" x1="2019.2107" y1="2558.6689" x2="2819.4731" y2="2531.6938">
				<stop  offset="0" style="stop-color:#3FECFF"/>
				<stop  offset="1" style="stop-color:#C694FF"/>
			</linearGradient>
			<path class="st10" d="M2445.8,2640.9h-99.9l-17.7,45.8h-90.2l115-285.4h87.2l115,285.4h-91.7L2445.8,2640.9z M2421.4,2577
				l-25.5-88.6l-25.6,88.6H2421.4z"/>
		</g>
		<g>
			<path class="st0" d="M0,2557.7v-156.1h92v153.4c0,41.7,16,57.3,41.7,57.3c25.7,0,41.7-15.6,41.7-57.3v-153.4h90.5v156.1
				c0,81.9-49.1,129.1-133,129.1S0,2639.6,0,2557.7z"/>
			<path class="st0" d="M555.3,2401.8v285h-75.7l-103.7-130v130h-89.7v-285h75.6l103.7,136v-136H555.3z"/>
			<path class="st0" d="M575.5,2401.8h92v285h-92V2401.8z"/>
			<path class="st0" d="M687.8,2544.1c0-83.8,64.3-142.7,152.1-142.7c53.4,0,95.5,19.5,122.4,54.6l-58.1,51.9
				c-16-20.3-35.1-32-59.7-32c-38.2,0-63.9,26.5-63.9,68.2c0,41.7,25.7,68.2,63.9,68.2c24.6,0,43.7-11.7,59.7-32l58.1,51.9
				c-26.9,35.1-69,54.6-122.4,54.6C752.1,2686.9,687.8,2628,687.8,2544.1z"/>
			<path class="st0" d="M1861.8,2401.5v285h-75.7l-103.7-130v130h-89.7v-285h75.6l103.7,136v-136H1861.8z"/>
			<path class="st0" d="M982.5,2544.1c0-82.7,65.1-142.7,154-142.7c88.9,0,154,60.1,154,142.7c0,82.7-65.1,142.7-154,142.7
				C1047.6,2686.9,982.5,2626.8,982.5,2544.1z M1197.8,2544.1c0-42.5-27.3-68.2-61.2-68.2c-33.9,0-61.2,25.7-61.2,68.2
				c0,42.5,27.3,68.2,61.2,68.2C1170.5,2612.4,1197.8,2586.6,1197.8,2544.1z"/>
			<path class="st0" d="M1427.8,2615h-25v71.7h-92v-285.2h131.4c76,0,124.4,41.6,124.4,107.6c0,41.2-18.7,72.1-51.5,89.6l57.3,88
				h-98.3L1427.8,2615z M1436.4,2475.7h-33.5v66.8h33.5c25.4,0,37.4-12.6,37.4-33.4C1473.8,2488.3,1461.7,2475.7,1436.4,2475.7z"/>
		</g>
	</g>
</g>
</svg>
